<?xml version="1.0" encoding="UTF-8" standalone="no"?>
<svg
   xmlns:dc="http://purl.org/dc/elements/1.1/"
   xmlns:cc="http://creativecommons.org/ns#"
   xmlns:rdf="http://www.w3.org/1999/02/22-rdf-syntax-ns#"
   xmlns:svg="http://www.w3.org/2000/svg"
   xmlns="http://www.w3.org/2000/svg"
   xmlns:sodipodi="http://sodipodi.sourceforge.net/DTD/sodipodi-0.dtd"
   xmlns:inkscape="http://www.inkscape.org/namespaces/inkscape"
   style="overflow:hidden"
   id="raphael-paper-273"
   width="963"
   version="1.1"
   height="560.72412"
   sodipodi:docname="compatibilidad.svg"
   inkscape:version="0.92.2 2405546, 2018-03-11">
  <sodipodi:namedview
     pagecolor="#ffffff"
     bordercolor="#666666"
     borderopacity="1"
     objecttolerance="10"
     gridtolerance="10"
     guidetolerance="10"
     inkscape:pageopacity="0"
     inkscape:pageshadow="2"
     inkscape:window-width="1366"
     inkscape:window-height="734"
     id="namedview297"
     showgrid="false"
     inkscape:zoom="13.468299"
     inkscape:cx="732.13412"
     inkscape:cy="450.95761"
     inkscape:window-x="0"
     inkscape:window-y="18"
     inkscape:window-maximized="1"
     inkscape:current-layer="raphael-paper-273" />
  <metadata
     id="metadata4929">
    <rdf:RDF>
      <cc:Work
         rdf:about="">
        <dc:format>image/svg+xml</dc:format>
        <dc:type
           rdf:resource="http://purl.org/dc/dcmitype/StillImage" />
        <dc:title></dc:title>
      </cc:Work>
    </rdf:RDF>
  </metadata>
  <desc
     id="desc4341">Multi-series Line Chart with caption &quot;StatCounter Global Stats&quot;</desc>
  <defs
     id="defs4346">
    <clipPath
       id="5A9E53AF-0693-4A10-B51F-6FC122F523E7">
      <rect
         id="rect4343"
         height="500"
         width="963"
         y="0"
         x="0" />
    </clipPath>
  </defs>
  <rect
     x="7.4563107"
     y="53.267776"
     width="963"
     height="500"
     rx="0"
     ry="0"
     style="fill:#ffffff;fill-opacity:0;stroke:none"
     id="rect4348" />
  <rect
     x="36.95631"
     y="45.641571"
     width="902"
     height="377"
     rx="0"
     ry="0"
     style="fill:none;stroke:#545454;stroke-width:1;stroke-linejoin:miter;stroke-opacity:0.5"
     id="rect4356" />
  <rect
     x="37.45631"
     y="46.141571"
     width="901"
     height="376"
     rx="0"
     ry="0"
     style="fill:#ffffff;fill-opacity:0;stroke:none;stroke-width:0"
     id="rect4358" />
  <path
     id="path4374"
     style="fill:none;stroke:#717170;stroke-width:1;stroke-dasharray:none;stroke-opacity:0.4;shape-rendering:crispEdges"
     d="M 37.456311,347.64157 H 938.45631"
     inkscape:connector-curvature="0" />
  <path
     id="path4376"
     style="fill:none;stroke:#717170;stroke-width:1;stroke-dasharray:none;stroke-opacity:0.4;shape-rendering:crispEdges"
     d="M 37.456311,272.64157 H 938.45631"
     inkscape:connector-curvature="0" />
  <path
     id="path4378"
     style="fill:none;stroke:#717170;stroke-width:1;stroke-dasharray:none;stroke-opacity:0.4;shape-rendering:crispEdges"
     d="M 37.456311,196.64157 H 938.45631"
     inkscape:connector-curvature="0" />
  <path
     id="path4380"
     style="fill:none;stroke:#717170;stroke-width:1;stroke-dasharray:none;stroke-opacity:0.4;shape-rendering:crispEdges"
     d="M 37.456311,121.64157 H 938.45631"
     inkscape:connector-curvature="0" />
  <text
     id="text4388"
     font-style="normal"
     font-weight="normal"
     font-size="12px"
     style="font-style:normal;font-weight:normal;font-size:11.99973583px;font-family:open_sanslight;text-anchor:end;fill:#555555;fill-opacity:1;stroke:none;stroke-width:0.99997801"
     transform="rotate(-59.999272)"
     y="321.02478"
     x="-315.96124"
     class="fusioncharts-label">
    <tspan
       id="tspan4386"
       x="-315.96124"
       dy="-2.812438"
       style="stroke-width:0.99997801">Dec 2017</tspan>
  </text>
  <text
     id="text4392"
     font-style="normal"
     font-weight="normal"
     font-size="12px"
     style="font-style:normal;font-weight:normal;font-size:11.99973583px;font-family:open_sanslight;text-anchor:end;fill:#555555;fill-opacity:1;stroke:none;stroke-width:0.99997801"
     transform="rotate(-59.999272)"
     y="386.04929"
     x="-278.42047"
     class="fusioncharts-label">
    <tspan
       id="tspan4390"
       x="-278.42047"
       dy="-2.812438"
       style="stroke-width:0.99997801">Jan 2018</tspan>
  </text>
  <text
     id="text4396"
     font-style="normal"
     font-weight="normal"
     font-size="12px"
     style="font-style:normal;font-weight:normal;font-size:11.99973583px;font-family:open_sanslight;text-anchor:end;fill:#555555;fill-opacity:1;stroke:none;stroke-width:0.99997801"
     transform="rotate(-59.999272)"
     y="451.07388"
     x="-240.87964"
     class="fusioncharts-label">
    <tspan
       id="tspan4394"
       x="-240.87964"
       dy="-2.812438"
       style="stroke-width:0.99997801">Feb 2018</tspan>
  </text>
  <text
     id="text4400"
     font-style="normal"
     font-weight="normal"
     font-size="12px"
     style="font-style:normal;font-weight:normal;font-size:11.99973583px;font-family:open_sanslight;text-anchor:end;fill:#555555;fill-opacity:1;stroke:none;stroke-width:0.99997801"
     transform="rotate(-59.999272)"
     y="516.09845"
     x="-203.33871"
     class="fusioncharts-label">
    <tspan
       id="tspan4398"
       x="-203.33871"
       dy="-2.812438"
       style="stroke-width:0.99997801">Mar 2018</tspan>
  </text>
  <text
     id="text4404"
     font-style="normal"
     font-weight="normal"
     font-size="12px"
     style="font-style:normal;font-weight:normal;font-size:11.99973583px;font-family:open_sanslight;text-anchor:end;fill:#555555;fill-opacity:1;stroke:none;stroke-width:0.99997801"
     transform="rotate(-59.999272)"
     y="581.12292"
     x="-165.79794"
     class="fusioncharts-label">
    <tspan
       id="tspan4402"
       x="-165.79794"
       dy="-2.812438"
       style="stroke-width:0.99997801">Apr 2018</tspan>
  </text>
  <text
     id="text4408"
     font-style="normal"
     font-weight="normal"
     font-size="12px"
     style="font-style:normal;font-weight:normal;font-size:11.99973583px;font-family:open_sanslight;text-anchor:end;fill:#555555;fill-opacity:1;stroke:none;stroke-width:0.99997801"
     transform="rotate(-59.999272)"
     y="646.14752"
     x="-128.25711"
     class="fusioncharts-label">
    <tspan
       id="tspan4406"
       x="-128.25711"
       dy="-2.812438"
       style="stroke-width:0.99997801">May 2018</tspan>
  </text>
  <text
     id="text4412"
     font-style="normal"
     font-weight="normal"
     font-size="12px"
     style="font-style:normal;font-weight:normal;font-size:11.99973583px;font-family:open_sanslight;text-anchor:end;fill:#555555;fill-opacity:1;stroke:none;stroke-width:0.99997801"
     transform="rotate(-59.999272)"
     y="711.17212"
     x="-90.716293"
     class="fusioncharts-label">
    <tspan
       id="tspan4410"
       x="-90.716293"
       dy="-2.812438"
       style="stroke-width:0.99997801">June 2018</tspan>
  </text>
  <text
     id="text4416"
     font-style="normal"
     font-weight="normal"
     font-size="12px"
     style="font-style:normal;font-weight:normal;font-size:11.99973583px;font-family:open_sanslight;text-anchor:end;fill:#555555;fill-opacity:1;stroke:none;stroke-width:0.99997801"
     transform="rotate(-59.999272)"
     y="776.19659"
     x="-53.175377"
     class="fusioncharts-label">
    <tspan
       id="tspan4414"
       x="-53.175377"
       dy="-2.812438"
       style="stroke-width:0.99997801">July 2018</tspan>
  </text>
  <text
     id="text4420"
     font-style="normal"
     font-weight="normal"
     font-size="12px"
     style="font-style:normal;font-weight:normal;font-size:11.99973583px;font-family:open_sanslight;text-anchor:end;fill:#555555;fill-opacity:1;stroke:none;stroke-width:0.99997801"
     transform="rotate(-59.999272)"
     y="841.22119"
     x="-15.634562"
     class="fusioncharts-label">
    <tspan
       id="tspan4418"
       x="-15.634562"
       dy="-2.812438"
       style="stroke-width:0.99997801">Aug 2018</tspan>
  </text>
  <text
     id="text4424"
     font-style="normal"
     font-weight="normal"
     font-size="12px"
     style="font-style:normal;font-weight:normal;font-size:11.99973583px;font-family:open_sanslight;text-anchor:end;fill:#555555;fill-opacity:1;stroke:none;stroke-width:0.99997801"
     transform="rotate(-59.999272)"
     y="906.24579"
     x="21.906252"
     class="fusioncharts-label">
    <tspan
       id="tspan4422"
       x="21.906252"
       dy="-2.812438"
       style="stroke-width:0.99997801">Sept 2018</tspan>
  </text>
  <text
     id="text4428"
     font-style="normal"
     font-weight="normal"
     font-size="12px"
     style="font-style:normal;font-weight:normal;font-size:11.99973583px;font-family:open_sanslight;text-anchor:end;fill:#555555;fill-opacity:1;stroke:none;stroke-width:0.99997801"
     transform="rotate(-59.999272)"
     y="971.27026"
     x="59.447079"
     class="fusioncharts-label">
    <tspan
       id="tspan4426"
       x="59.447079"
       dy="-2.812438"
       style="stroke-width:0.99997801">Oct 2018</tspan>
  </text>
  <text
     id="text4432"
     font-style="normal"
     font-weight="normal"
     font-size="12px"
     style="font-style:normal;font-weight:normal;font-size:11.99973583px;font-family:open_sanslight;text-anchor:end;fill:#555555;fill-opacity:1;stroke:none;stroke-width:0.99997801"
     transform="rotate(-59.999272)"
     y="1036.2948"
     x="96.987953"
     class="fusioncharts-label">
    <tspan
       id="tspan4430"
       x="96.987953"
       dy="-2.812438"
       style="stroke-width:0.99997801">Nov 2018</tspan>
  </text>
  <text
     id="text4438"
     font-style="undefined"
     font-weight="undefined"
     font-size="10px"
     style="font-size:10px;font-family:Verdana, sans;text-anchor:end;fill:#555555;stroke:none"
     y="422.14157"
     x="31.45631"
     class="fusioncharts-label">
    <tspan
       id="tspan4436"
       x="31.45631"
       dy="3.75">0%</tspan>
  </text>
  <text
     id="text4442"
     font-style="undefined"
     font-weight="undefined"
     font-size="10px"
     style="font-size:10px;font-family:Verdana, sans;text-anchor:end;fill:#555555;stroke:none"
     y="346.94156"
     x="31.45631"
     class="fusioncharts-label">
    <tspan
       id="tspan4440"
       x="31.45631"
       dy="3.753125">16%</tspan>
  </text>
  <text
     id="text4446"
     font-style="undefined"
     font-weight="undefined"
     font-size="10px"
     style="font-size:10px;font-family:Verdana, sans;text-anchor:end;fill:#555555;stroke:none"
     y="271.74158"
     x="31.45631"
     class="fusioncharts-label">
    <tspan
       id="tspan4444"
       x="31.45631"
       dy="3.7562499">32%</tspan>
  </text>
  <text
     id="text4450"
     font-style="undefined"
     font-weight="undefined"
     font-size="10px"
     style="font-size:10px;font-family:Verdana, sans;text-anchor:end;fill:#555555;stroke:none"
     y="196.54156"
     x="31.45631"
     class="fusioncharts-label">
    <tspan
       id="tspan4448"
       x="31.45631"
       dy="3.7593751">48%</tspan>
  </text>
  <text
     id="text4454"
     font-style="undefined"
     font-weight="undefined"
     font-size="10px"
     style="font-size:10px;font-family:Verdana, sans;text-anchor:end;fill:#555555;stroke:none"
     y="121.34157"
     x="31.45631"
     class="fusioncharts-label">
    <tspan
       id="tspan4452"
       x="31.45631"
       dy="3.7625">64%</tspan>
  </text>
  <text
     id="text4458"
     font-style="undefined"
     font-weight="undefined"
     font-size="10px"
     style="font-size:10px;font-family:Verdana, sans;text-anchor:end;fill:#555555;stroke:none"
     y="46.141571"
     x="31.45631"
     class="fusioncharts-label">
    <tspan
       id="tspan4456"
       x="31.45631"
       dy="3.75">80%</tspan>
  </text>
  <path
     inkscape:connector-curvature="0"
     d="m 37.456311,121.14157 74.999999,-3 75,-6 75,-7 75,2 75,4 76,-4 75,1 75,-4 h 75 l 75,-1 75,-7.999999 75,-13"
     style="fill:none;stroke:#00c000;stroke-width:2;stroke-linecap:round;stroke-linejoin:miter;stroke-opacity:1"
     id="path4478" />
  <path
     inkscape:connector-curvature="0"
     d="m 34.456311,121.14157 a 3,3 0 0 0 6,0 3,3 0 0 0 -6,0 z"
     style="fill:#ffffff;fill-opacity:1;stroke:#00c000;stroke-width:1;stroke-opacity:1"
     id="path4482" />
  <path
     inkscape:connector-curvature="0"
     d="m 109.45631,118.14157 a 3,3 0 0 0 6,0 3,3 0 0 0 -6,0 z"
     style="fill:#ffffff;fill-opacity:1;stroke:#00c000;stroke-width:1;stroke-opacity:1"
     id="path4484" />
  <path
     inkscape:connector-curvature="0"
     d="m 184.45631,112.14157 a 3,3 0 0 0 6,0 3,3 0 0 0 -6,0 z"
     style="fill:#ffffff;fill-opacity:1;stroke:#00c000;stroke-width:1;stroke-opacity:1"
     id="path4486" />
  <path
     inkscape:connector-curvature="0"
     d="m 259.45631,105.14157 a 3,3 0 0 0 6,0 3,3 0 0 0 -6,0 z"
     style="fill:#ffffff;fill-opacity:1;stroke:#00c000;stroke-width:1;stroke-opacity:1"
     id="path4488" />
  <path
     inkscape:connector-curvature="0"
     d="m 334.45631,107.14157 a 3,3 0 0 0 6,0 3,3 0 0 0 -6,0 z"
     style="fill:#ffffff;fill-opacity:1;stroke:#00c000;stroke-width:1;stroke-opacity:1"
     id="path4490" />
  <path
     inkscape:connector-curvature="0"
     d="m 409.45631,111.14157 a 3,3 0 0 0 6,0 3,3 0 0 0 -6,0 z"
     style="fill:#ffffff;fill-opacity:1;stroke:#00c000;stroke-width:1;stroke-opacity:1"
     id="path4492" />
  <path
     inkscape:connector-curvature="0"
     d="m 485.45631,107.14157 a 3,3 0 0 0 6,0 3,3 0 0 0 -6,0 z"
     style="fill:#ffffff;fill-opacity:1;stroke:#00c000;stroke-width:1;stroke-opacity:1"
     id="path4494" />
  <path
     inkscape:connector-curvature="0"
     d="m 560.45631,108.14157 a 3,3 0 0 0 6,0 3,3 0 0 0 -6,0 z"
     style="fill:#ffffff;fill-opacity:1;stroke:#00c000;stroke-width:1;stroke-opacity:1"
     id="path4496" />
  <path
     inkscape:connector-curvature="0"
     d="m 635.45631,104.14157 a 3,3 0 0 0 6,0 3,3 0 0 0 -6,0 z"
     style="fill:#ffffff;fill-opacity:1;stroke:#00c000;stroke-width:1;stroke-opacity:1"
     id="path4498" />
  <path
     inkscape:connector-curvature="0"
     d="m 710.45631,104.14157 a 3,3 0 0 0 6,0 3,3 0 0 0 -6,0 z"
     style="fill:#ffffff;fill-opacity:1;stroke:#00c000;stroke-width:1;stroke-opacity:1"
     id="path4500" />
  <path
     inkscape:connector-curvature="0"
     d="m 785.45631,103.14157 a 3,3 0 0 0 6,0 3,3 0 0 0 -6,0 z"
     style="fill:#ffffff;fill-opacity:1;stroke:#00c000;stroke-width:1;stroke-opacity:1"
     id="path4502" />
  <path
     inkscape:connector-curvature="0"
     d="m 860.45631,95.141571 a 3,3 0 0 0 6,0 3,3 0 0 0 -6,0 z"
     style="fill:#ffffff;fill-opacity:1;stroke:#00c000;stroke-width:1;stroke-opacity:1"
     id="path4504" />
  <path
     inkscape:connector-curvature="0"
     d="m 935.45631,82.141571 a 3,3 0 0 0 6,0 3,3 0 0 0 -6,0 z"
     style="fill:#ffffff;fill-opacity:1;stroke:#00c000;stroke-width:1;stroke-opacity:1"
     id="path4506" />
  <path
     inkscape:connector-curvature="0"
     d="m 37.456311,363.14157 74.999999,2 75,1 75,2 75,-1 h 75 l 76,1 h 75 l 75,1 75,1 75,1 75,3 75,5"
     style="fill:none;stroke:#e46e0e;stroke-width:2;stroke-linecap:round;stroke-linejoin:miter;stroke-opacity:1"
     id="path4520" />
  <path
     inkscape:connector-curvature="0"
     d="m 34.456311,363.14157 a 3,3 0 0 0 6,0 3,3 0 0 0 -6,0 z"
     style="fill:#ffffff;fill-opacity:1;stroke:#e46e0e;stroke-width:1;stroke-opacity:1"
     id="path4524" />
  <path
     inkscape:connector-curvature="0"
     d="m 109.45631,365.14157 a 3,3 0 0 0 6,0 3,3 0 0 0 -6,0 z"
     style="fill:#ffffff;fill-opacity:1;stroke:#e46e0e;stroke-width:1;stroke-opacity:1"
     id="path4526" />
  <path
     inkscape:connector-curvature="0"
     d="m 184.45631,366.14157 a 3,3 0 0 0 6,0 3,3 0 0 0 -6,0 z"
     style="fill:#ffffff;fill-opacity:1;stroke:#e46e0e;stroke-width:1;stroke-opacity:1"
     id="path4528" />
  <path
     inkscape:connector-curvature="0"
     d="m 259.45631,368.14157 a 3,3 0 0 0 6,0 3,3 0 0 0 -6,0 z"
     style="fill:#ffffff;fill-opacity:1;stroke:#e46e0e;stroke-width:1;stroke-opacity:1"
     id="path4530" />
  <path
     inkscape:connector-curvature="0"
     d="m 334.45631,367.14157 a 3,3 0 0 0 6,0 3,3 0 0 0 -6,0 z"
     style="fill:#ffffff;fill-opacity:1;stroke:#e46e0e;stroke-width:1;stroke-opacity:1"
     id="path4532" />
  <path
     inkscape:connector-curvature="0"
     d="m 409.45631,367.14157 a 3,3 0 0 0 6,0 3,3 0 0 0 -6,0 z"
     style="fill:#ffffff;fill-opacity:1;stroke:#e46e0e;stroke-width:1;stroke-opacity:1"
     id="path4534" />
  <path
     inkscape:connector-curvature="0"
     d="m 485.45631,368.14157 a 3,3 0 0 0 6,0 3,3 0 0 0 -6,0 z"
     style="fill:#ffffff;fill-opacity:1;stroke:#e46e0e;stroke-width:1;stroke-opacity:1"
     id="path4536" />
  <path
     inkscape:connector-curvature="0"
     d="m 560.45631,368.14157 a 3,3 0 0 0 6,0 3,3 0 0 0 -6,0 z"
     style="fill:#ffffff;fill-opacity:1;stroke:#e46e0e;stroke-width:1;stroke-opacity:1"
     id="path4538" />
  <path
     inkscape:connector-curvature="0"
     d="m 635.45631,369.14157 a 3,3 0 0 0 6,0 3,3 0 0 0 -6,0 z"
     style="fill:#ffffff;fill-opacity:1;stroke:#e46e0e;stroke-width:1;stroke-opacity:1"
     id="path4540" />
  <path
     inkscape:connector-curvature="0"
     d="m 710.45631,370.14157 a 3,3 0 0 0 6,0 3,3 0 0 0 -6,0 z"
     style="fill:#ffffff;fill-opacity:1;stroke:#e46e0e;stroke-width:1;stroke-opacity:1"
     id="path4542" />
  <path
     inkscape:connector-curvature="0"
     d="m 785.45631,371.14157 a 3,3 0 0 0 6,0 3,3 0 0 0 -6,0 z"
     style="fill:#ffffff;fill-opacity:1;stroke:#e46e0e;stroke-width:1;stroke-opacity:1"
     id="path4544" />
  <path
     inkscape:connector-curvature="0"
     d="m 860.45631,374.14157 a 3,3 0 0 0 6,0 3,3 0 0 0 -6,0 z"
     style="fill:#ffffff;fill-opacity:1;stroke:#e46e0e;stroke-width:1;stroke-opacity:1"
     id="path4546" />
  <path
     inkscape:connector-curvature="0"
     d="m 935.45631,379.14157 a 3,3 0 0 0 6,0 3,3 0 0 0 -6,0 z"
     style="fill:#ffffff;fill-opacity:1;stroke:#e46e0e;stroke-width:1;stroke-opacity:1"
     id="path4548" />
  <path
     inkscape:connector-curvature="0"
     d="m 37.456311,382.14157 74.999999,4 75,2 75,2 75,-1 75,-1 76,1 75,-1 75,1 h 75 l 75,3 75,2 75,3"
     style="fill:none;stroke:#0052d8;stroke-width:2;stroke-linecap:round;stroke-linejoin:miter;stroke-opacity:1"
     id="path4562" />
  <path
     inkscape:connector-curvature="0"
     d="m 34.456311,382.14157 a 3,3 0 0 0 6,0 3,3 0 0 0 -6,0 z"
     style="fill:#ffffff;fill-opacity:1;stroke:#0052d8;stroke-width:1;stroke-opacity:1"
     id="path4566" />
  <path
     inkscape:connector-curvature="0"
     d="m 109.45631,386.14157 a 3,3 0 0 0 6,0 3,3 0 0 0 -6,0 z"
     style="fill:#ffffff;fill-opacity:1;stroke:#0052d8;stroke-width:1;stroke-opacity:1"
     id="path4568" />
  <path
     inkscape:connector-curvature="0"
     d="m 184.45631,388.14157 a 3,3 0 0 0 6,0 3,3 0 0 0 -6,0 z"
     style="fill:#ffffff;fill-opacity:1;stroke:#0052d8;stroke-width:1;stroke-opacity:1"
     id="path4570" />
  <path
     inkscape:connector-curvature="0"
     d="m 259.45631,390.14157 a 3,3 0 0 0 6,0 3,3 0 0 0 -6,0 z"
     style="fill:#ffffff;fill-opacity:1;stroke:#0052d8;stroke-width:1;stroke-opacity:1"
     id="path4572" />
  <path
     inkscape:connector-curvature="0"
     d="m 334.45631,389.14157 a 3,3 0 0 0 6,0 3,3 0 0 0 -6,0 z"
     style="fill:#ffffff;fill-opacity:1;stroke:#0052d8;stroke-width:1;stroke-opacity:1"
     id="path4574" />
  <path
     inkscape:connector-curvature="0"
     d="m 409.45631,388.14157 a 3,3 0 0 0 6,0 3,3 0 0 0 -6,0 z"
     style="fill:#ffffff;fill-opacity:1;stroke:#0052d8;stroke-width:1;stroke-opacity:1"
     id="path4576" />
  <path
     inkscape:connector-curvature="0"
     d="m 485.45631,389.14157 a 3,3 0 0 0 6,0 3,3 0 0 0 -6,0 z"
     style="fill:#ffffff;fill-opacity:1;stroke:#0052d8;stroke-width:1;stroke-opacity:1"
     id="path4578" />
  <path
     inkscape:connector-curvature="0"
     d="m 560.45631,388.14157 a 3,3 0 0 0 6,0 3,3 0 0 0 -6,0 z"
     style="fill:#ffffff;fill-opacity:1;stroke:#0052d8;stroke-width:1;stroke-opacity:1"
     id="path4580" />
  <path
     inkscape:connector-curvature="0"
     d="m 635.45631,389.14157 a 3,3 0 0 0 6,0 3,3 0 0 0 -6,0 z"
     style="fill:#ffffff;fill-opacity:1;stroke:#0052d8;stroke-width:1;stroke-opacity:1"
     id="path4582" />
  <path
     inkscape:connector-curvature="0"
     d="m 710.45631,389.14157 a 3,3 0 0 0 6,0 3,3 0 0 0 -6,0 z"
     style="fill:#ffffff;fill-opacity:1;stroke:#0052d8;stroke-width:1;stroke-opacity:1"
     id="path4584" />
  <path
     inkscape:connector-curvature="0"
     d="m 785.45631,392.14157 a 3,3 0 0 0 6,0 3,3 0 0 0 -6,0 z"
     style="fill:#ffffff;fill-opacity:1;stroke:#0052d8;stroke-width:1;stroke-opacity:1"
     id="path4586" />
  <path
     inkscape:connector-curvature="0"
     d="m 860.45631,394.14157 a 3,3 0 0 0 6,0 3,3 0 0 0 -6,0 z"
     style="fill:#ffffff;fill-opacity:1;stroke:#0052d8;stroke-width:1;stroke-opacity:1"
     id="path4588" />
  <path
     inkscape:connector-curvature="0"
     d="m 935.45631,397.14157 a 3,3 0 0 0 6,0 3,3 0 0 0 -6,0 z"
     style="fill:#ffffff;fill-opacity:1;stroke:#0052d8;stroke-width:1;stroke-opacity:1"
     id="path4590" />
  <path
     inkscape:connector-curvature="0"
     d="m 37.456311,393.14157 74.999999,-1 75,2 75,3 h 75 l 75,-1 h 76 l 75,1 75,1 h 75 l 75,-2 h 75 l 75,2"
     style="fill:none;stroke:#808080;stroke-width:2;stroke-linecap:round;stroke-linejoin:miter;stroke-opacity:1"
     id="path4604" />
  <path
     inkscape:connector-curvature="0"
     d="m 34.456311,393.14157 a 3,3 0 0 0 6,0 3,3 0 0 0 -6,0 z"
     style="fill:#ffffff;fill-opacity:1;stroke:#808080;stroke-width:1;stroke-opacity:1"
     id="path4608" />
  <path
     inkscape:connector-curvature="0"
     d="m 109.45631,392.14157 a 3,3 0 0 0 6,0 3,3 0 0 0 -6,0 z"
     style="fill:#ffffff;fill-opacity:1;stroke:#808080;stroke-width:1;stroke-opacity:1"
     id="path4610" />
  <path
     inkscape:connector-curvature="0"
     d="m 184.45631,394.14157 a 3,3 0 0 0 6,0 3,3 0 0 0 -6,0 z"
     style="fill:#ffffff;fill-opacity:1;stroke:#808080;stroke-width:1;stroke-opacity:1"
     id="path4612" />
  <path
     inkscape:connector-curvature="0"
     d="m 259.45631,397.14157 a 3,3 0 0 0 6,0 3,3 0 0 0 -6,0 z"
     style="fill:#ffffff;fill-opacity:1;stroke:#808080;stroke-width:1;stroke-opacity:1"
     id="path4614" />
  <path
     inkscape:connector-curvature="0"
     d="m 334.45631,397.14157 a 3,3 0 0 0 6,0 3,3 0 0 0 -6,0 z"
     style="fill:#ffffff;fill-opacity:1;stroke:#808080;stroke-width:1;stroke-opacity:1"
     id="path4616" />
  <path
     inkscape:connector-curvature="0"
     d="m 409.45631,396.14157 a 3,3 0 0 0 6,0 3,3 0 0 0 -6,0 z"
     style="fill:#ffffff;fill-opacity:1;stroke:#808080;stroke-width:1;stroke-opacity:1"
     id="path4618" />
  <path
     inkscape:connector-curvature="0"
     d="m 485.45631,396.14157 a 3,3 0 0 0 6,0 3,3 0 0 0 -6,0 z"
     style="fill:#ffffff;fill-opacity:1;stroke:#808080;stroke-width:1;stroke-opacity:1"
     id="path4620" />
  <path
     inkscape:connector-curvature="0"
     d="m 560.45631,397.14157 a 3,3 0 0 0 6,0 3,3 0 0 0 -6,0 z"
     style="fill:#ffffff;fill-opacity:1;stroke:#808080;stroke-width:1;stroke-opacity:1"
     id="path4622" />
  <path
     inkscape:connector-curvature="0"
     d="m 635.45631,398.14157 a 3,3 0 0 0 6,0 3,3 0 0 0 -6,0 z"
     style="fill:#ffffff;fill-opacity:1;stroke:#808080;stroke-width:1;stroke-opacity:1"
     id="path4624" />
  <path
     inkscape:connector-curvature="0"
     d="m 710.45631,398.14157 a 3,3 0 0 0 6,0 3,3 0 0 0 -6,0 z"
     style="fill:#ffffff;fill-opacity:1;stroke:#808080;stroke-width:1;stroke-opacity:1"
     id="path4626" />
  <path
     inkscape:connector-curvature="0"
     d="m 785.45631,396.14157 a 3,3 0 0 0 6,0 3,3 0 0 0 -6,0 z"
     style="fill:#ffffff;fill-opacity:1;stroke:#808080;stroke-width:1;stroke-opacity:1"
     id="path4628" />
  <path
     inkscape:connector-curvature="0"
     d="m 860.45631,396.14157 a 3,3 0 0 0 6,0 3,3 0 0 0 -6,0 z"
     style="fill:#ffffff;fill-opacity:1;stroke:#808080;stroke-width:1;stroke-opacity:1"
     id="path4630" />
  <path
     inkscape:connector-curvature="0"
     d="m 935.45631,398.14157 a 3,3 0 0 0 6,0 3,3 0 0 0 -6,0 z"
     style="fill:#ffffff;fill-opacity:1;stroke:#808080;stroke-width:1;stroke-opacity:1"
     id="path4632" />
  <path
     inkscape:connector-curvature="0"
     d="m 37.456311,402.14157 h 74.999999 l 75,1 h 75 l 75,-1 h 75 76 75 75 75 75 75 l 75,1"
     style="fill:none;stroke:#7aafff;stroke-width:2;stroke-linecap:round;stroke-linejoin:miter;stroke-opacity:1"
     id="path4646" />
  <path
     inkscape:connector-curvature="0"
     d="m 34.456311,402.14157 a 3,3 0 0 0 6,0 3,3 0 0 0 -6,0 z"
     style="fill:#ffffff;fill-opacity:1;stroke:#7aafff;stroke-width:1;stroke-opacity:1"
     id="path4650" />
  <path
     inkscape:connector-curvature="0"
     d="m 109.45631,402.14157 a 3,3 0 0 0 6,0 3,3 0 0 0 -6,0 z"
     style="fill:#ffffff;fill-opacity:1;stroke:#7aafff;stroke-width:1;stroke-opacity:1"
     id="path4652" />
  <path
     inkscape:connector-curvature="0"
     d="m 184.45631,403.14157 a 3,3 0 0 0 6,0 3,3 0 0 0 -6,0 z"
     style="fill:#ffffff;fill-opacity:1;stroke:#7aafff;stroke-width:1;stroke-opacity:1"
     id="path4654" />
  <path
     inkscape:connector-curvature="0"
     d="m 259.45631,403.14157 a 3,3 0 0 0 6,0 3,3 0 0 0 -6,0 z"
     style="fill:#ffffff;fill-opacity:1;stroke:#7aafff;stroke-width:1;stroke-opacity:1"
     id="path4656" />
  <path
     inkscape:connector-curvature="0"
     d="m 334.45631,402.14157 a 3,3 0 0 0 6,0 3,3 0 0 0 -6,0 z"
     style="fill:#ffffff;fill-opacity:1;stroke:#7aafff;stroke-width:1;stroke-opacity:1"
     id="path4658" />
  <path
     inkscape:connector-curvature="0"
     d="m 409.45631,402.14157 a 3,3 0 0 0 6,0 3,3 0 0 0 -6,0 z"
     style="fill:#ffffff;fill-opacity:1;stroke:#7aafff;stroke-width:1;stroke-opacity:1"
     id="path4660" />
  <path
     inkscape:connector-curvature="0"
     d="m 485.45631,402.14157 a 3,3 0 0 0 6,0 3,3 0 0 0 -6,0 z"
     style="fill:#ffffff;fill-opacity:1;stroke:#7aafff;stroke-width:1;stroke-opacity:1"
     id="path4662" />
  <path
     inkscape:connector-curvature="0"
     d="m 560.45631,402.14157 a 3,3 0 0 0 6,0 3,3 0 0 0 -6,0 z"
     style="fill:#ffffff;fill-opacity:1;stroke:#7aafff;stroke-width:1;stroke-opacity:1"
     id="path4664" />
  <path
     inkscape:connector-curvature="0"
     d="m 635.45631,402.14157 a 3,3 0 0 0 6,0 3,3 0 0 0 -6,0 z"
     style="fill:#ffffff;fill-opacity:1;stroke:#7aafff;stroke-width:1;stroke-opacity:1"
     id="path4666" />
  <path
     inkscape:connector-curvature="0"
     d="m 710.45631,402.14157 a 3,3 0 0 0 6,0 3,3 0 0 0 -6,0 z"
     style="fill:#ffffff;fill-opacity:1;stroke:#7aafff;stroke-width:1;stroke-opacity:1"
     id="path4668" />
  <path
     inkscape:connector-curvature="0"
     d="m 785.45631,402.14157 a 3,3 0 0 0 6,0 3,3 0 0 0 -6,0 z"
     style="fill:#ffffff;fill-opacity:1;stroke:#7aafff;stroke-width:1;stroke-opacity:1"
     id="path4670" />
  <path
     inkscape:connector-curvature="0"
     d="m 860.45631,402.14157 a 3,3 0 0 0 6,0 3,3 0 0 0 -6,0 z"
     style="fill:#ffffff;fill-opacity:1;stroke:#7aafff;stroke-width:1;stroke-opacity:1"
     id="path4672" />
  <path
     inkscape:connector-curvature="0"
     d="m 935.45631,403.14157 a 3,3 0 0 0 6,0 3,3 0 0 0 -6,0 z"
     style="fill:#ffffff;fill-opacity:1;stroke:#7aafff;stroke-width:1;stroke-opacity:1"
     id="path4674" />
  <path
     inkscape:connector-curvature="0"
     d="m 37.456311,400.14157 74.999999,-1 h 75 l 75,1 75,-1 75,-1 76,1 75,-1 75,1 75,-1 75,2 75,1 75,2"
     style="fill:none;stroke:#202020;stroke-width:2;stroke-linecap:round;stroke-linejoin:miter;stroke-dasharray:0, 7;stroke-opacity:0.65"
     id="path4688" />
  <g
     transform="translate(5e-7,60.724085)"
     id="g4716"
     class="raphael-group-285-axistop">
    <g
       id="g4698"
       class="raphael-group-286-x-axis-bands" />
    <g
       id="g4700"
       class="raphael-group-292-y-axis-bands" />
    <g
       id="g4702"
       class="raphael-group-298-y-axis-bands" />
    <g
       id="g4704"
       class="raphael-group-288-x-axis-lines" />
    <g
       id="g4706"
       class="raphael-group-294-y-axis-lines" />
    <g
       id="g4708"
       class="raphael-group-300-y-axis-lines" />
    <g
       id="g4710"
       class="fusioncharts-xaxis-0-gridlabels" />
    <g
       id="g4712"
       class="fusioncharts-yaxis-0-gridlabels" />
    <g
       id="g4714"
       class="fusioncharts-yaxis-1-gridlabels" />
  </g>
  <g
     transform="translate(5e-7,60.724085)"
     id="g4718"
     class="fusioncharts-datalabels" />
  <g
     id="g829">
    <text
       id="text4724"
       style="font-size:13px;text-anchor:start;fill:#000000;stroke:none"
       font-size="13px"
       y="496.14154"
       x="301.95633"
       class="fusioncharts-legenditem">
      <tspan
         id="tspan4722"
         x="301.95633"
         dy="12.796875">Chrome</tspan>
    </text>
    <path
       id="path4726"
       style="fill:none;stroke:#00c000;stroke-width:2;stroke-opacity:1"
       d="m 282.95632,503.64154 h 14"
       inkscape:connector-curvature="0" />
    <circle
       id="circle4728"
       style="fill:#ffffff;fill-opacity:1;stroke:#00c000;stroke-width:1"
       r="4.1999998"
       cy="503.64154"
       cx="289.95633" />
  </g>
  <g
     id="g835">
    <text
       id="text4734"
       style="font-size:13px;text-anchor:start;fill:#000000;stroke:none"
       font-size="13px"
       y="496.14154"
       x="383.95633"
       class="fusioncharts-legenditem">
      <tspan
         id="tspan4732"
         x="383.95633"
         dy="12.796875">Firefox</tspan>
    </text>
    <path
       id="path4736"
       style="fill:none;stroke:#e46e0e;stroke-width:2;stroke-opacity:1"
       d="m 364.95632,503.64154 h 14"
       inkscape:connector-curvature="0" />
    <circle
       id="circle4738"
       style="fill:#ffffff;fill-opacity:1;stroke:#e46e0e;stroke-width:1"
       r="4.1999998"
       cy="503.64154"
       cx="371.95633" />
  </g>
  <g
     id="g841">
    <text
       id="text4744"
       style="font-size:13px;text-anchor:start;fill:#000000;stroke:none"
       font-size="13px"
       y="496.14154"
       x="458.95633"
       class="fusioncharts-legenditem">
      <tspan
         id="tspan4742"
         x="458.95633"
         dy="12.796875">IE</tspan>
    </text>
    <path
       id="path4746"
       style="fill:none;stroke:#0052d8;stroke-width:2;stroke-opacity:1"
       d="m 439.95632,503.64154 h 14"
       inkscape:connector-curvature="0" />
    <circle
       id="circle4748"
       style="fill:#ffffff;fill-opacity:1;stroke:#0052d8;stroke-width:1"
       r="4.1999998"
       cy="503.64154"
       cx="446.95633" />
  </g>
  <g
     id="g847">
    <text
       id="text4754"
       style="font-size:13px;text-anchor:start;fill:#000000;stroke:none"
       font-size="13px"
       y="496.14154"
       x="504.95633"
       class="fusioncharts-legenditem">
      <tspan
         id="tspan4752"
         x="504.95633"
         dy="12.796875">Safari</tspan>
    </text>
    <path
       id="path4756"
       style="fill:none;stroke:#808080;stroke-width:2;stroke-opacity:1"
       d="m 485.95632,503.64154 h 14"
       inkscape:connector-curvature="0" />
    <circle
       id="circle4758"
       style="fill:#ffffff;fill-opacity:1;stroke:#808080;stroke-width:1"
       r="4.1999998"
       cy="503.64154"
       cx="492.95633" />
  </g>
  <g
     id="g853">
    <text
       id="text4764"
       style="font-size:13px;text-anchor:start;fill:#000000;stroke:none"
       font-size="13px"
       y="496.14154"
       x="573.9563"
       class="fusioncharts-legenditem">
      <tspan
         id="tspan4762"
         x="573.9563"
         dy="12.796875">Edge</tspan>
    </text>
    <path
       id="path4766"
       style="fill:none;stroke:#7aafff;stroke-width:2;stroke-opacity:1"
       d="m 554.95632,503.64154 h 14"
       inkscape:connector-curvature="0" />
    <circle
       id="circle4768"
       style="fill:#ffffff;fill-opacity:1;stroke:#7aafff;stroke-width:1"
       r="4.1999998"
       cy="503.64154"
       cx="561.9563" />
  </g>
  <g
     id="g858">
    <text
       id="text4774"
       style="font-size:13px;text-anchor:start;fill:#000000;stroke:none"
       font-size="13px"
       y="496.14154"
       x="638.9563"
       class="fusioncharts-legenditem">
      <tspan
         id="tspan4772"
         x="638.9563"
         dy="12.796875">Other (dotted)</tspan>
    </text>
    <path
       id="path4776"
       style="fill:none;stroke:#202020;stroke-width:2;stroke-opacity:0.65"
       d="m 619.95632,503.64154 h 14"
       inkscape:connector-curvature="0" />
  </g>
  <text
     class="fusioncharts-caption"
     x="488.10031"
     y="43.180412"
     style="font-weight:bold;font-size:18.66666667px;font-family:Verdana, sans;text-anchor:middle;fill:#555555;stroke:none;-inkscape-font-specification:'Verdana, sans, Bold';font-style:normal;font-stretch:normal;font-variant:normal;text-align:center;writing-mode:lr;font-variant-ligatures:normal;font-variant-caps:normal;font-variant-numeric:normal;font-feature-settings:normal;"
     font-size="14px"
     font-weight="bold"
     id="text4784">
    <tspan
       style="-inkscape-font-specification:'Verdana, sans, Bold';font-family:Verdana, sans;font-weight:bold;font-style:normal;font-stretch:normal;font-variant:normal;font-size:18.66666667px;text-anchor:middle;text-align:center;writing-mode:lr;font-variant-ligatures:normal;font-variant-caps:normal;font-variant-numeric:normal;font-feature-settings:normal;"
       x="488.10031"
       id="tspan4782"
       dy="-25">StatCounter Global Stats</tspan>
  </text>
  <text
     class="fusioncharts-subcaption"
     x="488.10031"
     y="46.267796"
     style="font-style:normal;font-variant:normal;font-weight:bold;font-stretch:normal;font-size:14.66666698px;font-family:Verdana, sans;-inkscape-font-specification:'Verdana, sans, Bold';font-variant-ligatures:normal;font-variant-caps:normal;font-variant-numeric:normal;font-feature-settings:normal;text-align:center;writing-mode:lr-tb;text-anchor:middle;fill:#555555;stroke:none"
     font-size="11px"
     font-weight="bold"
     id="text4788">
    <tspan
       style="font-style:normal;font-variant:normal;font-weight:bold;font-stretch:normal;font-size:14.66666698px;font-family:Verdana, sans;-inkscape-font-specification:'Verdana, sans, Bold';font-variant-ligatures:normal;font-variant-caps:normal;font-variant-numeric:normal;font-feature-settings:normal;text-align:center;writing-mode:lr-tb;text-anchor:middle"
       dy="-7"
       x="488.10031"
       id="tspan4786">Desktop Browser Market Share Worldwide from Nov 2017 - Nov 2018</tspan>
  </text>
  <circle
     cx="37.45631"
     cy="121.14157"
     r="7.5"
     style="fill:#c0c0c0;fill-opacity:0.00000102;stroke:#c0c0c0;stroke-width:1;stroke-opacity:0.00000102"
     id="circle4792" />
  <circle
     cx="112.45631"
     cy="118.14157"
     r="7.5"
     style="fill:#c0c0c0;fill-opacity:0.00000102;stroke:#c0c0c0;stroke-width:1;stroke-opacity:0.00000102"
     id="circle4794" />
  <circle
     cx="187.45631"
     cy="112.14157"
     r="7.5"
     style="fill:#c0c0c0;fill-opacity:0.00000102;stroke:#c0c0c0;stroke-width:1;stroke-opacity:0.00000102"
     id="circle4796" />
  <circle
     cx="262.4563"
     cy="105.14157"
     r="7.5"
     style="fill:#c0c0c0;fill-opacity:0.00000102;stroke:#c0c0c0;stroke-width:1;stroke-opacity:0.00000102"
     id="circle4798" />
  <circle
     cx="337.4563"
     cy="107.14157"
     r="7.5"
     style="fill:#c0c0c0;fill-opacity:0.00000102;stroke:#c0c0c0;stroke-width:1;stroke-opacity:0.00000102"
     id="circle4800" />
  <circle
     cx="412.4563"
     cy="111.14157"
     r="7.5"
     style="fill:#c0c0c0;fill-opacity:0.00000102;stroke:#c0c0c0;stroke-width:1;stroke-opacity:0.00000102"
     id="circle4802" />
  <circle
     cx="488.4563"
     cy="107.14157"
     r="7.5"
     style="fill:#c0c0c0;fill-opacity:0.00000102;stroke:#c0c0c0;stroke-width:1;stroke-opacity:0.00000102"
     id="circle4804" />
  <circle
     cx="563.4563"
     cy="108.14157"
     r="7.5"
     style="fill:#c0c0c0;fill-opacity:0.00000102;stroke:#c0c0c0;stroke-width:1;stroke-opacity:0.00000102"
     id="circle4806" />
  <circle
     cx="638.4563"
     cy="104.14157"
     r="7.5"
     style="fill:#c0c0c0;fill-opacity:0.00000102;stroke:#c0c0c0;stroke-width:1;stroke-opacity:0.00000102"
     id="circle4808" />
  <circle
     cx="713.4563"
     cy="104.14157"
     r="7.5"
     style="fill:#c0c0c0;fill-opacity:0.00000102;stroke:#c0c0c0;stroke-width:1;stroke-opacity:0.00000102"
     id="circle4810" />
  <circle
     cx="788.4563"
     cy="103.14157"
     r="7.5"
     style="fill:#c0c0c0;fill-opacity:0.00000102;stroke:#c0c0c0;stroke-width:1;stroke-opacity:0.00000102"
     id="circle4812" />
  <circle
     cx="863.4563"
     cy="95.141571"
     r="7.5"
     style="fill:#c0c0c0;fill-opacity:0.00000102;stroke:#c0c0c0;stroke-width:1;stroke-opacity:0.00000102"
     id="circle4814" />
  <circle
     cx="938.4563"
     cy="82.141571"
     r="7.5"
     style="fill:#c0c0c0;fill-opacity:0.00000102;stroke:#c0c0c0;stroke-width:1;stroke-opacity:0.00000102"
     id="circle4816" />
  <circle
     cx="37.45631"
     cy="363.14157"
     r="7.5"
     style="fill:#c0c0c0;fill-opacity:0.00000102;stroke:#c0c0c0;stroke-width:1;stroke-opacity:0.00000102"
     id="circle4818" />
  <circle
     cx="112.45631"
     cy="365.14157"
     r="7.5"
     style="fill:#c0c0c0;fill-opacity:0.00000102;stroke:#c0c0c0;stroke-width:1;stroke-opacity:0.00000102"
     id="circle4820" />
  <circle
     cx="187.45631"
     cy="366.14157"
     r="7.5"
     style="fill:#c0c0c0;fill-opacity:0.00000102;stroke:#c0c0c0;stroke-width:1;stroke-opacity:0.00000102"
     id="circle4822" />
  <circle
     cx="262.4563"
     cy="368.14157"
     r="7.5"
     style="fill:#c0c0c0;fill-opacity:0.00000102;stroke:#c0c0c0;stroke-width:1;stroke-opacity:0.00000102"
     id="circle4824" />
  <circle
     cx="337.4563"
     cy="367.14157"
     r="7.5"
     style="fill:#c0c0c0;fill-opacity:0.00000102;stroke:#c0c0c0;stroke-width:1;stroke-opacity:0.00000102"
     id="circle4826" />
  <circle
     cx="412.4563"
     cy="367.14157"
     r="7.5"
     style="fill:#c0c0c0;fill-opacity:0.00000102;stroke:#c0c0c0;stroke-width:1;stroke-opacity:0.00000102"
     id="circle4828" />
  <circle
     cx="488.4563"
     cy="368.14157"
     r="7.5"
     style="fill:#c0c0c0;fill-opacity:0.00000102;stroke:#c0c0c0;stroke-width:1;stroke-opacity:0.00000102"
     id="circle4830" />
  <circle
     cx="563.4563"
     cy="368.14157"
     r="7.5"
     style="fill:#c0c0c0;fill-opacity:0.00000102;stroke:#c0c0c0;stroke-width:1;stroke-opacity:0.00000102"
     id="circle4832" />
  <circle
     cx="638.4563"
     cy="369.14157"
     r="7.5"
     style="fill:#c0c0c0;fill-opacity:0.00000102;stroke:#c0c0c0;stroke-width:1;stroke-opacity:0.00000102"
     id="circle4834" />
  <circle
     cx="713.4563"
     cy="370.14157"
     r="7.5"
     style="fill:#c0c0c0;fill-opacity:0.00000102;stroke:#c0c0c0;stroke-width:1;stroke-opacity:0.00000102"
     id="circle4836" />
  <circle
     cx="788.4563"
     cy="371.14157"
     r="7.5"
     style="fill:#c0c0c0;fill-opacity:0.00000102;stroke:#c0c0c0;stroke-width:1;stroke-opacity:0.00000102"
     id="circle4838" />
  <circle
     cx="863.4563"
     cy="374.14157"
     r="7.5"
     style="fill:#c0c0c0;fill-opacity:0.00000102;stroke:#c0c0c0;stroke-width:1;stroke-opacity:0.00000102"
     id="circle4840" />
  <circle
     cx="938.4563"
     cy="379.14157"
     r="7.5"
     style="fill:#c0c0c0;fill-opacity:0.00000102;stroke:#c0c0c0;stroke-width:1;stroke-opacity:0.00000102"
     id="circle4842" />
  <circle
     cx="37.45631"
     cy="382.14157"
     r="7.5"
     style="fill:#c0c0c0;fill-opacity:0.00000102;stroke:#c0c0c0;stroke-width:1;stroke-opacity:0.00000102"
     id="circle4844" />
  <circle
     cx="112.45631"
     cy="386.14157"
     r="7.5"
     style="fill:#c0c0c0;fill-opacity:0.00000102;stroke:#c0c0c0;stroke-width:1;stroke-opacity:0.00000102"
     id="circle4846" />
  <circle
     cx="187.45631"
     cy="388.14157"
     r="7.5"
     style="fill:#c0c0c0;fill-opacity:0.00000102;stroke:#c0c0c0;stroke-width:1;stroke-opacity:0.00000102"
     id="circle4848" />
  <circle
     cx="262.4563"
     cy="390.14157"
     r="7.5"
     style="fill:#c0c0c0;fill-opacity:0.00000102;stroke:#c0c0c0;stroke-width:1;stroke-opacity:0.00000102"
     id="circle4850" />
  <circle
     cx="337.4563"
     cy="389.14157"
     r="7.5"
     style="fill:#c0c0c0;fill-opacity:0.00000102;stroke:#c0c0c0;stroke-width:1;stroke-opacity:0.00000102"
     id="circle4852" />
  <circle
     cx="412.4563"
     cy="388.14157"
     r="7.5"
     style="fill:#c0c0c0;fill-opacity:0.00000102;stroke:#c0c0c0;stroke-width:1;stroke-opacity:0.00000102"
     id="circle4854" />
  <circle
     cx="488.4563"
     cy="389.14157"
     r="7.5"
     style="fill:#c0c0c0;fill-opacity:0.00000102;stroke:#c0c0c0;stroke-width:1;stroke-opacity:0.00000102"
     id="circle4856" />
  <circle
     cx="563.4563"
     cy="388.14157"
     r="7.5"
     style="fill:#c0c0c0;fill-opacity:0.00000102;stroke:#c0c0c0;stroke-width:1;stroke-opacity:0.00000102"
     id="circle4858" />
  <circle
     cx="638.4563"
     cy="389.14157"
     r="7.5"
     style="fill:#c0c0c0;fill-opacity:0.00000102;stroke:#c0c0c0;stroke-width:1;stroke-opacity:0.00000102"
     id="circle4860" />
  <circle
     cx="713.4563"
     cy="389.14157"
     r="7.5"
     style="fill:#c0c0c0;fill-opacity:0.00000102;stroke:#c0c0c0;stroke-width:1;stroke-opacity:0.00000102"
     id="circle4862" />
  <circle
     cx="788.4563"
     cy="392.14157"
     r="7.5"
     style="fill:#c0c0c0;fill-opacity:0.00000102;stroke:#c0c0c0;stroke-width:1;stroke-opacity:0.00000102"
     id="circle4864" />
  <circle
     cx="863.4563"
     cy="394.14157"
     r="7.5"
     style="fill:#c0c0c0;fill-opacity:0.00000102;stroke:#c0c0c0;stroke-width:1;stroke-opacity:0.00000102"
     id="circle4866" />
  <circle
     cx="938.4563"
     cy="397.14157"
     r="7.5"
     style="fill:#c0c0c0;fill-opacity:0.00000102;stroke:#c0c0c0;stroke-width:1;stroke-opacity:0.00000102"
     id="circle4868" />
  <circle
     cx="37.45631"
     cy="393.14157"
     r="7.5"
     style="fill:#c0c0c0;fill-opacity:0.00000102;stroke:#c0c0c0;stroke-width:1;stroke-opacity:0.00000102"
     id="circle4870" />
  <circle
     cx="112.45631"
     cy="392.14157"
     r="7.5"
     style="fill:#c0c0c0;fill-opacity:0.00000102;stroke:#c0c0c0;stroke-width:1;stroke-opacity:0.00000102"
     id="circle4872" />
  <circle
     cx="187.45631"
     cy="394.14157"
     r="7.5"
     style="fill:#c0c0c0;fill-opacity:0.00000102;stroke:#c0c0c0;stroke-width:1;stroke-opacity:0.00000102"
     id="circle4874" />
  <circle
     cx="262.4563"
     cy="397.14157"
     r="7.5"
     style="fill:#c0c0c0;fill-opacity:0.00000102;stroke:#c0c0c0;stroke-width:1;stroke-opacity:0.00000102"
     id="circle4876" />
  <circle
     cx="337.4563"
     cy="397.14157"
     r="7.5"
     style="fill:#c0c0c0;fill-opacity:0.00000102;stroke:#c0c0c0;stroke-width:1;stroke-opacity:0.00000102"
     id="circle4878" />
  <circle
     cx="412.4563"
     cy="396.14157"
     r="7.5"
     style="fill:#c0c0c0;fill-opacity:0.00000102;stroke:#c0c0c0;stroke-width:1;stroke-opacity:0.00000102"
     id="circle4880" />
  <circle
     cx="488.4563"
     cy="396.14157"
     r="7.5"
     style="fill:#c0c0c0;fill-opacity:0.00000102;stroke:#c0c0c0;stroke-width:1;stroke-opacity:0.00000102"
     id="circle4882" />
  <circle
     cx="563.4563"
     cy="397.14157"
     r="7.5"
     style="fill:#c0c0c0;fill-opacity:0.00000102;stroke:#c0c0c0;stroke-width:1;stroke-opacity:0.00000102"
     id="circle4884" />
  <circle
     cx="638.4563"
     cy="398.14157"
     r="7.5"
     style="fill:#c0c0c0;fill-opacity:0.00000102;stroke:#c0c0c0;stroke-width:1;stroke-opacity:0.00000102"
     id="circle4886" />
  <circle
     cx="713.4563"
     cy="398.14157"
     r="7.5"
     style="fill:#c0c0c0;fill-opacity:0.00000102;stroke:#c0c0c0;stroke-width:1;stroke-opacity:0.00000102"
     id="circle4888" />
  <circle
     cx="788.4563"
     cy="396.14157"
     r="7.5"
     style="fill:#c0c0c0;fill-opacity:0.00000102;stroke:#c0c0c0;stroke-width:1;stroke-opacity:0.00000102"
     id="circle4890" />
  <circle
     cx="863.4563"
     cy="396.14157"
     r="7.5"
     style="fill:#c0c0c0;fill-opacity:0.00000102;stroke:#c0c0c0;stroke-width:1;stroke-opacity:0.00000102"
     id="circle4892" />
  <circle
     cx="938.4563"
     cy="398.14157"
     r="7.5"
     style="fill:#c0c0c0;fill-opacity:0.00000102;stroke:#c0c0c0;stroke-width:1;stroke-opacity:0.00000102"
     id="circle4894" />
  <circle
     cx="37.45631"
     cy="402.14157"
     r="7.5"
     style="fill:#c0c0c0;fill-opacity:0.00000102;stroke:#c0c0c0;stroke-width:1;stroke-opacity:0.00000102"
     id="circle4896" />
  <circle
     cx="112.45631"
     cy="402.14157"
     r="7.5"
     style="fill:#c0c0c0;fill-opacity:0.00000102;stroke:#c0c0c0;stroke-width:1;stroke-opacity:0.00000102"
     id="circle4898" />
  <circle
     cx="187.45631"
     cy="403.14157"
     r="7.5"
     style="fill:#c0c0c0;fill-opacity:0.00000102;stroke:#c0c0c0;stroke-width:1;stroke-opacity:0.00000102"
     id="circle4900" />
  <circle
     cx="262.4563"
     cy="403.14157"
     r="7.5"
     style="fill:#c0c0c0;fill-opacity:0.00000102;stroke:#c0c0c0;stroke-width:1;stroke-opacity:0.00000102"
     id="circle4902" />
  <circle
     cx="337.4563"
     cy="402.14157"
     r="7.5"
     style="fill:#c0c0c0;fill-opacity:0.00000102;stroke:#c0c0c0;stroke-width:1;stroke-opacity:0.00000102"
     id="circle4904" />
  <circle
     cx="412.4563"
     cy="402.14157"
     r="7.5"
     style="fill:#c0c0c0;fill-opacity:0.00000102;stroke:#c0c0c0;stroke-width:1;stroke-opacity:0.00000102"
     id="circle4906" />
  <circle
     cx="488.4563"
     cy="402.14157"
     r="7.5"
     style="fill:#c0c0c0;fill-opacity:0.00000102;stroke:#c0c0c0;stroke-width:1;stroke-opacity:0.00000102"
     id="circle4908" />
  <circle
     cx="563.4563"
     cy="402.14157"
     r="7.5"
     style="fill:#c0c0c0;fill-opacity:0.00000102;stroke:#c0c0c0;stroke-width:1;stroke-opacity:0.00000102"
     id="circle4910" />
  <circle
     cx="638.4563"
     cy="402.14157"
     r="7.5"
     style="fill:#c0c0c0;fill-opacity:0.00000102;stroke:#c0c0c0;stroke-width:1;stroke-opacity:0.00000102"
     id="circle4912" />
  <circle
     cx="713.4563"
     cy="402.14157"
     r="7.5"
     style="fill:#c0c0c0;fill-opacity:0.00000102;stroke:#c0c0c0;stroke-width:1;stroke-opacity:0.00000102"
     id="circle4914" />
  <circle
     cx="788.4563"
     cy="402.14157"
     r="7.5"
     style="fill:#c0c0c0;fill-opacity:0.00000102;stroke:#c0c0c0;stroke-width:1;stroke-opacity:0.00000102"
     id="circle4916" />
  <circle
     cx="863.4563"
     cy="402.14157"
     r="7.5"
     style="fill:#c0c0c0;fill-opacity:0.00000102;stroke:#c0c0c0;stroke-width:1;stroke-opacity:0.00000102"
     id="circle4918" />
  <circle
     cx="938.4563"
     cy="403.14157"
     r="7.5"
     style="fill:#c0c0c0;fill-opacity:0.00000102;stroke:#c0c0c0;stroke-width:1;stroke-opacity:0.00000102"
     id="circle4920" />
  <g
     transform="translate(5e-7,60.724085)"
     id="g4924"
     class="raphael-group-279-buttons" />
  <text
     class="fusioncharts-subcaption"
     x="654.66742"
     y="547.21149"
     style="font-style:normal;font-variant:normal;font-weight:bold;font-stretch:normal;font-size:13.33333302px;font-family:Verdana, sans;-inkscape-font-specification:'Verdana, sans, Bold';font-variant-ligatures:normal;font-variant-caps:normal;font-variant-numeric:normal;font-feature-settings:normal;text-align:center;writing-mode:lr-tb;text-anchor:middle;overflow:hidden;fill:#555555;stroke:none"
     font-size="11px"
     font-weight="bold"
     id="text4788-3">
    <tspan
       style="font-style:normal;font-variant:normal;font-weight:bold;font-stretch:normal;font-size:13.33333302px;font-family:Verdana, sans;-inkscape-font-specification:'Verdana, sans, Bold';font-variant-ligatures:normal;font-variant-caps:normal;font-variant-numeric:normal;font-feature-settings:normal;text-align:center;writing-mode:lr-tb;text-anchor:middle"
       x="654.66742"
       id="tspan4786-6">Fuente: http://gs.statcounter.com/browser-market-share/desktop/worldwide</tspan>
  </text>
</svg>
