<svg version="1.1" viewBox="0.0 0.0 600.0 371.0" fill="none" stroke="none" stroke-linecap="square" stroke-miterlimit="10" width="600" height="371" xmlns:xlink="http://www.w3.org/1999/xlink" xmlns="http://www.w3.org/2000/svg"><path fill="#ffffff" d="M0 0L600.0 0L600.0 371.0L0 371.0L0 0Z" fill-rule="nonzero"/><path fill="#ffffff" d="M0 0L600.0 0L600.0 371.0L0 371.0L0 0Z" fill-rule="nonzero"/><path stroke="#333333" stroke-width="1.0" stroke-linecap="butt" d="M93.5 106.5L93.5 331.5" fill-rule="nonzero"/><path stroke="#cccccc" stroke-width="1.0" stroke-linecap="butt" d="M215.5 106.5L215.5 331.5" fill-rule="nonzero"/><path stroke="#cccccc" stroke-width="1.0" stroke-linecap="butt" d="M337.5 106.5L337.5 331.5" fill-rule="nonzero"/><path stroke="#cccccc" stroke-width="1.0" stroke-linecap="butt" d="M459.5 106.5L459.5 331.5" fill-rule="nonzero"/><path stroke="#cccccc" stroke-width="1.0" stroke-linecap="butt" d="M581.5 106.5L581.5 331.5" fill-rule="nonzero"/><clipPath id="id_0"><path d="M93.55 106.78333L581.45 106.78333L581.45 331.45L93.55 331.45L93.55 106.78333Z" clip-rule="nonzero"/></clipPath><path fill="#93c47d" clip-path="url(#id_0)" d="M94.0 159.0L94.0 125.0L525.0 125.0L525.0 159.0Z" fill-rule="nonzero"/><path fill="#93c47d" clip-path="url(#id_0)" d="M94.0 210.0L94.0 176.0L245.0 176.0L245.0 210.0Z" fill-rule="nonzero"/><path fill="#93c47d" clip-path="url(#id_0)" d="M94.0 262.0L94.0 228.0L228.0 228.0L228.0 262.0Z" fill-rule="nonzero"/><path fill="#93c47d" clip-path="url(#id_0)" d="M94.0 314.0L94.0 280.0L135.0 280.0L135.0 314.0Z" fill-rule="nonzero"/><path fill="#cc4125" clip-path="url(#id_0)" d="M525.0 159.0L525.0 125.0L525.0 125.0L525.0 159.0Z" fill-rule="nonzero"/><path fill="#cc4125" clip-path="url(#id_0)" d="M245.0 210.0L245.0 176.0L250.0 176.0L250.0 210.0Z" fill-rule="nonzero"/><path fill="#cc4125" clip-path="url(#id_0)" d="M228.0 262.0L228.0 228.0L228.0 228.0L228.0 262.0Z" fill-rule="nonzero"/><path fill="#cc4125" clip-path="url(#id_0)" d="M135.0 314.0L135.0 280.0L135.0 280.0L135.0 314.0Z" fill-rule="nonzero"/><path fill="#f4b400" clip-path="url(#id_0)" d="M525.0 159.0L525.0 125.0L526.5 125.0C527.3284 125.0 528.0 125.67157 528.0 126.5L528.0 157.5C528.0 158.32843 527.3284 159.0 526.5 159.0Z" fill-rule="nonzero"/><path fill="#f4b400" clip-path="url(#id_0)" d="M250.0 210.0L250.0 176.0L251.0 176.0C251.55229 176.0 252.0 176.44771 252.0 177.0L252.0 209.0C252.0 209.55229 251.55229 210.0 251.0 210.0Z" fill-rule="nonzero"/><path fill="#f4b400" clip-path="url(#id_0)" d="M228.0 262.0L228.0 228.0L228.0 228.0L228.0 262.0Z" fill-rule="nonzero"/><path fill="#f4b400" clip-path="url(#id_0)" d="M135.0 314.0L135.0 280.0L135.0 280.0L135.0 314.0Z" fill-rule="nonzero"/><path fill="#757575" d="M34.753124 146.1454L33.628124 146.1454L33.628124 137.61415L34.753124 137.61415L34.753124 146.1454ZM43.096874 146.1454L41.971874 146.1454L37.675 139.56728L37.675 146.1454L36.534374 146.1454L36.534374 137.61415L37.675 137.61415L41.971874 144.22353L41.971874 137.61415L43.096874 137.61415L43.096874 146.1454ZM51.440624 138.53603L48.690624 138.53603L48.690624 146.1454L47.58125 146.1454L47.58125 138.53603L44.83125 138.53603L44.83125 137.61415L51.440624 137.61415L51.440624 138.53603ZM57.3625 142.2079L53.659374 142.2079L53.659374 145.22353L57.95625 145.22353L57.95625 146.1454L52.534374 146.1454L52.534374 137.61415L57.909374 137.61415L57.909374 138.53603L53.659374 138.53603L53.659374 141.28603L57.3625 141.28603L57.3625 142.2079ZM62.675 142.69228L60.659374 142.69228L60.659374 146.1454L59.534374 146.1454L59.534374 137.61415L62.3625 137.61415Q63.8 137.61415 64.56563 138.2704Q65.34688 138.92665 65.34688 140.17665Q65.34688 140.97353 64.90938 141.56728Q64.4875 142.16103 63.721874 142.4579L65.72188 146.06728L65.72188 146.1454L64.51875 146.1454L62.675 142.69228ZM60.659374 141.7704L62.39375 141.7704Q63.2375 141.7704 63.721874 141.34853Q64.22188 140.91103 64.22188 140.17665Q64.22188 139.3954 63.753124 138.97353Q63.284374 138.55165 62.39375 138.53603L60.659374 138.53603L60.659374 141.7704ZM71.25313 142.37978L67.65938 142.37978L67.65938 146.1454L66.53438 146.1454L66.53438 137.61415L71.83125 137.61415L71.83125 138.53603L67.65938 138.53603L67.65938 141.4579L71.25313 141.4579L71.25313 142.37978ZM78.25313 143.91103L74.675 143.91103L73.87813 146.1454L72.72188 146.1454L75.97188 137.61415L76.95625 137.61415L80.22188 146.1454L79.06563 146.1454L78.25313 143.91103ZM75.01875 142.98915L77.925 142.98915L76.47188 139.00478L75.01875 142.98915ZM82.37813 145.22353L87.26875 145.22353L87.26875 146.1454L81.05 146.1454L81.05 145.30165L85.7375 138.53603L81.12813 138.53603L81.12813 137.61415L87.08125 137.61415L87.08125 138.44228L82.37813 145.22353Z" fill-rule="nonzero"/><path fill="#757575" d="M31.3625 193.85541L27.659374 193.85541L27.659374 196.87103L31.95625 196.87103L31.95625 197.79291L26.534374 197.79291L26.534374 189.26166L31.909374 189.26166L31.909374 190.18353L27.659374 190.18353L27.659374 192.93353L31.3625 192.93353L31.3625 193.85541ZM36.05 193.99603Q34.6125 193.57416 33.940624 192.96478Q33.284374 192.35541 33.284374 191.46478Q33.284374 190.46478 34.08125 189.80853Q34.89375 189.13666 36.190624 189.13666Q37.065624 189.13666 37.753124 189.48041Q38.440624 189.82416 38.815624 190.41791Q39.20625 191.01166 39.20625 191.73041L38.065624 191.73041Q38.065624 190.94916 37.565624 190.51166Q37.08125 190.07416 36.190624 190.07416Q35.3625 190.07416 34.89375 190.44916Q34.425 190.80853 34.425 191.44916Q34.425 191.98041 34.8625 192.33978Q35.315624 192.69916 36.378124 192.99603Q37.440624 193.29291 38.034374 193.65228Q38.64375 194.01166 38.925 194.49603Q39.221874 194.98041 39.221874 195.62103Q39.221874 196.66791 38.409374 197.29291Q37.596874 197.91791 36.253124 197.91791Q35.3625 197.91791 34.596874 197.57416Q33.846874 197.23041 33.425 196.65228Q33.01875 196.05853 33.01875 195.32416L34.14375 195.32416Q34.14375 196.08978 34.721874 196.54291Q35.3 196.99603 36.253124 196.99603Q37.14375 196.99603 37.6125 196.63666Q38.08125 196.26166 38.08125 195.63666Q38.08125 195.01166 37.64375 194.66791Q37.20625 194.32416 36.05 193.99603ZM46.815624 195.08978Q46.659374 196.43353 45.815624 197.18353Q44.971874 197.91791 43.58125 197.91791Q42.065624 197.91791 41.159374 196.83978Q40.253124 195.74603 40.253124 193.91791L40.253124 193.10541Q40.253124 191.91791 40.675 191.01166Q41.096874 190.10541 41.878124 189.62103Q42.659374 189.13666 43.675 189.13666Q45.034374 189.13666 45.846874 189.90228Q46.675 190.66791 46.815624 191.99603L45.690624 191.99603Q45.534374 190.98041 45.05 190.52728Q44.565624 190.07416 43.675 190.07416Q42.596874 190.07416 41.9875 190.87103Q41.378124 191.66791 41.378124 193.13666L41.378124 193.96478Q41.378124 195.35541 41.95625 196.18353Q42.534374 196.99603 43.58125 196.99603Q44.51875 196.99603 45.01875 196.57416Q45.51875 196.13666 45.690624 195.08978L46.815624 195.08978ZM51.675 194.33978L49.659374 194.33978L49.659374 197.79291L48.534374 197.79291L48.534374 189.26166L51.3625 189.26166Q52.8 189.26166 53.565624 189.91791Q54.346874 190.57416 54.346874 191.82416Q54.346874 192.62103 53.909374 193.21478Q53.4875 193.80853 52.721874 194.10541L54.721874 197.71478L54.721874 197.79291L53.51875 197.79291L51.675 194.33978ZM49.659374 193.41791L51.39375 193.41791Q52.2375 193.41791 52.721874 192.99603Q53.221874 192.55853 53.221874 191.82416Q53.221874 191.04291 52.753124 190.62103Q52.284374 190.19916 51.39375 190.18353L49.659374 190.18353L49.659374 193.41791ZM56.753124 197.79291L55.628124 197.79291L55.628124 189.26166L56.753124 189.26166L56.753124 197.79291ZM64.44063 190.18353L61.690624 190.18353L61.690624 197.79291L60.58125 197.79291L60.58125 190.18353L57.83125 190.18353L57.83125 189.26166L64.44063 189.26166L64.44063 190.18353ZM71.55 189.26166L71.55 195.05853Q71.53438 196.26166 70.78438 197.04291Q70.03438 197.80853 68.75313 197.90228L68.44063 197.91791Q67.05 197.91791 66.20625 197.16791Q65.37813 196.40228 65.37813 195.07416L65.37813 189.26166L66.4875 189.26166L66.4875 195.04291Q66.4875 195.96478 66.9875 196.48041Q67.50313 196.99603 68.44063 196.99603Q69.40938 196.99603 69.90938 196.48041Q70.40938 195.96478 70.40938 195.04291L70.40938 189.26166L71.55 189.26166ZM76.675 194.33978L74.65938 194.33978L74.65938 197.79291L73.53438 197.79291L73.53438 189.26166L76.3625 189.26166Q77.8 189.26166 78.56563 189.91791Q79.34688 190.57416 79.34688 191.82416Q79.34688 192.62103 78.90938 193.21478Q78.4875 193.80853 77.72188 194.10541L79.72188 197.71478L79.72188 197.79291L78.51875 197.79291L76.675 194.33978ZM74.65938 193.41791L76.39375 193.41791Q77.2375 193.41791 77.72188 192.99603Q78.22188 192.55853 78.22188 191.82416Q78.22188 191.04291 77.75313 190.62103Q77.28438 190.19916 76.39375 190.18353L74.65938 190.18353L74.65938 193.41791ZM85.25313 195.55853L81.675 195.55853L80.87813 197.79291L79.72188 197.79291L82.97188 189.26166L83.95625 189.26166L87.22188 197.79291L86.06563 197.79291L85.25313 195.55853ZM82.01875 194.63666L84.925 194.63666L83.47188 190.65228L82.01875 194.63666Z" fill-rule="nonzero"/><path fill="#757575" d="M22.3625 247.94041L24.8 240.90916L26.034374 240.90916L22.8625 249.44041L21.878124 249.44041L18.721874 240.90916L19.940624 240.90916L22.3625 247.94041ZM32.253124 247.20604L28.675 247.20604L27.878124 249.44041L26.721874 249.44041L29.971874 240.90916L30.95625 240.90916L34.221874 249.44041L33.065624 249.44041L32.253124 247.20604ZM29.01875 246.28416L31.925 246.28416L30.471874 242.29979L29.01875 246.28416ZM36.675 248.51854L40.721874 248.51854L40.721874 249.44041L35.534374 249.44041L35.534374 240.90916L36.675 240.90916L36.675 248.51854ZM42.753124 249.44041L41.628124 249.44041L41.628124 240.90916L42.753124 240.90916L42.753124 249.44041ZM44.534374 249.44041L44.534374 240.90916L46.95625 240.90916Q48.065624 240.90916 48.909374 241.40916Q49.76875 241.89354 50.2375 242.79979Q50.70625 243.70604 50.70625 244.89354L50.70625 245.42479Q50.70625 246.64354 50.2375 247.54979Q49.784374 248.45604 48.909374 248.94041Q48.05 249.42479 46.909374 249.44041L44.534374 249.44041ZM45.659374 241.83104L45.659374 248.51854L46.846874 248.51854Q48.14375 248.51854 48.8625 247.72166Q49.596874 246.90916 49.596874 245.40916L49.596874 244.90916Q49.596874 243.45604 48.909374 242.65916Q48.2375 241.84666 46.971874 241.83104L45.659374 241.83104ZM57.253124 247.20604L53.675 247.20604L52.878124 249.44041L51.721874 249.44041L54.971874 240.90916L55.95625 240.90916L59.221874 249.44041L58.065624 249.44041L57.253124 247.20604ZM54.01875 246.28416L56.925 246.28416L55.471874 242.29979L54.01875 246.28416ZM66.81563 246.73729Q66.65938 248.08104 65.81563 248.83104Q64.97188 249.56541 63.58125 249.56541Q62.065624 249.56541 61.159374 248.48729Q60.253124 247.39354 60.253124 245.56541L60.253124 244.75291Q60.253124 243.56541 60.675 242.65916Q61.096874 241.75291 61.878124 241.26854Q62.659374 240.78416 63.675 240.78416Q65.03438 240.78416 65.84688 241.54979Q66.675 242.31541 66.81563 243.64354L65.69063 243.64354Q65.53438 242.62791 65.05 242.17479Q64.56563 241.72166 63.675 241.72166Q62.596874 241.72166 61.9875 242.51854Q61.378124 243.31541 61.378124 244.78416L61.378124 245.61229Q61.378124 247.00291 61.95625 247.83104Q62.534374 248.64354 63.58125 248.64354Q64.51875 248.64354 65.01875 248.22166Q65.51875 247.78416 65.69063 246.73729L66.81563 246.73729ZM69.75313 249.44041L68.62813 249.44041L68.62813 240.90916L69.75313 240.90916L69.75313 249.44041ZM78.09688 245.45604Q78.09688 246.70604 77.675 247.64354Q77.25313 248.56541 76.47188 249.06541Q75.70625 249.56541 74.675 249.56541Q73.675 249.56541 72.89375 249.06541Q72.1125 248.56541 71.675 247.65916Q71.25313 246.73729 71.2375 245.51854L71.2375 244.90916Q71.2375 243.67479 71.65938 242.73729Q72.09688 241.79979 72.87813 241.29979Q73.65938 240.78416 74.675 240.78416Q75.69063 240.78416 76.47188 241.28416Q77.25313 241.78416 77.675 242.72166Q78.09688 243.65916 78.09688 244.90916L78.09688 245.45604ZM76.9875 244.89354Q76.9875 243.37791 76.37813 242.56541Q75.76875 241.75291 74.675 241.75291Q73.59688 241.75291 72.9875 242.56541Q72.37813 243.37791 72.3625 244.81541L72.3625 245.45604Q72.3625 246.92479 72.97188 247.76854Q73.59688 248.59666 74.675 248.59666Q75.76875 248.59666 76.3625 247.81541Q76.97188 247.01854 76.9875 245.53416L76.9875 244.89354ZM75.40938 238.44041L76.72188 238.44041L75.14375 240.15916L74.26875 240.15916L75.40938 238.44041ZM86.09688 249.44041L84.97188 249.44041L80.675 242.86229L80.675 249.44041L79.53438 249.44041L79.53438 240.90916L80.675 240.90916L84.97188 247.51854L84.97188 240.90916L86.09688 240.90916L86.09688 249.44041Z" fill-rule="nonzero"/><path fill="#757575" d="M38.675 300.16605L42.721874 300.16605L42.721874 301.08792L37.534374 301.08792L37.534374 292.55667L38.675 292.55667L38.675 300.16605ZM48.3625 297.15042L44.659374 297.15042L44.659374 300.16605L48.95625 300.16605L48.95625 301.08792L43.534374 301.08792L43.534374 292.55667L48.909374 292.55667L48.909374 293.47855L44.659374 293.47855L44.659374 296.22855L48.3625 296.22855L48.3625 297.15042ZM56.815624 298.3848Q56.659374 299.72855 55.815624 300.47855Q54.971874 301.21292 53.58125 301.21292Q52.065624 301.21292 51.159374 300.1348Q50.253124 299.04105 50.253124 297.21292L50.253124 296.40042Q50.253124 295.21292 50.675 294.30667Q51.096874 293.40042 51.878124 292.91605Q52.659374 292.43167 53.675 292.43167Q55.034374 292.43167 55.846874 293.1973Q56.675 293.96292 56.815624 295.29105L55.690624 295.29105Q55.534374 294.27542 55.05 293.8223Q54.565624 293.36917 53.675 293.36917Q52.596874 293.36917 51.9875 294.16605Q51.378124 294.96292 51.378124 296.43167L51.378124 297.2598Q51.378124 298.65042 51.95625 299.47855Q52.534374 300.29105 53.58125 300.29105Q54.51875 300.29105 55.01875 299.86917Q55.51875 299.43167 55.690624 298.3848L56.815624 298.3848ZM64.44063 293.47855L61.690624 293.47855L61.690624 301.08792L60.58125 301.08792L60.58125 293.47855L57.83125 293.47855L57.83125 292.55667L64.44063 292.55667L64.44063 293.47855ZM71.55 292.55667L71.55 298.35355Q71.53438 299.55667 70.78438 300.33792Q70.03438 301.10355 68.75313 301.1973L68.44063 301.21292Q67.05 301.21292 66.20625 300.46292Q65.37813 299.6973 65.37813 298.36917L65.37813 292.55667L66.4875 292.55667L66.4875 298.33792Q66.4875 299.2598 66.9875 299.77542Q67.50313 300.29105 68.44063 300.29105Q69.40938 300.29105 69.90938 299.77542Q70.40938 299.2598 70.40938 298.33792L70.40938 292.55667L71.55 292.55667ZM76.675 297.6348L74.65938 297.6348L74.65938 301.08792L73.53438 301.08792L73.53438 292.55667L76.3625 292.55667Q77.8 292.55667 78.56563 293.21292Q79.34688 293.86917 79.34688 295.11917Q79.34688 295.91605 78.90938 296.5098Q78.4875 297.10355 77.72188 297.40042L79.72188 301.0098L79.72188 301.08792L78.51875 301.08792L76.675 297.6348ZM74.65938 296.71292L76.39375 296.71292Q77.2375 296.71292 77.72188 296.29105Q78.22188 295.85355 78.22188 295.11917Q78.22188 294.33792 77.75313 293.91605Q77.28438 293.49417 76.39375 293.47855L74.65938 293.47855L74.65938 296.71292ZM85.25313 298.85355L81.675 298.85355L80.87813 301.08792L79.72188 301.08792L82.97188 292.55667L83.95625 292.55667L87.22188 301.08792L86.06563 301.08792L85.25313 298.85355ZM82.01875 297.93167L84.925 297.93167L83.47188 293.9473L82.01875 297.93167Z" fill-rule="nonzero"/><path fill="#757575" d="M96.1125 345.8094Q96.1125 347.71564 95.45625 348.65314Q94.81563 349.575 93.425 349.575Q92.06563 349.575 91.40938 348.66876Q90.75313 347.7625 90.72188 345.95L90.72188 344.5125Q90.72188 342.6219 91.3625 341.71564Q92.01875 340.79376 93.40938 340.79376Q94.78438 340.79376 95.44063 341.6844Q96.09688 342.5594 96.1125 344.40314L96.1125 345.8094ZM95.01875 344.325Q95.01875 342.95 94.62813 342.325Q94.25313 341.6844 93.40938 341.6844Q92.58125 341.6844 92.19063 342.325Q91.81563 342.95 91.81563 344.2469L91.81563 345.98126Q91.81563 347.35626 92.20625 348.02814Q92.6125 348.6844 93.425 348.6844Q94.22188 348.6844 94.6125 348.0594Q95.00313 347.4344 95.01875 346.10626L95.01875 344.325Z" fill-rule="nonzero"/><path fill="#757575" d="M209.72812 345.16876L210.16562 340.91876L214.54062 340.91876L214.54062 341.91876L211.0875 341.91876L210.82187 344.2469Q211.4625 343.8719 212.25937 343.8719Q213.41562 343.8719 214.10312 344.65314Q214.79062 345.41876 214.79062 346.73126Q214.79062 348.04376 214.07187 348.8094Q213.36874 349.575 212.0875 349.575Q210.9625 349.575 210.24374 348.95Q209.525 348.3094 209.43124 347.2L210.44687 347.2Q210.55624 347.9344 210.97812 348.3094Q211.4 348.6844 212.0875 348.6844Q212.8375 348.6844 213.275 348.16876Q213.7125 347.65314 213.7125 346.7469Q213.7125 345.8875 213.24374 345.3719Q212.775 344.85626 211.99374 344.85626Q211.29062 344.85626 210.88437 345.15314L210.60312 345.3875L209.72812 345.16876ZM221.5875 345.8094Q221.5875 347.71564 220.93124 348.65314Q220.29062 349.575 218.9 349.575Q217.54062 349.575 216.88437 348.66876Q216.22812 347.7625 216.19687 345.95L216.19687 344.5125Q216.19687 342.6219 216.8375 341.71564Q217.49374 340.79376 218.88437 340.79376Q220.25937 340.79376 220.91562 341.6844Q221.57187 342.5594 221.5875 344.40314L221.5875 345.8094ZM220.49374 344.325Q220.49374 342.95 220.10312 342.325Q219.72812 341.6844 218.88437 341.6844Q218.05624 341.6844 217.66562 342.325Q217.29062 342.95 217.29062 344.2469L217.29062 345.98126Q217.29062 347.35626 217.68124 348.02814Q218.0875 348.6844 218.9 348.6844Q219.69687 348.6844 220.0875 348.0594Q220.47812 347.4344 220.49374 346.10626L220.49374 344.325Z" fill-rule="nonzero"/><path fill="#757575" d="M331.26562 349.45L330.1875 349.45L330.1875 342.23126L328.0 343.02814L328.0 342.04376L331.10938 340.8719L331.26562 340.8719L331.26562 349.45ZM340.0625 345.8094Q340.0625 347.71564 339.40625 348.65314Q338.76562 349.575 337.375 349.575Q336.01562 349.575 335.35938 348.66876Q334.70312 347.7625 334.67188 345.95L334.67188 344.5125Q334.67188 342.6219 335.3125 341.71564Q335.96875 340.79376 337.35938 340.79376Q338.73438 340.79376 339.39062 341.6844Q340.04688 342.5594 340.0625 344.40314L340.0625 345.8094ZM338.96875 344.325Q338.96875 342.95 338.57812 342.325Q338.20312 341.6844 337.35938 341.6844Q336.53125 341.6844 336.14062 342.325Q335.76562 342.95 335.76562 344.2469L335.76562 345.98126Q335.76562 347.35626 336.15625 348.02814Q336.5625 348.6844 337.375 348.6844Q338.17188 348.6844 338.5625 348.0594Q338.95312 347.4344 338.96875 346.10626L338.96875 344.325ZM347.0625 345.8094Q347.0625 347.71564 346.40625 348.65314Q345.76562 349.575 344.375 349.575Q343.01562 349.575 342.35938 348.66876Q341.70312 347.7625 341.67188 345.95L341.67188 344.5125Q341.67188 342.6219 342.3125 341.71564Q342.96875 340.79376 344.35938 340.79376Q345.73438 340.79376 346.39062 341.6844Q347.04688 342.5594 347.0625 344.40314L347.0625 345.8094ZM345.96875 344.325Q345.96875 342.95 345.57812 342.325Q345.20312 341.6844 344.35938 341.6844Q343.53125 341.6844 343.14062 342.325Q342.76562 342.95 342.76562 344.2469L342.76562 345.98126Q342.76562 347.35626 343.15625 348.02814Q343.5625 348.6844 344.375 348.6844Q345.17188 348.6844 345.5625 348.0594Q345.95312 347.4344 345.96875 346.10626L345.96875 344.325Z" fill-rule="nonzero"/><path fill="#757575" d="M453.24063 349.45L452.1625 349.45L452.1625 342.23126L449.975 343.02814L449.975 342.04376L453.08438 340.8719L453.24063 340.8719L453.24063 349.45ZM457.17813 345.16876L457.61563 340.91876L461.99063 340.91876L461.99063 341.91876L458.5375 341.91876L458.27188 344.2469Q458.9125 343.8719 459.70938 343.8719Q460.86563 343.8719 461.55313 344.65314Q462.24063 345.41876 462.24063 346.73126Q462.24063 348.04376 461.52188 348.8094Q460.81876 349.575 459.5375 349.575Q458.4125 349.575 457.69376 348.95Q456.975 348.3094 456.88126 347.2L457.89688 347.2Q458.00626 347.9344 458.42813 348.3094Q458.85 348.6844 459.5375 348.6844Q460.2875 348.6844 460.725 348.16876Q461.1625 347.65314 461.1625 346.7469Q461.1625 345.8875 460.69376 345.3719Q460.225 344.85626 459.44376 344.85626Q458.74063 344.85626 458.33438 345.15314L458.05313 345.3875L457.17813 345.16876ZM469.0375 345.8094Q469.0375 347.71564 468.38126 348.65314Q467.74063 349.575 466.35 349.575Q464.99063 349.575 464.33438 348.66876Q463.67813 347.7625 463.64688 345.95L463.64688 344.5125Q463.64688 342.6219 464.2875 341.71564Q464.94376 340.79376 466.33438 340.79376Q467.70938 340.79376 468.36563 341.6844Q469.02188 342.5594 469.0375 344.40314L469.0375 345.8094ZM467.94376 344.325Q467.94376 342.95 467.55313 342.325Q467.17813 341.6844 466.33438 341.6844Q465.50626 341.6844 465.11563 342.325Q464.74063 342.95 464.74063 344.2469L464.74063 345.98126Q464.74063 347.35626 465.13126 348.02814Q465.5375 348.6844 466.35 348.6844Q467.14688 348.6844 467.5375 348.0594Q467.92813 347.4344 467.94376 346.10626L467.94376 344.325Z" fill-rule="nonzero"/><path fill="#757575" d="M577.2469 349.45L571.65314 349.45L571.65314 348.66876L574.60626 345.3875Q575.2625 344.6375 575.5125 344.1844Q575.7625 343.71564 575.7625 343.21564Q575.7625 342.54376 575.35626 342.1219Q574.96564 341.6844 574.27814 341.6844Q573.48126 341.6844 573.02814 342.15314Q572.575 342.60626 572.575 343.4344L571.4969 343.4344Q571.4969 342.2469 572.2469 341.52814Q573.0125 340.79376 574.27814 340.79376Q575.48126 340.79376 576.16876 341.41876Q576.85626 342.04376 576.85626 343.09064Q576.85626 344.34064 575.2469 346.09064L572.96564 348.5594L577.2469 348.5594L577.2469 349.45ZM584.0125 345.8094Q584.0125 347.71564 583.35626 348.65314Q582.71564 349.575 581.325 349.575Q579.96564 349.575 579.3094 348.66876Q578.65314 347.7625 578.6219 345.95L578.6219 344.5125Q578.6219 342.6219 579.2625 341.71564Q579.91876 340.79376 581.3094 340.79376Q582.6844 340.79376 583.34064 341.6844Q583.9969 342.5594 584.0125 344.40314L584.0125 345.8094ZM582.91876 344.325Q582.91876 342.95 582.52814 342.325Q582.15314 341.6844 581.3094 341.6844Q580.48126 341.6844 580.09064 342.325Q579.71564 342.95 579.71564 344.2469L579.71564 345.98126Q579.71564 347.35626 580.10626 348.02814Q580.5125 348.6844 581.325 348.6844Q582.1219 348.6844 582.5125 348.0594Q582.90314 347.4344 582.91876 346.10626L582.91876 344.325ZM591.0125 345.8094Q591.0125 347.71564 590.35626 348.65314Q589.71564 349.575 588.325 349.575Q586.96564 349.575 586.3094 348.66876Q585.65314 347.7625 585.6219 345.95L585.6219 344.5125Q585.6219 342.6219 586.2625 341.71564Q586.91876 340.79376 588.3094 340.79376Q589.6844 340.79376 590.34064 341.6844Q590.9969 342.5594 591.0125 344.40314L591.0125 345.8094ZM589.91876 344.325Q589.91876 342.95 589.52814 342.325Q589.15314 341.6844 588.3094 341.6844Q587.48126 341.6844 587.09064 342.325Q586.71564 342.95 586.71564 344.2469L586.71564 345.98126Q586.71564 347.35626 587.10626 348.02814Q587.5125 348.6844 588.325 348.6844Q589.1219 348.6844 589.5125 348.0594Q589.90314 347.4344 589.91876 346.10626L589.91876 344.325Z" fill-rule="nonzero"/><path fill="#93c47d" d="M187.0 81.916664C187.0 81.36438 187.44771 80.916664 188.0 80.916664L198.0 80.916664C198.55229 80.916664 199.0 81.36438 199.0 81.916664L199.0 91.916664C199.0 92.46895 198.55229 92.916664 198.0 92.916664L188.0 92.916664C187.44771 92.916664 187.0 92.46895 187.0 91.916664Z" fill-rule="nonzero"/><path fill="#757575" d="M209.10938 88.072914L209.10938 91.416664L207.98438 91.416664L207.98438 82.885414L211.14062 82.885414Q212.53125 82.885414 213.32812 83.604164Q214.125 84.30729 214.125 85.49479Q214.125 86.729164 213.34375 87.40104Q212.57812 88.072914 211.125 88.072914L209.10938 88.072914ZM209.10938 87.15104L211.14062 87.15104Q212.04688 87.15104 212.51562 86.729164Q213.0 86.30729 213.0 85.510414Q213.0 84.74479 212.51562 84.291664Q212.04688 83.822914 211.20312 83.80729L209.10938 83.80729L209.10938 87.15104ZM220.70312 89.18229L217.125 89.18229L216.32812 91.416664L215.17188 91.416664L218.42188 82.885414L219.40625 82.885414L222.67188 91.416664L221.51562 91.416664L220.70312 89.18229ZM217.46875 88.260414L220.375 88.260414L218.92188 84.27604L217.46875 88.260414ZM226.5 87.61979Q225.0625 87.197914 224.39062 86.58854Q223.73438 85.979164 223.73438 85.08854Q223.73438 84.08854 224.53125 83.43229Q225.34375 82.760414 226.64062 82.760414Q227.51562 82.760414 228.20312 83.104164Q228.89062 83.447914 229.26562 84.041664Q229.65625 84.635414 229.65625 85.354164L228.51562 85.354164Q228.51562 84.572914 228.01562 84.135414Q227.53125 83.697914 226.64062 83.697914Q225.8125 83.697914 225.34375 84.072914Q224.875 84.43229 224.875 85.072914Q224.875 85.604164 225.3125 85.96354Q225.76562 86.322914 226.82812 86.61979Q227.89062 86.916664 228.48438 87.27604Q229.09375 87.635414 229.375 88.11979Q229.67188 88.604164 229.67188 89.24479Q229.67188 90.291664 228.85938 90.916664Q228.04688 91.541664 226.70312 91.541664Q225.8125 91.541664 225.04688 91.197914Q224.29688 90.854164 223.875 90.27604Q223.46875 89.68229 223.46875 88.947914L224.59375 88.947914Q224.59375 89.71354 225.17188 90.166664Q225.75 90.61979 226.70312 90.61979Q227.59375 90.61979 228.0625 90.260414Q228.53125 89.885414 228.53125 89.260414Q228.53125 88.635414 228.09375 88.291664Q227.65625 87.947914 226.5 87.61979ZM237.54688 87.43229Q237.54688 88.68229 237.125 89.61979Q236.70312 90.541664 235.92188 91.041664Q235.15625 91.541664 234.125 91.541664Q233.125 91.541664 232.34375 91.041664Q231.5625 90.541664 231.125 89.635414Q230.70312 88.71354 230.6875 87.49479L230.6875 86.885414Q230.6875 85.65104 231.10938 84.71354Q231.54688 83.77604 232.32812 83.27604Q233.10938 82.760414 234.125 82.760414Q235.14062 82.760414 235.92188 83.260414Q236.70312 83.760414 237.125 84.697914Q237.54688 85.635414 237.54688 86.885414L237.54688 87.43229ZM236.4375 86.86979Q236.4375 85.354164 235.82812 84.541664Q235.21875 83.729164 234.125 83.729164Q233.04688 83.729164 232.4375 84.541664Q231.82812 85.354164 231.8125 86.791664L231.8125 87.43229Q231.8125 88.90104 232.42188 89.74479Q233.04688 90.572914 234.125 90.572914Q235.21875 90.572914 235.8125 89.791664Q236.42188 88.99479 236.4375 87.510414L236.4375 86.86979Z" fill-rule="nonzero"/><path fill="#cc4125" d="M254.0 81.916664C254.0 81.36438 254.44771 80.916664 255.0 80.916664L265.0 80.916664C265.55228 80.916664 266.0 81.36438 266.0 81.916664L266.0 91.916664C266.0 92.46895 265.55228 92.916664 265.0 92.916664L255.0 92.916664C254.44771 92.916664 254.0 92.46895 254.0 91.916664Z" fill-rule="nonzero"/><path fill="#757575" d="M279.70312 87.65104L276.10938 87.65104L276.10938 91.416664L274.98438 91.416664L274.98438 82.885414L280.28125 82.885414L280.28125 83.80729L276.10938 83.80729L276.10938 86.729164L279.70312 86.729164L279.70312 87.65104ZM286.70312 89.18229L283.125 89.18229L282.32812 91.416664L281.17188 91.416664L284.42188 82.885414L285.40625 82.885414L288.67188 91.416664L287.51562 91.416664L286.70312 89.18229ZM283.46875 88.260414L286.375 88.260414L284.92188 84.27604L283.46875 88.260414ZM291.125 90.49479L295.17188 90.49479L295.17188 91.416664L289.98438 91.416664L289.98438 82.885414L291.125 82.885414L291.125 90.49479ZM297.125 90.49479L301.17188 90.49479L301.17188 91.416664L295.98438 91.416664L295.98438 82.885414L297.125 82.885414L297.125 90.49479ZM308.54688 87.43229Q308.54688 88.68229 308.125 89.61979Q307.70312 90.541664 306.92188 91.041664Q306.15625 91.541664 305.125 91.541664Q304.125 91.541664 303.34375 91.041664Q302.5625 90.541664 302.125 89.635414Q301.70312 88.71354 301.6875 87.49479L301.6875 86.885414Q301.6875 85.65104 302.10938 84.71354Q302.54688 83.77604 303.32812 83.27604Q304.10938 82.760414 305.125 82.760414Q306.14062 82.760414 306.92188 83.260414Q307.70312 83.760414 308.125 84.697914Q308.54688 85.635414 308.54688 86.885414L308.54688 87.43229ZM307.4375 86.86979Q307.4375 85.354164 306.82812 84.541664Q306.21875 83.729164 305.125 83.729164Q304.04688 83.729164 303.4375 84.541664Q302.82812 85.354164 302.8125 86.791664L302.8125 87.43229Q302.8125 88.90104 303.42188 89.74479Q304.04688 90.572914 305.125 90.572914Q306.21875 90.572914 306.8125 89.791664Q307.42188 88.99479 307.4375 87.510414L307.4375 86.86979Z" fill-rule="nonzero"/><path fill="#f4b400" d="M325.0 81.916664C325.0 81.36438 325.44772 80.916664 326.0 80.916664L336.0 80.916664C336.55228 80.916664 337.0 81.36438 337.0 81.916664L337.0 91.916664C337.0 92.46895 336.55228 92.916664 336.0 92.916664L326.0 92.916664C325.44772 92.916664 325.0 92.46895 325.0 91.916664Z" fill-rule="nonzero"/><path fill="#757575" d="M345.98438 91.416664L345.98438 82.885414L348.78125 82.885414Q350.17188 82.885414 350.85938 83.46354Q351.5625 84.02604 351.5625 85.15104Q351.5625 85.760414 351.21875 86.229164Q350.89062 86.68229 350.29688 86.93229Q351.0 87.11979 351.39062 87.666664Q351.79688 88.197914 351.79688 88.947914Q351.79688 90.104164 351.04688 90.760414Q350.3125 91.416664 348.95312 91.416664L345.98438 91.416664ZM347.10938 87.43229L347.10938 90.49479L348.96875 90.49479Q349.76562 90.49479 350.21875 90.08854Q350.67188 89.68229 350.67188 88.96354Q350.67188 87.43229 348.98438 87.43229L347.10938 87.43229ZM347.10938 86.52604L348.8125 86.52604Q349.54688 86.52604 349.98438 86.166664Q350.4375 85.791664 350.4375 85.15104Q350.4375 84.447914 350.03125 84.135414Q349.625 83.80729 348.78125 83.80729L347.10938 83.80729L347.10938 86.52604ZM354.125 90.49479L358.17188 90.49479L358.17188 91.416664L352.98438 91.416664L352.98438 82.885414L354.125 82.885414L354.125 90.49479ZM365.54688 87.43229Q365.54688 88.68229 365.125 89.61979Q364.70312 90.541664 363.92188 91.041664Q363.15625 91.541664 362.125 91.541664Q361.125 91.541664 360.34375 91.041664Q359.5625 90.541664 359.125 89.635414Q358.70312 88.71354 358.6875 87.49479L358.6875 86.885414Q358.6875 85.65104 359.10938 84.71354Q359.54688 83.77604 360.32812 83.27604Q361.10938 82.760414 362.125 82.760414Q363.14062 82.760414 363.92188 83.260414Q364.70312 83.760414 365.125 84.697914Q365.54688 85.635414 365.54688 86.885414L365.54688 87.43229ZM364.4375 86.86979Q364.4375 85.354164 363.82812 84.541664Q363.21875 83.729164 362.125 83.729164Q361.04688 83.729164 360.4375 84.541664Q359.82812 85.354164 359.8125 86.791664L359.8125 87.43229Q359.8125 88.90104 360.42188 89.74479Q361.04688 90.572914 362.125 90.572914Q363.21875 90.572914 363.8125 89.791664Q364.42188 88.99479 364.4375 87.510414L364.4375 86.86979ZM373.5 87.43229Q373.5 88.666664 373.10938 89.55729Q372.71875 90.447914 372.01562 90.947914L373.53125 92.15104L372.76562 92.854164L370.96875 91.43229Q370.54688 91.541664 370.07812 91.541664Q369.07812 91.541664 368.29688 91.041664Q367.51562 90.541664 367.07812 89.635414Q366.65625 88.71354 366.64062 87.49479L366.64062 86.885414Q366.64062 85.65104 367.0625 84.71354Q367.5 83.77604 368.28125 83.27604Q369.0625 82.760414 370.0625 82.760414Q371.09375 82.760414 371.875 83.260414Q372.65625 83.760414 373.07812 84.697914Q373.5 85.635414 373.5 86.885414L373.5 87.43229ZM372.375 86.86979Q372.375 85.36979 371.78125 84.55729Q371.1875 83.729164 370.0625 83.729164Q369.0 83.729164 368.39062 84.541664Q367.78125 85.354164 367.76562 86.791664L367.76562 87.43229Q367.76562 88.885414 368.375 89.729164Q368.98438 90.572914 370.07812 90.572914Q371.17188 90.572914 371.76562 89.791664Q372.35938 88.99479 372.375 87.510414L372.375 86.86979ZM381.0 82.885414L381.0 88.68229Q380.98438 89.885414 380.23438 90.666664Q379.48438 91.43229 378.20312 91.52604L377.89062 91.541664Q376.5 91.541664 375.65625 90.791664Q374.82812 90.02604 374.82812 88.697914L374.82812 82.885414L375.9375 82.885414L375.9375 88.666664Q375.9375 89.58854 376.4375 90.104164Q376.95312 90.61979 377.89062 90.61979Q378.85938 90.61979 379.35938 90.104164Q379.85938 89.58854 379.85938 88.666664L379.85938 82.885414L381.0 82.885414ZM387.8125 87.479164L384.10938 87.479164L384.10938 90.49479L388.40625 90.49479L388.40625 91.416664L382.98438 91.416664L382.98438 82.885414L388.35938 82.885414L388.35938 83.80729L384.10938 83.80729L384.10938 86.55729L387.8125 86.55729L387.8125 87.479164ZM394.70312 89.18229L391.125 89.18229L390.32812 91.416664L389.17188 91.416664L392.42188 82.885414L393.40625 82.885414L396.67188 91.416664L395.51562 91.416664L394.70312 89.18229ZM391.46875 88.260414L394.375 88.260414L392.92188 84.27604L391.46875 88.260414ZM397.98438 91.416664L397.98438 82.885414L400.40625 82.885414Q401.51562 82.885414 402.35938 83.385414Q403.21875 83.86979 403.6875 84.77604Q404.15625 85.68229 404.15625 86.86979L404.15625 87.40104Q404.15625 88.61979 403.6875 89.52604Q403.23438 90.43229 402.35938 90.916664Q401.5 91.40104 400.35938 91.416664L397.98438 91.416664ZM399.10938 83.80729L399.10938 90.49479L400.29688 90.49479Q401.59375 90.49479 402.3125 89.697914Q403.04688 88.885414 403.04688 87.385414L403.04688 86.885414Q403.04688 85.43229 402.35938 84.635414Q401.6875 83.822914 400.42188 83.80729L399.10938 83.80729ZM412.54688 87.43229Q412.54688 88.68229 412.125 89.61979Q411.70312 90.541664 410.92188 91.041664Q410.15625 91.541664 409.125 91.541664Q408.125 91.541664 407.34375 91.041664Q406.5625 90.541664 406.125 89.635414Q405.70312 88.71354 405.6875 87.49479L405.6875 86.885414Q405.6875 85.65104 406.10938 84.71354Q406.54688 83.77604 407.32812 83.27604Q408.10938 82.760414 409.125 82.760414Q410.14062 82.760414 410.92188 83.260414Q411.70312 83.760414 412.125 84.697914Q412.54688 85.635414 412.54688 86.885414L412.54688 87.43229ZM411.4375 86.86979Q411.4375 85.354164 410.82812 84.541664Q410.21875 83.729164 409.125 83.729164Q408.04688 83.729164 407.4375 84.541664Q406.82812 85.354164 406.8125 86.791664L406.8125 87.43229Q406.8125 88.90104 407.42188 89.74479Q408.04688 90.572914 409.125 90.572914Q410.21875 90.572914 410.8125 89.791664Q411.42188 88.99479 411.4375 87.510414L411.4375 86.86979Z" fill-rule="nonzero"/><path fill="#3c78d8" d="M25.08125 32.346874L22.753124 32.346874L22.753124 37.55L19.815624 37.55L19.815624 23.33125L25.096874 23.33125Q27.628124 23.33125 28.9875 24.45625Q30.3625 25.58125 30.3625 27.628124Q30.3625 29.08125 29.721874 30.05Q29.096874 31.01875 27.815624 31.596874L30.89375 37.409374L30.89375 37.55L27.753124 37.55L25.08125 32.346874ZM22.753124 29.971874L25.1125 29.971874Q26.221874 29.971874 26.815624 29.409374Q27.425 28.846874 27.425 27.8625Q27.425 26.8625 26.846874 26.284374Q26.284374 25.70625 25.096874 25.70625L22.753124 25.70625L22.753124 29.971874ZM41.378124 31.39375L35.753124 31.39375L35.753124 35.190624L42.346874 35.190624L42.346874 37.55L32.815624 37.55L32.815624 23.33125L42.33125 23.33125L42.33125 25.70625L35.753124 25.70625L35.753124 29.096874L41.378124 29.096874L41.378124 31.39375ZM51.190624 33.815624Q51.190624 32.9875 50.596874 32.55Q50.01875 32.096874 48.4875 31.6125Q46.971874 31.1125 46.08125 30.628124Q43.659374 29.33125 43.659374 27.1125Q43.659374 25.95625 44.3 25.05Q44.95625 24.14375 46.175 23.64375Q47.39375 23.128124 48.909374 23.128124Q50.425 23.128124 51.6125 23.690624Q52.815624 24.2375 53.471874 25.253124Q54.128124 26.253124 54.128124 27.534374L51.20625 27.534374Q51.20625 26.55 50.58125 26.01875Q49.971874 25.471874 48.8625 25.471874Q47.784374 25.471874 47.190624 25.925Q46.596874 26.378124 46.596874 27.1125Q46.596874 27.815624 47.284374 28.284374Q47.9875 28.753124 49.346874 29.159374Q51.846874 29.909374 52.9875 31.034374Q54.128124 32.14375 54.128124 33.8Q54.128124 35.64375 52.7375 36.70625Q51.346874 37.753124 48.971874 37.753124Q47.33125 37.753124 45.9875 37.159374Q44.64375 36.55 43.925 35.503124Q43.221874 34.45625 43.221874 33.08125L46.159374 33.08125Q46.159374 35.425 48.971874 35.425Q50.01875 35.425 50.596874 35.003124Q51.190624 34.58125 51.190624 33.815624ZM66.58125 23.33125L66.58125 32.690624Q66.58125 35.034374 65.1125 36.39375Q63.659374 37.753124 61.128124 37.753124Q58.64375 37.753124 57.175 36.440624Q55.70625 35.1125 55.690624 32.8L55.690624 23.33125L58.6125 23.33125L58.6125 32.721874Q58.6125 34.1125 59.284374 34.753124Q59.95625 35.39375 61.128124 35.39375Q63.596874 35.39375 63.64375 32.8L63.64375 23.33125L66.58125 23.33125ZM71.75313 35.190624L77.97188 35.190624L77.97188 37.55L68.81563 37.55L68.81563 23.33125L71.75313 23.33125L71.75313 35.190624ZM90.51875 25.70625L86.175 25.70625L86.175 37.55L83.2375 37.55L83.2375 25.70625L78.94063 25.70625L78.94063 23.33125L90.51875 23.33125L90.51875 25.70625ZM99.84688 34.6125L94.70625 34.6125L93.7375 37.55L90.6125 37.55L95.90938 23.33125L98.62813 23.33125L103.95625 37.55L100.83125 37.55L99.84688 34.6125ZM95.50313 32.253124L99.05 32.253124L97.26875 26.925L95.50313 32.253124ZM104.81563 37.55L104.81563 23.33125L109.19063 23.33125Q111.06563 23.33125 112.55 24.175Q114.03438 25.01875 114.8625 26.58125Q115.69063 28.128124 115.69063 30.1125L115.69063 30.76875Q115.69063 32.753124 114.87813 34.3Q114.06563 35.846874 112.58125 36.690624Q111.09688 37.534374 109.22188 37.55L104.81563 37.55ZM107.75313 25.70625L107.75313 35.190624L109.15938 35.190624Q110.87813 35.190624 111.78438 34.08125Q112.70625 32.95625 112.72188 30.8625L112.72188 30.1125Q112.72188 27.940624 111.81563 26.83125Q110.925 25.70625 109.19063 25.70625L107.75313 25.70625ZM129.50313 30.76875Q129.50313 32.8625 128.75313 34.440624Q128.01875 36.01875 126.62813 36.89375Q125.25313 37.753124 123.47188 37.753124Q121.69063 37.753124 120.3 36.909374Q118.925 36.05 118.15938 34.471874Q117.39375 32.89375 117.39375 30.846874L117.39375 30.14375Q117.39375 28.034374 118.14375 26.440624Q118.90938 24.846874 120.28438 23.9875Q121.675 23.128124 123.44063 23.128124Q125.22188 23.128124 126.59688 23.9875Q127.9875 24.846874 128.7375 26.440624Q129.50313 28.034374 129.50313 30.128124L129.50313 30.76875ZM126.53438 30.1125Q126.53438 27.878124 125.72188 26.721874Q124.925 25.55 123.44063 25.55Q121.97188 25.55 121.15938 26.70625Q120.3625 27.846874 120.3625 30.065624L120.3625 30.76875Q120.3625 32.940624 121.15938 34.14375Q121.95625 35.346874 123.47188 35.346874Q124.94063 35.346874 125.72188 34.190624Q126.51875 33.034374 126.53438 30.815624L126.53438 30.1125ZM139.19063 33.815624Q139.19063 32.9875 138.59688 32.55Q138.01875 32.096874 136.4875 31.6125Q134.97188 31.1125 134.08125 30.628124Q131.65938 29.33125 131.65938 27.1125Q131.65938 25.95625 132.3 25.05Q132.95625 24.14375 134.175 23.64375Q135.39375 23.128124 136.90938 23.128124Q138.425 23.128124 139.6125 23.690624Q140.81563 24.2375 141.47188 25.253124Q142.12813 26.253124 142.12813 27.534374L139.20625 27.534374Q139.20625 26.55 138.58125 26.01875Q137.97188 25.471874 136.8625 25.471874Q135.78438 25.471874 135.19063 25.925Q134.59688 26.378124 134.59688 27.1125Q134.59688 27.815624 135.28438 28.284374Q135.9875 28.753124 137.34688 29.159374Q139.84688 29.909374 140.9875 31.034374Q142.12813 32.14375 142.12813 33.8Q142.12813 35.64375 140.7375 36.70625Q139.34688 37.753124 136.97188 37.753124Q135.33125 37.753124 133.9875 37.159374Q132.64375 36.55 131.925 35.503124Q131.22188 34.45625 131.22188 33.08125L134.15938 33.08125Q134.15938 35.425 136.97188 35.425Q138.01875 35.425 138.59688 35.003124Q139.19063 34.58125 139.19063 33.815624ZM148.81563 37.55L148.81563 23.33125L153.19063 23.33125Q155.06563 23.33125 156.55 24.175Q158.03438 25.01875 158.8625 26.58125Q159.69063 28.128124 159.69063 30.1125L159.69063 30.76875Q159.69063 32.753124 158.87813 34.3Q158.06563 35.846874 156.58125 36.690624Q155.09688 37.534374 153.22188 37.55L148.81563 37.55ZM151.75313 25.70625L151.75313 35.190624L153.15938 35.190624Q154.87813 35.190624 155.78438 34.08125Q156.70625 32.95625 156.72188 30.8625L156.72188 30.1125Q156.72188 27.940624 155.81563 26.83125Q154.925 25.70625 153.19063 25.70625L151.75313 25.70625ZM170.37813 31.39375L164.75313 31.39375L164.75313 35.190624L171.34688 35.190624L171.34688 37.55L161.81563 37.55L161.81563 23.33125L171.33125 23.33125L171.33125 25.70625L164.75313 25.70625L164.75313 29.096874L170.37813 29.096874L170.37813 31.39375ZM180.75313 35.190624L186.97188 35.190624L186.97188 37.55L177.81563 37.55L177.81563 23.33125L180.75313 23.33125L180.75313 35.190624ZM196.84688 34.6125L191.70625 34.6125L190.7375 37.55L187.6125 37.55L192.90938 23.33125L195.62813 23.33125L200.95625 37.55L197.83125 37.55L196.84688 34.6125ZM192.50313 32.253124L196.05 32.253124L194.26875 26.925L192.50313 32.253124ZM209.19063 33.815624Q209.19063 32.9875 208.59688 32.55Q208.01875 32.096874 206.4875 31.6125Q204.97188 31.1125 204.08125 30.628124Q201.65938 29.33125 201.65938 27.1125Q201.65938 25.95625 202.3 25.05Q202.95625 24.14375 204.175 23.64375Q205.39375 23.128124 206.90938 23.128124Q208.425 23.128124 209.6125 23.690624Q210.81563 24.2375 211.47188 25.253124Q212.12813 26.253124 212.12813 27.534374L209.20625 27.534374Q209.20625 26.55 208.58125 26.01875Q207.97188 25.471874 206.8625 25.471874Q205.78438 25.471874 205.19063 25.925Q204.59688 26.378124 204.59688 27.1125Q204.59688 27.815624 205.28438 28.284374Q205.9875 28.753124 207.34688 29.159374Q209.84688 29.909374 210.9875 31.034374Q212.12813 32.14375 212.12813 33.8Q212.12813 35.64375 210.7375 36.70625Q209.34688 37.753124 206.97188 37.753124Q205.33125 37.753124 203.9875 37.159374Q202.64375 36.55 201.925 35.503124Q201.22188 34.45625 201.22188 33.08125L204.15938 33.08125Q204.15938 35.425 206.97188 35.425Q208.01875 35.425 208.59688 35.003124Q209.19063 34.58125 209.19063 33.815624ZM221.75313 32.534374L221.75313 37.55L218.81563 37.55L218.81563 23.33125L224.3625 23.33125Q225.97188 23.33125 227.175 23.925Q228.39375 24.503124 229.05 25.58125Q229.70625 26.659374 229.70625 28.034374Q229.70625 30.128124 228.26875 31.33125Q226.84688 32.534374 224.31563 32.534374L221.75313 32.534374ZM221.75313 30.159374L224.3625 30.159374Q225.53438 30.159374 226.14375 29.6125Q226.75313 29.065624 226.75313 28.05Q226.75313 27.01875 226.12813 26.378124Q225.51875 25.721874 224.44063 25.70625L221.75313 25.70625L221.75313 30.159374ZM237.08125 32.346874L234.75313 32.346874L234.75313 37.55L231.81563 37.55L231.81563 23.33125L237.09688 23.33125Q239.62813 23.33125 240.9875 24.45625Q242.3625 25.58125 242.3625 27.628124Q242.3625 29.08125 241.72188 30.05Q241.09688 31.01875 239.81563 31.596874L242.89375 37.409374L242.89375 37.55L239.75313 37.55L237.08125 32.346874ZM234.75313 29.971874L237.1125 29.971874Q238.22188 29.971874 238.81563 29.409374Q239.425 28.846874 239.425 27.8625Q239.425 26.8625 238.84688 26.284374Q238.28438 25.70625 237.09688 25.70625L234.75313 25.70625L234.75313 29.971874ZM255.58125 23.33125L255.58125 32.690624Q255.58125 35.034374 254.1125 36.39375Q252.65938 37.753124 250.12813 37.753124Q247.64375 37.753124 246.175 36.440624Q244.70625 35.1125 244.69063 32.8L244.69063 23.33125L247.6125 23.33125L247.6125 32.721874Q247.6125 34.1125 248.28438 34.753124Q248.95625 35.39375 250.12813 35.39375Q252.59688 35.39375 252.64375 32.8L252.64375 23.33125L255.58125 23.33125ZM266.3781 31.39375L260.7531 31.39375L260.7531 35.190624L267.34686 35.190624L267.34686 37.55L257.8156 37.55L257.8156 23.33125L267.33124 23.33125L267.33124 25.70625L260.7531 25.70625L260.7531 29.096874L266.3781 29.096874L266.3781 31.39375ZM268.8156 37.55L268.8156 23.33125L273.8 23.33125Q276.39374 23.33125 277.72186 24.33125Q279.0656 25.315624 279.0656 27.221874Q279.0656 28.26875 278.51874 29.065624Q277.9875 29.8625 277.03436 30.2375Q278.1281 30.503124 278.7531 31.346874Q279.39374 32.175 279.39374 33.3625Q279.39374 35.425 278.08124 36.4875Q276.76874 37.534374 274.34686 37.55L268.8156 37.55ZM271.7531 31.3625L271.7531 35.190624L274.2531 35.190624Q275.3 35.190624 275.8781 34.70625Q276.45624 34.20625 276.45624 33.346874Q276.45624 31.39375 274.4406 31.3625L271.7531 31.3625ZM271.7531 29.284374L273.925 29.284374Q276.1281 29.253124 276.1281 27.51875Q276.1281 26.55 275.5656 26.128124Q275.01874 25.70625 273.8 25.70625L271.7531 25.70625L271.7531 29.284374ZM289.84686 34.6125L284.70624 34.6125L283.7375 37.55L280.6125 37.55L285.90936 23.33125L288.6281 23.33125L293.95624 37.55L290.83124 37.55L289.84686 34.6125ZM285.5031 32.253124L289.05 32.253124L287.26874 26.925L285.5031 32.253124ZM302.1906 33.815624Q302.1906 32.9875 301.59686 32.55Q301.01874 32.096874 299.4875 31.6125Q297.97186 31.1125 297.08124 30.628124Q294.65936 29.33125 294.65936 27.1125Q294.65936 25.95625 295.3 25.05Q295.95624 24.14375 297.175 23.64375Q298.39374 23.128124 299.90936 23.128124Q301.425 23.128124 302.6125 23.690624Q303.8156 24.2375 304.47186 25.253124Q305.1281 26.253124 305.1281 27.534374L302.20624 27.534374Q302.20624 26.55 301.58124 26.01875Q300.97186 25.471874 299.8625 25.471874Q298.78436 25.471874 298.1906 25.925Q297.59686 26.378124 297.59686 27.1125Q297.59686 27.815624 298.28436 28.284374Q298.9875 28.753124 300.34686 29.159374Q302.84686 29.909374 303.9875 31.034374Q305.1281 32.14375 305.1281 33.8Q305.1281 35.64375 303.7375 36.70625Q302.34686 37.753124 299.97186 37.753124Q298.33124 37.753124 296.9875 37.159374Q295.64374 36.55 294.925 35.503124Q294.22186 34.45625 294.22186 33.08125L297.15936 33.08125Q297.15936 35.425 299.97186 35.425Q301.01874 35.425 301.59686 35.003124Q302.1906 34.58125 302.1906 33.815624Z" fill-rule="nonzero"/><path fill="#3c78d8" d="M24.596874 60.440624Q24.596874 59.8625 24.190624 59.55Q23.784374 59.2375 22.70625 58.89375Q21.64375 58.55 21.01875 58.20625Q19.33125 57.3 19.33125 55.7375Q19.33125 54.940624 19.784374 54.315624Q20.2375 53.675 21.08125 53.315624Q21.940624 52.95625 23.003124 52.95625Q24.065624 52.95625 24.89375 53.346874Q25.7375 53.7375 26.190624 54.440624Q26.659374 55.14375 26.659374 56.034374L24.6125 56.034374Q24.6125 55.346874 24.175 54.971874Q23.753124 54.596874 22.971874 54.596874Q22.221874 54.596874 21.8 54.909374Q21.378124 55.221874 21.378124 55.753124Q21.378124 56.2375 21.8625 56.565624Q22.3625 56.89375 23.315624 57.175Q25.065624 57.70625 25.8625 58.4875Q26.659374 59.26875 26.659374 60.425Q26.659374 61.721874 25.675 62.45625Q24.70625 63.190624 23.05 63.190624Q21.89375 63.190624 20.95625 62.76875Q20.01875 62.346874 19.51875 61.6125Q19.01875 60.878124 19.01875 59.925L21.08125 59.925Q21.08125 61.565624 23.05 61.565624Q23.784374 61.565624 24.190624 61.26875Q24.596874 60.971874 24.596874 60.440624ZM31.70625 63.190624Q30.08125 63.190624 29.065624 62.190624Q28.05 61.190624 28.05 59.534374L28.05 59.33125Q28.05 58.221874 28.471874 57.346874Q28.909374 56.471874 29.690624 56.003124Q30.4875 55.51875 31.4875 55.51875Q33.01875 55.51875 33.878124 56.471874Q34.753124 57.425 34.753124 59.190624L34.753124 59.9875L30.05 59.9875Q30.14375 60.721874 30.628124 61.159374Q31.1125 61.596874 31.846874 61.596874Q32.9875 61.596874 33.628124 60.76875L34.596874 61.846874Q34.159374 62.4875 33.39375 62.846874Q32.64375 63.190624 31.70625 63.190624ZM31.4875 57.1125Q30.89375 57.1125 30.534374 57.51875Q30.175 57.909374 30.065624 58.64375L32.815624 58.64375L32.815624 58.4875Q32.8 57.83125 32.45625 57.471874Q32.1125 57.1125 31.4875 57.1125ZM36.01875 59.3Q36.01875 57.596874 36.83125 56.565624Q37.64375 55.51875 39.01875 55.51875Q40.2375 55.51875 40.909374 56.346874L40.9875 55.659374L42.784374 55.659374L42.784374 62.8Q42.784374 63.76875 42.33125 64.4875Q41.89375 65.20625 41.096874 65.58125Q40.3 65.95625 39.221874 65.95625Q38.409374 65.95625 37.628124 65.62813Q36.8625 65.31563 36.471874 64.8L37.346874 63.596874Q38.08125 64.425 39.14375 64.425Q39.925 64.425 40.3625 64.00313Q40.8 63.58125 40.8 62.815624L40.8 62.409374Q40.1125 63.190624 39.003124 63.190624Q37.675 63.190624 36.846874 62.14375Q36.01875 61.096874 36.01875 59.378124L36.01875 59.3ZM38.003124 59.440624Q38.003124 60.440624 38.39375 61.01875Q38.8 61.58125 39.503124 61.58125Q40.409374 61.58125 40.8 60.909374L40.8 57.8Q40.409374 57.128124 39.51875 57.128124Q38.815624 57.128124 38.409374 57.70625Q38.003124 58.284374 38.003124 59.440624ZM48.7375 62.3Q48.003124 63.190624 46.721874 63.190624Q45.51875 63.190624 44.89375 62.503124Q44.26875 61.815624 44.26875 60.503124L44.26875 55.659374L46.2375 55.659374L46.2375 60.425Q46.2375 61.58125 47.284374 61.58125Q48.3 61.58125 48.675 60.89375L48.675 55.659374L50.659374 55.659374L50.659374 63.05L48.8 63.05L48.7375 62.3ZM47.58125 52.55L49.7375 52.55L47.846874 54.675L46.2375 54.675L47.58125 52.55ZM54.128124 55.659374L54.190624 56.503124Q54.9875 55.51875 56.315624 55.51875Q57.4875 55.51875 58.065624 56.20625Q58.64375 56.89375 58.659374 58.26875L58.659374 63.05L56.675 63.05L56.675 58.315624Q56.675 57.690624 56.39375 57.409374Q56.128124 57.128124 55.4875 57.128124Q54.659374 57.128124 54.2375 57.83125L54.2375 63.05L52.26875 63.05L52.26875 55.659374L54.128124 55.659374ZM66.70625 63.190624Q65.08125 63.190624 64.06563 62.190624Q63.05 61.190624 63.05 59.534374L63.05 59.33125Q63.05 58.221874 63.471874 57.346874Q63.909374 56.471874 64.69063 56.003124Q65.4875 55.51875 66.4875 55.51875Q68.01875 55.51875 68.87813 56.471874Q69.75313 57.425 69.75313 59.190624L69.75313 59.9875L65.05 59.9875Q65.14375 60.721874 65.62813 61.159374Q66.1125 61.596874 66.84688 61.596874Q67.9875 61.596874 68.62813 60.76875L69.59688 61.846874Q69.15938 62.4875 68.39375 62.846874Q67.64375 63.190624 66.70625 63.190624ZM66.4875 57.1125Q65.89375 57.1125 65.53438 57.51875Q65.175 57.909374 65.06563 58.64375L67.81563 58.64375L67.81563 58.4875Q67.8 57.83125 67.45625 57.471874Q67.1125 57.1125 66.4875 57.1125ZM73.39375 63.05L71.40938 63.05L71.40938 52.55L73.39375 52.55L73.39375 63.05ZM80.675 53.83125L80.675 55.659374L81.94063 55.659374L81.94063 57.096874L80.675 57.096874L80.675 60.8Q80.675 61.20625 80.83125 61.39375Q80.9875 61.565624 81.44063 61.565624Q81.76875 61.565624 82.01875 61.51875L82.01875 63.003124Q81.44063 63.190624 80.81563 63.190624Q78.7375 63.190624 78.70625 61.08125L78.70625 57.096874L77.6125 57.096874L77.6125 55.659374L78.70625 55.659374L78.70625 53.83125L80.675 53.83125ZM85.39375 63.05L83.40938 63.05L83.40938 55.659374L85.39375 55.659374L85.39375 63.05ZM83.3 53.7375Q83.3 53.3 83.59688 53.01875Q83.89375 52.721874 84.40938 52.721874Q84.90938 52.721874 85.20625 53.01875Q85.50313 53.3 85.50313 53.7375Q85.50313 54.190624 85.20625 54.4875Q84.90938 54.76875 84.40938 54.76875Q83.90938 54.76875 83.59688 54.4875Q83.3 54.190624 83.3 53.7375ZM93.97188 59.425Q93.97188 61.128124 93.19063 62.159374Q92.40938 63.190624 91.09688 63.190624Q89.97188 63.190624 89.28438 62.409374L89.28438 65.89375L87.31563 65.89375L87.31563 55.659374L89.14375 55.659374L89.20625 56.378124Q89.925 55.51875 91.08125 55.51875Q92.45625 55.51875 93.20625 56.534374Q93.97188 57.534374 93.97188 59.315624L93.97188 59.425ZM91.9875 59.26875Q91.9875 58.2375 91.6125 57.690624Q91.25313 57.128124 90.56563 57.128124Q89.62813 57.128124 89.28438 57.83125L89.28438 60.8625Q89.64375 61.596874 90.58125 61.596874Q91.9875 61.596874 91.9875 59.26875ZM95.00313 59.284374Q95.00313 58.175 95.425 57.315624Q95.84688 56.45625 96.64375 55.9875Q97.44063 55.51875 98.4875 55.51875Q99.9875 55.51875 100.925 56.440624Q101.87813 57.346874 101.9875 58.925L102.00313 59.425Q102.00313 61.128124 101.05 62.159374Q100.1125 63.190624 98.50313 63.190624Q96.90938 63.190624 95.95625 62.159374Q95.00313 61.128124 95.00313 59.378124L95.00313 59.284374ZM96.97188 59.425Q96.97188 60.471874 97.3625 61.034374Q97.76875 61.596874 98.50313 61.596874Q99.22188 61.596874 99.62813 61.05Q100.03438 60.4875 100.03438 59.284374Q100.03438 58.253124 99.62813 57.690624Q99.22188 57.1125 98.4875 57.1125Q97.76875 57.1125 97.3625 57.675Q96.97188 58.2375 96.97188 59.425ZM106.00313 59.3Q106.00313 57.565624 106.76875 56.55Q107.55 55.51875 108.89375 55.51875Q109.9875 55.51875 110.69063 56.315624L110.69063 52.55L112.65938 52.55L112.65938 63.05L110.87813 63.05L110.78438 62.26875Q110.05 63.190624 108.89375 63.190624Q107.58125 63.190624 106.78438 62.159374Q106.00313 61.128124 106.00313 59.3ZM107.97188 59.440624Q107.97188 60.471874 108.33125 61.034374Q108.70625 61.58125 109.39375 61.58125Q110.31563 61.58125 110.69063 60.815624L110.69063 57.89375Q110.31563 57.128124 109.40938 57.128124Q107.97188 57.128124 107.97188 59.440624ZM117.70625 63.190624Q116.08125 63.190624 115.06563 62.190624Q114.05 61.190624 114.05 59.534374L114.05 59.33125Q114.05 58.221874 114.47188 57.346874Q114.90938 56.471874 115.69063 56.003124Q116.4875 55.51875 117.4875 55.51875Q119.01875 55.51875 119.87813 56.471874Q120.75313 57.425 120.75313 59.190624L120.75313 59.9875L116.05 59.9875Q116.14375 60.721874 116.62813 61.159374Q117.1125 61.596874 117.84688 61.596874Q118.9875 61.596874 119.62813 60.76875L120.59688 61.846874Q120.15938 62.4875 119.39375 62.846874Q118.64375 63.190624 117.70625 63.190624ZM117.4875 57.1125Q116.89375 57.1125 116.53438 57.51875Q116.175 57.909374 116.06563 58.64375L118.81563 58.64375L118.81563 58.4875Q118.8 57.83125 118.45625 57.471874Q118.1125 57.1125 117.4875 57.1125ZM129.59688 63.05Q129.45625 62.784374 129.39375 62.39375Q128.675 63.190624 127.53438 63.190624Q126.44063 63.190624 125.72188 62.565624Q125.01875 61.925 125.01875 60.971874Q125.01875 59.8 125.87813 59.175Q126.75313 58.534374 128.40938 58.534374L129.31563 58.534374L129.31563 58.1125Q129.31563 57.596874 129.05 57.284374Q128.78438 56.971874 128.22188 56.971874Q127.72188 56.971874 127.44063 57.221874Q127.15938 57.45625 127.15938 57.878124L125.175 57.878124Q125.175 57.2375 125.56563 56.690624Q125.97188 56.14375 126.69063 55.83125Q127.425 55.51875 128.33125 55.51875Q129.69063 55.51875 130.4875 56.20625Q131.3 56.89375 131.3 58.128124L131.3 61.346874Q131.3 62.39375 131.59688 62.940624L131.59688 63.05L129.59688 63.05ZM127.95625 61.675Q128.39375 61.675 128.76875 61.4875Q129.14375 61.284374 129.31563 60.95625L129.31563 59.690624L128.58125 59.690624Q127.09688 59.690624 127.00313 60.70625L126.9875 60.83125Q126.9875 61.190624 127.2375 61.440624Q127.50313 61.675 127.95625 61.675ZM136.37813 61.596874Q136.925 61.596874 137.26875 61.3Q137.6125 60.9875 137.62813 60.4875L139.4875 60.4875Q139.47188 61.2375 139.06563 61.878124Q138.675 62.503124 137.97188 62.846874Q137.26875 63.190624 136.425 63.190624Q134.83125 63.190624 133.90938 62.190624Q133.00313 61.175 133.00313 59.39375L133.00313 59.26875Q133.00313 57.55 133.90938 56.534374Q134.81563 55.51875 136.40938 55.51875Q137.8 55.51875 138.62813 56.315624Q139.47188 57.096874 139.4875 58.409374L137.62813 58.409374Q137.6125 57.83125 137.26875 57.471874Q136.925 57.1125 136.37813 57.1125Q135.675 57.1125 135.31563 57.628124Q134.97188 58.128124 134.97188 59.253124L134.97188 59.45625Q134.97188 60.596874 135.31563 61.096874Q135.675 61.596874 136.37813 61.596874ZM143.37813 61.596874Q143.925 61.596874 144.26875 61.3Q144.6125 60.9875 144.62813 60.4875L146.4875 60.4875Q146.47188 61.2375 146.06563 61.878124Q145.675 62.503124 144.97188 62.846874Q144.26875 63.190624 143.425 63.190624Q141.83125 63.190624 140.90938 62.190624Q140.00313 61.175 140.00313 59.39375L140.00313 59.26875Q140.00313 57.55 140.90938 56.534374Q141.81563 55.51875 143.40938 55.51875Q144.8 55.51875 145.62813 56.315624Q146.47188 57.096874 146.4875 58.409374L144.62813 58.409374Q144.6125 57.83125 144.26875 57.471874Q143.925 57.1125 143.37813 57.1125Q142.675 57.1125 142.31563 57.628124Q141.97188 58.128124 141.97188 59.253124L141.97188 59.45625Q141.97188 60.596874 142.31563 61.096874Q142.675 61.596874 143.37813 61.596874ZM149.39375 63.05L147.40938 63.05L147.40938 55.659374L149.39375 55.659374L149.39375 63.05ZM147.3 53.7375Q147.3 53.3 147.59688 53.01875Q147.89375 52.721874 148.40938 52.721874Q148.90938 52.721874 149.20625 53.01875Q149.50313 53.3 149.50313 53.7375Q149.50313 54.190624 149.20625 54.4875Q148.90938 54.76875 148.40938 54.76875Q147.90938 54.76875 147.59688 54.4875Q147.3 54.190624 147.3 53.7375ZM151.00313 59.284374Q151.00313 58.175 151.425 57.315624Q151.84688 56.45625 152.64375 55.9875Q153.44063 55.51875 154.4875 55.51875Q155.9875 55.51875 156.925 56.440624Q157.87813 57.346874 157.9875 58.925L158.00313 59.425Q158.00313 61.128124 157.05 62.159374Q156.1125 63.190624 154.50313 63.190624Q152.90938 63.190624 151.95625 62.159374Q151.00313 61.128124 151.00313 59.378124L151.00313 59.284374ZM152.97188 59.425Q152.97188 60.471874 153.3625 61.034374Q153.76875 61.596874 154.50313 61.596874Q155.22188 61.596874 155.62813 61.05Q156.03438 60.4875 156.03438 59.284374Q156.03438 58.253124 155.62813 57.690624Q155.22188 57.1125 154.4875 57.1125Q153.76875 57.1125 153.3625 57.675Q152.97188 58.2375 152.97188 59.425ZM154.58125 52.55L156.7375 52.55L154.84688 54.675L153.2375 54.675L154.58125 52.55ZM161.12813 55.659374L161.19063 56.503124Q161.9875 55.51875 163.31563 55.51875Q164.4875 55.51875 165.06563 56.20625Q165.64375 56.89375 165.65938 58.26875L165.65938 63.05L163.675 63.05L163.675 58.315624Q163.675 57.690624 163.39375 57.409374Q163.12813 57.128124 162.4875 57.128124Q161.65938 57.128124 161.2375 57.83125L161.2375 63.05L159.26875 63.05L159.26875 55.659374L161.12813 55.659374Z" fill-rule="nonzero"/></svg>