<svg version="1.1" viewBox="0.0 0.0 600.0 371.0" fill="none" stroke="none" stroke-linecap="square" stroke-miterlimit="10" width="600" height="371" xmlns:xlink="http://www.w3.org/1999/xlink" xmlns="http://www.w3.org/2000/svg"><path fill="#ffffff" d="M0 0L600.0 0L600.0 371.0L0 371.0L0 0Z" fill-rule="nonzero"/><path fill="#ffffff" d="M0 0L600.0 0L600.0 371.0L0 371.0L0 0Z" fill-rule="nonzero"/><path fill="#cccccc" d="M300.0 79.416664C355.4844 79.416664 405.44962 112.997925 426.40533 164.37277C447.36105 215.74763 435.13828 274.69528 395.48328 313.5025C355.82828 352.30972 296.63028 363.25598 245.72023 341.1951L272.8601 278.5642C298.31516 289.59467 327.91415 284.12152 347.74164 264.71793C367.56912 245.31432 373.68054 215.84048 363.20267 190.15306C352.7248 164.46562 327.7422 147.675 300.0 147.675Z" fill-rule="nonzero"/><path fill="#000000" d="M396.6818 241.935L395.41617 241.935L395.41617 233.51312L392.85367 234.435L392.85367 233.29437L396.47867 231.935L396.6818 231.935L396.6818 241.935ZM406.94742 232.685L402.82242 241.935L401.50992 241.935L405.60367 233.01312L400.22867 233.01312L400.22867 231.98187L406.94742 231.98187L406.94742 232.685ZM414.5568 234.57562Q414.5568 235.32562 414.16617 235.90375Q413.77554 236.48187 413.10367 236.81Q413.88492 237.15375 414.33804 237.79437Q414.79117 238.435 414.79117 239.2475Q414.79117 240.54437 413.91617 241.31Q413.0568 242.07562 411.63492 242.07562Q410.19742 242.07562 409.32242 241.31Q408.46304 240.52875 408.46304 239.2475Q408.46304 238.435 408.90054 237.79437Q409.33804 237.13812 410.1193 236.81Q409.46304 236.48187 409.07242 235.90375Q408.69742 235.31 408.69742 234.57562Q408.69742 233.32562 409.4943 232.59125Q410.3068 231.84125 411.63492 231.84125Q412.94742 231.84125 413.7443 232.59125Q414.5568 233.32562 414.5568 234.57562ZM413.52554 239.21625Q413.52554 238.38812 412.9943 237.8725Q412.46304 237.34125 411.60367 237.34125Q410.75992 237.34125 410.2443 237.85687Q409.72867 238.3725 409.72867 239.23187Q409.72867 240.07562 410.22867 240.56Q410.72867 241.04437 411.63492 241.04437Q412.50992 241.04437 413.00992 240.56Q413.52554 240.06 413.52554 239.21625ZM411.63492 232.88812Q410.88492 232.88812 410.41617 233.35687Q409.96304 233.81 409.96304 234.60687Q409.96304 235.35687 410.41617 235.82562Q410.8693 236.29437 411.6193 236.29437Q412.38492 236.29437 412.83804 235.82562Q413.29117 235.35687 413.29117 234.60687Q413.29117 233.84125 412.82242 233.3725Q412.35367 232.88812 411.63492 232.88812Z" fill-rule="nonzero"/><path fill="#f6b26b" d="M245.72023 341.1951C189.60594 316.87903 156.50964 258.211 164.71884 197.60826L232.35942 206.7708C228.25482 237.07216 244.80298 266.4062 272.8601 278.5642Z" fill-rule="nonzero"/><path fill="#000000" d="M205.03857 262.8078L205.03857 263.8703L204.8042 263.8703Q203.31982 263.90155 202.44482 264.7453Q201.56982 265.58905 201.4292 267.13593Q202.22607 266.22968 203.58545 266.22968Q204.88232 266.22968 205.64795 267.15155Q206.4292 268.0578 206.4292 269.51093Q206.4292 271.0578 205.58545 271.97968Q204.75732 272.90155 203.35107 272.90155Q201.9292 272.90155 201.03857 271.8078Q200.14795 270.69843 200.14795 268.97968L200.14795 268.4953Q200.14795 265.7453 201.31982 264.29218Q202.4917 262.83905 204.8042 262.8078L205.03857 262.8078ZM203.3667 267.29218Q202.72607 267.29218 202.1792 267.6828Q201.63232 268.0578 201.41357 268.65155L201.41357 269.1203Q201.41357 270.35468 201.96045 271.10468Q202.52295 271.85468 203.35107 271.85468Q204.21045 271.85468 204.69482 271.22968Q205.1792 270.58905 205.1792 269.57343Q205.1792 268.54218 204.6792 267.91718Q204.19482 267.29218 203.3667 267.29218ZM208.64795 267.77655L209.16357 262.8078L214.25732 262.8078L214.25732 263.97968L210.22607 263.97968L209.9292 266.6828Q210.66357 266.26093 211.58545 266.26093Q212.94482 266.26093 213.7417 267.16718Q214.5542 268.0578 214.5542 269.58905Q214.5542 271.1203 213.71045 272.01093Q212.88232 272.90155 211.39795 272.90155Q210.08545 272.90155 209.2417 272.16718Q208.41357 271.4328 208.28857 270.13593L209.4917 270.13593Q209.60107 270.9953 210.08545 271.4328Q210.58545 271.8703 211.39795 271.8703Q212.27295 271.8703 212.77295 271.27655Q213.28857 270.66718 213.28857 269.60468Q213.28857 268.60468 212.7417 268.01093Q212.19482 267.40155 211.28857 267.40155Q210.47607 267.40155 209.9917 267.76093L209.66357 268.02655L208.64795 267.77655Z" fill-rule="nonzero"/><path fill="#6fa8dc" d="M164.71884 197.60826C171.59334 146.85863 206.29338 104.22544 254.59027 87.190346L277.29514 151.56184C253.1467 160.07939 235.79668 181.39598 232.35942 206.7708Z" fill-rule="nonzero"/><path fill="#000000" d="M211.43143 148.72795L211.94705 143.7592L217.0408 143.7592L217.0408 144.93108L213.00955 144.93108L212.71268 147.6342Q213.44705 147.21233 214.36893 147.21233Q215.7283 147.21233 216.52518 148.11858Q217.33768 149.0092 217.33768 150.54045Q217.33768 152.0717 216.49393 152.96233Q215.6658 153.85295 214.18143 153.85295Q212.86893 153.85295 212.02518 153.11858Q211.19705 152.3842 211.07205 151.08733L212.27518 151.08733Q212.38455 151.9467 212.86893 152.3842Q213.36893 152.8217 214.18143 152.8217Q215.05643 152.8217 215.55643 152.22795Q216.07205 151.61858 216.07205 150.55608Q216.07205 149.55608 215.52518 148.96233Q214.9783 148.35295 214.07205 148.35295Q213.25955 148.35295 212.77518 148.71233L212.44705 148.97795L211.43143 148.72795ZM219.43143 148.72795L219.94705 143.7592L225.0408 143.7592L225.0408 144.93108L221.00955 144.93108L220.71268 147.6342Q221.44705 147.21233 222.36893 147.21233Q223.7283 147.21233 224.52518 148.11858Q225.33768 149.0092 225.33768 150.54045Q225.33768 152.0717 224.49393 152.96233Q223.6658 153.85295 222.18143 153.85295Q220.86893 153.85295 220.02518 153.11858Q219.19705 152.3842 219.07205 151.08733L220.27518 151.08733Q220.38455 151.9467 220.86893 152.3842Q221.36893 152.8217 222.18143 152.8217Q223.05643 152.8217 223.55643 152.22795Q224.07205 151.61858 224.07205 150.55608Q224.07205 149.55608 223.52518 148.96233Q222.9783 148.35295 222.07205 148.35295Q221.25955 148.35295 220.77518 148.71233L220.44705 148.97795L219.43143 148.72795Z" fill-rule="nonzero"/><path fill="#93c47d" d="M254.59027 87.190346C269.17715 82.04532 284.53235 79.416664 300.0 79.416664L300.0 147.675C292.26617 147.675 284.58856 148.98932 277.29514 151.56184Z" fill-rule="nonzero"/><path fill="#000000" d="M278.44214 112.119484L277.1765 112.119484L277.1765 103.69761L274.614 104.619484L274.614 103.47886L278.239 102.119484L278.44214 102.119484L278.44214 112.119484ZM288.70776 102.869484L284.58276 112.119484L283.27026 112.119484L287.364 103.19761L281.989 103.19761L281.989 102.16636L288.70776 102.16636L288.70776 102.869484Z" fill-rule="nonzero"/><path fill="#757575" d="M20.675 90.49479L24.721874 90.49479L24.721874 91.416664L19.534374 91.416664L19.534374 82.885414L20.675 82.885414L20.675 90.49479ZM30.3625 87.479164L26.659374 87.479164L26.659374 90.49479L30.95625 90.49479L30.95625 91.416664L25.534374 91.416664L25.534374 82.885414L30.909374 82.885414L30.909374 83.80729L26.659374 83.80729L26.659374 86.55729L30.3625 86.55729L30.3625 87.479164ZM38.815624 88.71354Q38.659374 90.05729 37.815624 90.80729Q36.971874 91.541664 35.58125 91.541664Q34.065624 91.541664 33.159374 90.46354Q32.253124 89.36979 32.253124 87.541664L32.253124 86.729164Q32.253124 85.541664 32.675 84.635414Q33.096874 83.729164 33.878124 83.24479Q34.659374 82.760414 35.675 82.760414Q37.034374 82.760414 37.846874 83.52604Q38.675 84.291664 38.815624 85.61979L37.690624 85.61979Q37.534374 84.604164 37.05 84.15104Q36.565624 83.697914 35.675 83.697914Q34.596874 83.697914 33.9875 84.49479Q33.378124 85.291664 33.378124 86.760414L33.378124 87.58854Q33.378124 88.979164 33.95625 89.80729Q34.534374 90.61979 35.58125 90.61979Q36.51875 90.61979 37.01875 90.197914Q37.51875 89.760414 37.690624 88.71354L38.815624 88.71354ZM46.440624 83.80729L43.690624 83.80729L43.690624 91.416664L42.58125 91.416664L42.58125 83.80729L39.83125 83.80729L39.83125 82.885414L46.440624 82.885414L46.440624 83.80729ZM53.55 82.885414L53.55 88.68229Q53.534374 89.885414 52.784374 90.666664Q52.034374 91.43229 50.753124 91.52604L50.440624 91.541664Q49.05 91.541664 48.20625 90.791664Q47.378124 90.02604 47.378124 88.697914L47.378124 82.885414L48.4875 82.885414L48.4875 88.666664Q48.4875 89.58854 48.9875 90.104164Q49.503124 90.61979 50.440624 90.61979Q51.409374 90.61979 51.909374 90.104164Q52.409374 89.58854 52.409374 88.666664L52.409374 82.885414L53.55 82.885414ZM58.675 87.96354L56.659374 87.96354L56.659374 91.416664L55.534374 91.416664L55.534374 82.885414L58.3625 82.885414Q59.8 82.885414 60.565624 83.541664Q61.346874 84.197914 61.346874 85.447914Q61.346874 86.24479 60.909374 86.83854Q60.4875 87.43229 59.721874 87.729164L61.721874 91.33854L61.721874 91.416664L60.51875 91.416664L58.675 87.96354ZM56.659374 87.041664L58.39375 87.041664Q59.2375 87.041664 59.721874 86.61979Q60.221874 86.18229 60.221874 85.447914Q60.221874 84.666664 59.753124 84.24479Q59.284374 83.822914 58.39375 83.80729L56.659374 83.80729L56.659374 87.041664ZM67.25313 89.18229L63.675 89.18229L62.878124 91.416664L61.721874 91.416664L64.97188 82.885414L65.95625 82.885414L69.22188 91.416664L68.06563 91.416664L67.25313 89.18229ZM64.01875 88.260414L66.925 88.260414L65.47188 84.27604L64.01875 88.260414Z" fill-rule="nonzero"/><path fill="#9e9e9e" d="M19.753124 105.135414L20.190624 100.885414L24.565624 100.885414L24.565624 101.885414L21.1125 101.885414L20.846874 104.21354Q21.4875 103.83854 22.284374 103.83854Q23.440624 103.83854 24.128124 104.61979Q24.815624 105.385414 24.815624 106.697914Q24.815624 108.010414 24.096874 108.77604Q23.39375 109.541664 22.1125 109.541664Q20.9875 109.541664 20.26875 108.916664Q19.55 108.27604 19.45625 107.166664L20.471874 107.166664Q20.58125 107.90104 21.003124 108.27604Q21.425 108.65104 22.1125 108.65104Q22.8625 108.65104 23.3 108.135414Q23.7375 107.61979 23.7375 106.71354Q23.7375 105.854164 23.26875 105.33854Q22.8 104.822914 22.01875 104.822914Q21.315624 104.822914 20.909374 105.11979L20.628124 105.354164L19.753124 105.135414ZM26.33125 111.11979L25.721874 110.697914Q26.26875 109.93229 26.3 109.104164L26.3 108.135414L27.3625 108.135414L27.3625 108.979164Q27.3625 109.572914 27.065624 110.166664Q26.76875 110.760414 26.33125 111.11979ZM32.83125 106.55729L34.01875 106.55729L34.01875 107.43229L32.83125 107.43229L32.83125 109.416664L31.753124 109.416664L31.753124 107.43229L27.8625 107.43229L27.8625 106.791664L31.675 100.885414L32.83125 100.885414L32.83125 106.55729ZM29.096874 106.55729L31.753124 106.55729L31.753124 102.36979L31.6125 102.604164L29.096874 106.55729ZM35.159374 102.52604Q35.159374 101.760414 35.64375 101.260414Q36.14375 100.760414 36.909374 100.760414Q37.690624 100.760414 38.175 101.260414Q38.659374 101.760414 38.659374 102.55729L38.659374 102.979164Q38.659374 103.74479 38.159374 104.24479Q37.675 104.729164 36.925 104.729164Q36.159374 104.729164 35.659374 104.24479Q35.159374 103.74479 35.159374 102.93229L35.159374 102.52604ZM35.971874 102.979164Q35.971874 103.43229 36.221874 103.729164Q36.4875 104.02604 36.925 104.02604Q37.346874 104.02604 37.596874 103.74479Q37.846874 103.447914 37.846874 102.947914L37.846874 102.52604Q37.846874 102.072914 37.596874 101.77604Q37.346874 101.46354 36.909374 101.46354Q36.471874 101.46354 36.221874 101.77604Q35.971874 102.072914 35.971874 102.541664L35.971874 102.979164ZM39.315624 107.322914Q39.315624 106.55729 39.8 106.072914Q40.3 105.572914 41.065624 105.572914Q41.83125 105.572914 42.315624 106.072914Q42.815624 106.55729 42.815624 107.36979L42.815624 107.77604Q42.815624 108.541664 42.33125 109.041664Q41.846874 109.541664 41.08125 109.541664Q40.315624 109.541664 39.815624 109.05729Q39.315624 108.55729 39.315624 107.74479L39.315624 107.322914ZM40.128124 107.77604Q40.128124 108.24479 40.378124 108.541664Q40.64375 108.83854 41.08125 108.83854Q41.503124 108.83854 41.753124 108.55729Q42.003124 108.260414 42.003124 107.760414L42.003124 107.322914Q42.003124 106.854164 41.7375 106.572914Q41.4875 106.27604 41.065624 106.27604Q40.64375 106.27604 40.378124 106.572914Q40.128124 106.854164 40.128124 107.354164L40.128124 107.77604ZM37.175 108.77604L36.55 108.385414L40.721874 101.71354L41.33125 102.104164L37.175 108.77604Z" fill-rule="nonzero"/><path stroke="#757575" stroke-width="1.0" stroke-linecap="butt" d="M18.55 95.916664L157.48334 95.916664L278.1166 88.10208" fill-rule="nonzero"/><path fill="#9e9e9e" d="M280.1166 88.10208C280.1166 86.99751 279.22116 86.10208 278.1166 86.10208C277.01202 86.10208 276.1166 86.99751 276.1166 88.10208C276.1166 89.20665 277.01202 90.10208 278.1166 90.10208C279.22116 90.10208 280.1166 89.20665 280.1166 88.10208" fill-rule="nonzero"/><path fill="#757575" d="M22.3625 128.0652L24.8 121.03395L26.034374 121.03395L22.8625 129.5652L21.878124 129.5652L18.721874 121.03395L19.940624 121.03395L22.3625 128.0652ZM32.253124 127.330826L28.675 127.330826L27.878124 129.5652L26.721874 129.5652L29.971874 121.03395L30.95625 121.03395L34.221874 129.5652L33.065624 129.5652L32.253124 127.330826ZM29.01875 126.40895L31.925 126.40895L30.471874 122.424576L29.01875 126.40895ZM36.675 128.64333L40.721874 128.64333L40.721874 129.5652L35.534374 129.5652L35.534374 121.03395L36.675 121.03395L36.675 128.64333ZM42.753124 129.5652L41.628124 129.5652L41.628124 121.03395L42.753124 121.03395L42.753124 129.5652ZM44.534374 129.5652L44.534374 121.03395L46.95625 121.03395Q48.065624 121.03395 48.909374 121.53395Q49.76875 122.018326 50.2375 122.924576Q50.70625 123.830826 50.70625 125.018326L50.70625 125.549576Q50.70625 126.768326 50.2375 127.674576Q49.784374 128.58083 48.909374 129.0652Q48.05 129.54958 46.909374 129.5652L44.534374 129.5652ZM45.659374 121.955826L45.659374 128.64333L46.846874 128.64333Q48.14375 128.64333 48.8625 127.84645Q49.596874 127.03395 49.596874 125.53395L49.596874 125.03395Q49.596874 123.580826 48.909374 122.78395Q48.2375 121.97145 46.971874 121.955826L45.659374 121.955826ZM57.253124 127.330826L53.675 127.330826L52.878124 129.5652L51.721874 129.5652L54.971874 121.03395L55.95625 121.03395L59.221874 129.5652L58.065624 129.5652L57.253124 127.330826ZM54.01875 126.40895L56.925 126.40895L55.471874 122.424576L54.01875 126.40895ZM66.81563 126.862076Q66.65938 128.20583 65.81563 128.95583Q64.97188 129.6902 63.58125 129.6902Q62.065624 129.6902 61.159374 128.61208Q60.253124 127.518326 60.253124 125.6902L60.253124 124.8777Q60.253124 123.6902 60.675 122.78395Q61.096874 121.8777 61.878124 121.393326Q62.659374 120.90895 63.675 120.90895Q65.03438 120.90895 65.84688 121.674576Q66.675 122.4402 66.81563 123.768326L65.69063 123.768326Q65.53438 122.7527 65.05 122.299576Q64.56563 121.84645 63.675 121.84645Q62.596874 121.84645 61.9875 122.643326Q61.378124 123.4402 61.378124 124.90895L61.378124 125.737076Q61.378124 127.1277 61.95625 127.955826Q62.534374 128.76833 63.58125 128.76833Q64.51875 128.76833 65.01875 128.34645Q65.51875 127.90895 65.69063 126.862076L66.81563 126.862076ZM69.75313 129.5652L68.62813 129.5652L68.62813 121.03395L69.75313 121.03395L69.75313 129.5652ZM78.09688 125.580826Q78.09688 126.830826 77.675 127.768326Q77.25313 128.6902 76.47188 129.1902Q75.70625 129.6902 74.675 129.6902Q73.675 129.6902 72.89375 129.1902Q72.1125 128.6902 71.675 127.78395Q71.25313 126.862076 71.2375 125.643326L71.2375 125.03395Q71.2375 123.799576 71.65938 122.862076Q72.09688 121.924576 72.87813 121.424576Q73.65938 120.90895 74.675 120.90895Q75.69063 120.90895 76.47188 121.40895Q77.25313 121.90895 77.675 122.84645Q78.09688 123.78395 78.09688 125.03395L78.09688 125.580826ZM76.9875 125.018326Q76.9875 123.5027 76.37813 122.6902Q75.76875 121.8777 74.675 121.8777Q73.59688 121.8777 72.9875 122.6902Q72.37813 123.5027 72.3625 124.9402L72.3625 125.580826Q72.3625 127.049576 72.97188 127.893326Q73.59688 128.72145 74.675 128.72145Q75.76875 128.72145 76.3625 127.9402Q76.97188 127.143326 76.9875 125.65895L76.9875 125.018326ZM75.40938 118.5652L76.72188 118.5652L75.14375 120.28395L74.26875 120.28395L75.40938 118.5652ZM86.09688 129.5652L84.97188 129.5652L80.675 122.987076L80.675 129.5652L79.53438 129.5652L79.53438 121.03395L80.675 121.03395L84.97188 127.643326L84.97188 121.03395L86.09688 121.03395L86.09688 129.5652Z" fill-rule="nonzero"/><path fill="#9e9e9e" d="M22.815624 147.5652L21.7375 147.5652L21.7375 140.34645L19.55 141.14333L19.55 140.15895L22.659374 138.98708L22.815624 138.98708L22.815624 147.5652ZM31.76875 139.64333L28.2375 147.5652L27.096874 147.5652L30.6125 139.92458L26.003124 139.92458L26.003124 139.03395L31.76875 139.03395L31.76875 139.64333ZM33.33125 149.26833L32.721874 148.84645Q33.26875 148.08083 33.3 147.2527L33.3 146.28395L34.3625 146.28395L34.3625 147.1277Q34.3625 147.72145 34.065624 148.3152Q33.76875 148.90895 33.33125 149.26833ZM35.753124 143.28395L36.190624 139.03395L40.565624 139.03395L40.565624 140.03395L37.1125 140.03395L36.846874 142.36208Q37.4875 141.98708 38.284374 141.98708Q39.440624 141.98708 40.128124 142.76833Q40.815624 143.53395 40.815624 144.84645Q40.815624 146.15895 40.096874 146.92458Q39.39375 147.6902 38.1125 147.6902Q36.9875 147.6902 36.26875 147.0652Q35.55 146.42458 35.45625 145.3152L36.471874 145.3152Q36.58125 146.04958 37.003124 146.42458Q37.425 146.79958 38.1125 146.79958Q38.8625 146.79958 39.3 146.28395Q39.7375 145.76833 39.7375 144.86208Q39.7375 144.0027 39.26875 143.48708Q38.8 142.97145 38.01875 142.97145Q37.315624 142.97145 36.909374 143.26833L36.628124 143.5027L35.753124 143.28395ZM42.159374 140.67458Q42.159374 139.90895 42.64375 139.40895Q43.14375 138.90895 43.909374 138.90895Q44.690624 138.90895 45.175 139.40895Q45.659374 139.90895 45.659374 140.70583L45.659374 141.1277Q45.659374 141.89333 45.159374 142.39333Q44.675 142.8777 43.925 142.8777Q43.159374 142.8777 42.659374 142.39333Q42.159374 141.89333 42.159374 141.08083L42.159374 140.67458ZM42.971874 141.1277Q42.971874 141.58083 43.221874 141.8777Q43.4875 142.17458 43.925 142.17458Q44.346874 142.17458 44.596874 141.89333Q44.846874 141.59645 44.846874 141.09645L44.846874 140.67458Q44.846874 140.22145 44.596874 139.92458Q44.346874 139.61208 43.909374 139.61208Q43.471874 139.61208 43.221874 139.92458Q42.971874 140.22145 42.971874 140.6902L42.971874 141.1277ZM46.315624 145.47145Q46.315624 144.70583 46.8 144.22145Q47.3 143.72145 48.065624 143.72145Q48.83125 143.72145 49.315624 144.22145Q49.815624 144.70583 49.815624 145.51833L49.815624 145.92458Q49.815624 146.6902 49.33125 147.1902Q48.846874 147.6902 48.08125 147.6902Q47.315624 147.6902 46.815624 147.20583Q46.315624 146.70583 46.315624 145.89333L46.315624 145.47145ZM47.128124 145.92458Q47.128124 146.39333 47.378124 146.6902Q47.64375 146.98708 48.08125 146.98708Q48.503124 146.98708 48.753124 146.70583Q49.003124 146.40895 49.003124 145.90895L49.003124 145.47145Q49.003124 145.0027 48.7375 144.72145Q48.4875 144.42458 48.065624 144.42458Q47.64375 144.42458 47.378124 144.72145Q47.128124 145.0027 47.128124 145.5027L47.128124 145.92458ZM44.175 146.92458L43.55 146.53395L47.721874 139.86208L48.33125 140.2527L44.175 146.92458Z" fill-rule="nonzero"/><path stroke="#757575" stroke-width="1.0" stroke-linecap="butt" d="M18.55 134.0652L157.48334 134.0652L199.4151 134.0652" fill-rule="nonzero"/><path fill="#9e9e9e" d="M201.4151 134.0652C201.4151 132.96063 200.51967 132.0652 199.4151 132.0652C198.31053 132.0652 197.4151 132.96063 197.4151 134.0652C197.4151 135.16977 198.31053 136.0652 199.4151 136.0652C200.51967 136.0652 201.4151 135.16977 201.4151 134.0652" fill-rule="nonzero"/><path fill="#757575" d="M24.3625 271.2179L20.659374 271.2179L20.659374 274.23352L24.95625 274.23352L24.95625 275.1554L19.534374 275.1554L19.534374 266.62415L24.909374 266.62415L24.909374 267.54602L20.659374 267.54602L20.659374 270.29602L24.3625 270.29602L24.3625 271.2179ZM29.05 271.35852Q27.6125 270.93665 26.940624 270.32727Q26.284374 269.7179 26.284374 268.82727Q26.284374 267.82727 27.08125 267.17102Q27.89375 266.49915 29.190624 266.49915Q30.065624 266.49915 30.753124 266.8429Q31.440624 267.18665 31.815624 267.7804Q32.20625 268.37415 32.20625 269.0929L31.065624 269.0929Q31.065624 268.31165 30.565624 267.87415Q30.08125 267.43665 29.190624 267.43665Q28.3625 267.43665 27.89375 267.81165Q27.425 268.17102 27.425 268.81165Q27.425 269.3429 27.8625 269.70227Q28.315624 270.06165 29.378124 270.35852Q30.440624 270.6554 31.034374 271.01477Q31.64375 271.37415 31.925 271.85852Q32.221874 272.3429 32.221874 272.98352Q32.221874 274.0304 31.409374 274.6554Q30.596874 275.2804 29.253124 275.2804Q28.3625 275.2804 27.596874 274.93665Q26.846874 274.5929 26.425 274.01477Q26.01875 273.42102 26.01875 272.68665L27.14375 272.68665Q27.14375 273.45227 27.721874 273.9054Q28.3 274.35852 29.253124 274.35852Q30.14375 274.35852 30.6125 273.99915Q31.08125 273.62415 31.08125 272.99915Q31.08125 272.37415 30.64375 272.0304Q30.20625 271.68665 29.05 271.35852ZM39.815624 272.45227Q39.659374 273.79602 38.815624 274.54602Q37.971874 275.2804 36.58125 275.2804Q35.065624 275.2804 34.159374 274.20227Q33.253124 273.10852 33.253124 271.2804L33.253124 270.4679Q33.253124 269.2804 33.675 268.37415Q34.096874 267.4679 34.878124 266.98352Q35.659374 266.49915 36.675 266.49915Q38.034374 266.49915 38.846874 267.26477Q39.675 268.0304 39.815624 269.35852L38.690624 269.35852Q38.534374 268.3429 38.05 267.88977Q37.565624 267.43665 36.675 267.43665Q35.596874 267.43665 34.9875 268.23352Q34.378124 269.0304 34.378124 270.49915L34.378124 271.32727Q34.378124 272.7179 34.95625 273.54602Q35.534374 274.35852 36.58125 274.35852Q37.51875 274.35852 38.01875 273.93665Q38.51875 273.49915 38.690624 272.45227L39.815624 272.45227ZM44.675 271.70227L42.659374 271.70227L42.659374 275.1554L41.534374 275.1554L41.534374 266.62415L44.3625 266.62415Q45.8 266.62415 46.565624 267.2804Q47.346874 267.93665 47.346874 269.18665Q47.346874 269.98352 46.909374 270.57727Q46.4875 271.17102 45.721874 271.4679L47.721874 275.07727L47.721874 275.1554L46.51875 275.1554L44.675 271.70227ZM42.659374 270.7804L44.39375 270.7804Q45.2375 270.7804 45.721874 270.35852Q46.221874 269.92102 46.221874 269.18665Q46.221874 268.4054 45.753124 267.98352Q45.284374 267.56165 44.39375 267.54602L42.659374 267.54602L42.659374 270.7804ZM49.753124 275.1554L48.628124 275.1554L48.628124 266.62415L49.753124 266.62415L49.753124 275.1554ZM57.440624 267.54602L54.690624 267.54602L54.690624 275.1554L53.58125 275.1554L53.58125 267.54602L50.83125 267.54602L50.83125 266.62415L57.440624 266.62415L57.440624 267.54602ZM64.55 266.62415L64.55 272.42102Q64.53438 273.62415 63.784374 274.4054Q63.034374 275.17102 61.753124 275.26477L61.440624 275.2804Q60.05 275.2804 59.20625 274.5304Q58.378124 273.76477 58.378124 272.43665L58.378124 266.62415L59.4875 266.62415L59.4875 272.4054Q59.4875 273.32727 59.9875 273.8429Q60.503124 274.35852 61.440624 274.35852Q62.409374 274.35852 62.909374 273.8429Q63.409374 273.32727 63.409374 272.4054L63.409374 266.62415L64.55 266.62415ZM69.675 271.70227L67.65938 271.70227L67.65938 275.1554L66.53438 275.1554L66.53438 266.62415L69.3625 266.62415Q70.8 266.62415 71.56563 267.2804Q72.34688 267.93665 72.34688 269.18665Q72.34688 269.98352 71.90938 270.57727Q71.4875 271.17102 70.72188 271.4679L72.72188 275.07727L72.72188 275.1554L71.51875 275.1554L69.675 271.70227ZM67.65938 270.7804L69.39375 270.7804Q70.2375 270.7804 70.72188 270.35852Q71.22188 269.92102 71.22188 269.18665Q71.22188 268.4054 70.75313 267.98352Q70.28438 267.56165 69.39375 267.54602L67.65938 267.54602L67.65938 270.7804ZM78.25313 272.92102L74.675 272.92102L73.87813 275.1554L72.72188 275.1554L75.97188 266.62415L76.95625 266.62415L80.22188 275.1554L79.06563 275.1554L78.25313 272.92102ZM75.01875 271.99915L77.925 271.99915L76.47188 268.01477L75.01875 271.99915Z" fill-rule="nonzero"/><path fill="#9e9e9e" d="M24.846874 293.1554L19.253124 293.1554L19.253124 292.37415L22.20625 289.0929Q22.8625 288.3429 23.1125 287.88977Q23.3625 287.42102 23.3625 286.92102Q23.3625 286.24915 22.95625 285.82727Q22.565624 285.38977 21.878124 285.38977Q21.08125 285.38977 20.628124 285.85852Q20.175 286.31165 20.175 287.13977L19.096874 287.13977Q19.096874 285.95227 19.846874 285.23352Q20.6125 284.49915 21.878124 284.49915Q23.08125 284.49915 23.76875 285.12415Q24.45625 285.74915 24.45625 286.79602Q24.45625 288.04602 22.846874 289.79602L20.565624 292.26477L24.846874 292.26477L24.846874 293.1554ZM31.6125 289.51477Q31.6125 291.42102 30.95625 292.35852Q30.315624 293.2804 28.925 293.2804Q27.565624 293.2804 26.909374 292.37415Q26.253124 291.4679 26.221874 289.6554L26.221874 288.2179Q26.221874 286.32727 26.8625 285.42102Q27.51875 284.49915 28.909374 284.49915Q30.284374 284.49915 30.940624 285.38977Q31.596874 286.26477 31.6125 288.10852L31.6125 289.51477ZM30.51875 288.0304Q30.51875 286.6554 30.128124 286.0304Q29.753124 285.38977 28.909374 285.38977Q28.08125 285.38977 27.690624 286.0304Q27.315624 286.6554 27.315624 287.95227L27.315624 289.68665Q27.315624 291.06165 27.70625 291.73352Q28.1125 292.38977 28.925 292.38977Q29.721874 292.38977 30.1125 291.76477Q30.503124 291.13977 30.51875 289.81165L30.51875 288.0304ZM33.33125 294.85852L32.721874 294.43665Q33.26875 293.67102 33.3 292.8429L33.3 291.87415L34.3625 291.87415L34.3625 292.7179Q34.3625 293.31165 34.065624 293.9054Q33.76875 294.49915 33.33125 294.85852ZM39.51875 284.62415L39.51875 285.5304L39.315624 285.5304Q38.05 285.56165 37.3 286.29602Q36.55 287.01477 36.425 288.32727Q37.1125 287.56165 38.26875 287.56165Q39.378124 287.56165 40.05 288.3429Q40.721874 289.12415 40.721874 290.37415Q40.721874 291.68665 40.003124 292.48352Q39.284374 293.2804 38.065624 293.2804Q36.846874 293.2804 36.08125 292.3429Q35.33125 291.38977 35.33125 289.9054L35.33125 289.49915Q35.33125 287.13977 36.33125 285.88977Q37.33125 284.63977 39.315624 284.62415L39.51875 284.62415ZM38.096874 288.4679Q37.534374 288.4679 37.065624 288.79602Q36.596874 289.12415 36.409374 289.63977L36.409374 290.0304Q36.409374 291.0929 36.878124 291.73352Q37.3625 292.37415 38.065624 292.37415Q38.8 292.37415 39.221874 291.8429Q39.64375 291.29602 39.64375 290.42102Q39.64375 289.54602 39.221874 289.01477Q38.8 288.4679 38.096874 288.4679ZM42.159374 286.26477Q42.159374 285.49915 42.64375 284.99915Q43.14375 284.49915 43.909374 284.49915Q44.690624 284.49915 45.175 284.99915Q45.659374 285.49915 45.659374 286.29602L45.659374 286.7179Q45.659374 287.48352 45.159374 287.98352Q44.675 288.4679 43.925 288.4679Q43.159374 288.4679 42.659374 287.98352Q42.159374 287.48352 42.159374 286.67102L42.159374 286.26477ZM42.971874 286.7179Q42.971874 287.17102 43.221874 287.4679Q43.4875 287.76477 43.925 287.76477Q44.346874 287.76477 44.596874 287.48352Q44.846874 287.18665 44.846874 286.68665L44.846874 286.26477Q44.846874 285.81165 44.596874 285.51477Q44.346874 285.20227 43.909374 285.20227Q43.471874 285.20227 43.221874 285.51477Q42.971874 285.81165 42.971874 286.2804L42.971874 286.7179ZM46.315624 291.06165Q46.315624 290.29602 46.8 289.81165Q47.3 289.31165 48.065624 289.31165Q48.83125 289.31165 49.315624 289.81165Q49.815624 290.29602 49.815624 291.10852L49.815624 291.51477Q49.815624 292.2804 49.33125 292.7804Q48.846874 293.2804 48.08125 293.2804Q47.315624 293.2804 46.815624 292.79602Q46.315624 292.29602 46.315624 291.48352L46.315624 291.06165ZM47.128124 291.51477Q47.128124 291.98352 47.378124 292.2804Q47.64375 292.57727 48.08125 292.57727Q48.503124 292.57727 48.753124 292.29602Q49.003124 291.99915 49.003124 291.49915L49.003124 291.06165Q49.003124 290.5929 48.7375 290.31165Q48.4875 290.01477 48.065624 290.01477Q47.64375 290.01477 47.378124 290.31165Q47.128124 290.5929 47.128124 291.0929L47.128124 291.51477ZM44.175 292.51477L43.55 292.12415L47.721874 285.45227L48.33125 285.8429L44.175 292.51477Z" fill-rule="nonzero"/><path stroke="#757575" stroke-width="1.0" stroke-linecap="butt" d="M18.55 279.6554L157.48334 279.6554L187.04332 279.6554" fill-rule="nonzero"/><path fill="#9e9e9e" d="M189.04332 279.6554C189.04332 278.5508 188.14789 277.6554 187.04332 277.6554C185.93875 277.6554 185.04332 278.5508 185.04332 279.6554C185.04332 280.75995 185.93875 281.6554 187.04332 281.6554C188.14789 281.6554 189.04332 280.75995 189.04332 279.6554" fill-rule="nonzero"/><path fill="#757575" d="M528.65314 237.76465L527.52814 237.76465L527.52814 229.2334L528.65314 229.2334L528.65314 237.76465ZM536.9969 237.76465L535.8719 237.76465L531.575 231.18652L531.575 237.76465L530.4344 237.76465L530.4344 229.2334L531.575 229.2334L535.8719 235.84277L535.8719 229.2334L536.9969 229.2334L536.9969 237.76465ZM545.34064 230.15527L542.59064 230.15527L542.59064 237.76465L541.48126 237.76465L541.48126 230.15527L538.73126 230.15527L538.73126 229.2334L545.34064 229.2334L545.34064 230.15527ZM551.2625 233.82715L547.5594 233.82715L547.5594 236.84277L551.85626 236.84277L551.85626 237.76465L546.4344 237.76465L546.4344 229.2334L551.8094 229.2334L551.8094 230.15527L547.5594 230.15527L547.5594 232.90527L551.2625 232.90527L551.2625 233.82715ZM556.575 234.31152L554.5594 234.31152L554.5594 237.76465L553.4344 237.76465L553.4344 229.2334L556.2625 229.2334Q557.7 229.2334 558.46564 229.88965Q559.2469 230.5459 559.2469 231.7959Q559.2469 232.59277 558.8094 233.18652Q558.3875 233.78027 557.6219 234.07715L559.6219 237.68652L559.6219 237.76465L558.41876 237.76465L556.575 234.31152ZM554.5594 233.38965L556.29376 233.38965Q557.1375 233.38965 557.6219 232.96777Q558.1219 232.53027 558.1219 231.7959Q558.1219 231.01465 557.65314 230.59277Q557.1844 230.1709 556.29376 230.15527L554.5594 230.15527L554.5594 233.38965ZM565.15314 233.99902L561.5594 233.99902L561.5594 237.76465L560.4344 237.76465L560.4344 229.2334L565.73126 229.2334L565.73126 230.15527L561.5594 230.15527L561.5594 233.07715L565.15314 233.07715L565.15314 233.99902ZM572.15314 235.53027L568.575 235.53027L567.77814 237.76465L566.6219 237.76465L569.8719 229.2334L570.85626 229.2334L574.1219 237.76465L572.96564 237.76465L572.15314 235.53027ZM568.91876 234.6084L571.825 234.6084L570.3719 230.62402L568.91876 234.6084ZM576.27814 236.84277L581.16876 236.84277L581.16876 237.76465L574.95 237.76465L574.95 236.9209L579.6375 230.15527L575.02814 230.15527L575.02814 229.2334L580.98126 229.2334L580.98126 230.06152L576.27814 236.84277Z" fill-rule="nonzero"/><path fill="#9e9e9e" d="M550.65314 251.4834L551.09064 247.2334L555.46564 247.2334L555.46564 248.2334L552.0125 248.2334L551.7469 250.56152Q552.3875 250.18652 553.1844 250.18652Q554.34064 250.18652 555.02814 250.96777Q555.71564 251.7334 555.71564 253.0459Q555.71564 254.3584 554.9969 255.12402Q554.29376 255.88965 553.0125 255.88965Q551.8875 255.88965 551.16876 255.26465Q550.45 254.62402 550.35626 253.51465L551.3719 253.51465Q551.48126 254.24902 551.90314 254.62402Q552.325 254.99902 553.0125 254.99902Q553.7625 254.99902 554.2 254.4834Q554.6375 253.96777 554.6375 253.06152Q554.6375 252.20215 554.16876 251.68652Q553.7 251.1709 552.91876 251.1709Q552.21564 251.1709 551.8094 251.46777L551.52814 251.70215L550.65314 251.4834ZM561.41876 247.2334L561.41876 248.13965L561.21564 248.13965Q559.95 248.1709 559.2 248.90527Q558.45 249.62402 558.325 250.93652Q559.0125 250.1709 560.16876 250.1709Q561.27814 250.1709 561.95 250.95215Q562.6219 251.7334 562.6219 252.9834Q562.6219 254.2959 561.90314 255.09277Q561.1844 255.88965 559.96564 255.88965Q558.7469 255.88965 557.98126 254.95215Q557.23126 253.99902 557.23126 252.51465L557.23126 252.1084Q557.23126 249.74902 558.23126 248.49902Q559.23126 247.24902 561.21564 247.2334L561.41876 247.2334ZM559.9969 251.07715Q559.4344 251.07715 558.96564 251.40527Q558.4969 251.7334 558.3094 252.24902L558.3094 252.63965Q558.3094 253.70215 558.77814 254.34277Q559.2625 254.9834 559.96564 254.9834Q560.7 254.9834 561.1219 254.45215Q561.54376 253.90527 561.54376 253.03027Q561.54376 252.15527 561.1219 251.62402Q560.7 251.07715 559.9969 251.07715ZM564.23126 257.46777L563.6219 257.0459Q564.16876 256.28027 564.2 255.45215L564.2 254.4834L565.2625 254.4834L565.2625 255.32715Q565.2625 255.9209 564.96564 256.51465Q564.66876 257.1084 564.23126 257.46777ZM566.65314 251.4834L567.09064 247.2334L571.46564 247.2334L571.46564 248.2334L568.0125 248.2334L567.7469 250.56152Q568.3875 250.18652 569.1844 250.18652Q570.34064 250.18652 571.02814 250.96777Q571.71564 251.7334 571.71564 253.0459Q571.71564 254.3584 570.9969 255.12402Q570.29376 255.88965 569.0125 255.88965Q567.8875 255.88965 567.16876 255.26465Q566.45 254.62402 566.35626 253.51465L567.3719 253.51465Q567.48126 254.24902 567.90314 254.62402Q568.325 254.99902 569.0125 254.99902Q569.7625 254.99902 570.2 254.4834Q570.6375 253.96777 570.6375 253.06152Q570.6375 252.20215 570.16876 251.68652Q569.7 251.1709 568.91876 251.1709Q568.21564 251.1709 567.8094 251.46777L567.52814 251.70215L566.65314 251.4834ZM573.0594 248.87402Q573.0594 248.1084 573.54376 247.6084Q574.04376 247.1084 574.8094 247.1084Q575.59064 247.1084 576.075 247.6084Q576.5594 248.1084 576.5594 248.90527L576.5594 249.32715Q576.5594 250.09277 576.0594 250.59277Q575.575 251.07715 574.825 251.07715Q574.0594 251.07715 573.5594 250.59277Q573.0594 250.09277 573.0594 249.28027L573.0594 248.87402ZM573.8719 249.32715Q573.8719 249.78027 574.1219 250.07715Q574.3875 250.37402 574.825 250.37402Q575.2469 250.37402 575.4969 250.09277Q575.7469 249.7959 575.7469 249.2959L575.7469 248.87402Q575.7469 248.4209 575.4969 248.12402Q575.2469 247.81152 574.8094 247.81152Q574.3719 247.81152 574.1219 248.12402Q573.8719 248.4209 573.8719 248.88965L573.8719 249.32715ZM577.21564 253.6709Q577.21564 252.90527 577.7 252.4209Q578.2 251.9209 578.96564 251.9209Q579.73126 251.9209 580.21564 252.4209Q580.71564 252.90527 580.71564 253.71777L580.71564 254.12402Q580.71564 254.88965 580.23126 255.38965Q579.7469 255.88965 578.98126 255.88965Q578.21564 255.88965 577.71564 255.40527Q577.21564 254.90527 577.21564 254.09277L577.21564 253.6709ZM578.02814 254.12402Q578.02814 254.59277 578.27814 254.88965Q578.54376 255.18652 578.98126 255.18652Q579.40314 255.18652 579.65314 254.90527Q579.90314 254.6084 579.90314 254.1084L579.90314 253.6709Q579.90314 253.20215 579.6375 252.9209Q579.3875 252.62402 578.96564 252.62402Q578.54376 252.62402 578.27814 252.9209Q578.02814 253.20215 578.02814 253.70215L578.02814 254.12402ZM575.075 255.12402L574.45 254.7334L578.6219 248.06152L579.23126 248.45215L575.075 255.12402Z" fill-rule="nonzero"/><path stroke="#757575" stroke-width="1.0" stroke-linecap="butt" d="M581.45 242.26465L442.51666 242.26465L426.98965 242.26465" fill-rule="nonzero"/><path fill="#9e9e9e" d="M428.98965 242.26465C428.98965 241.16008 428.09424 240.26465 426.98965 240.26465C425.8851 240.26465 424.98965 241.16008 424.98965 242.26465C424.98965 243.36922 425.8851 244.26465 426.98965 244.26465C428.09424 244.26465 428.98965 243.36922 428.98965 242.26465" fill-rule="nonzero"/><path fill="#3c78d8" d="M30.9875 32.815624Q30.815624 35.1125 29.284374 36.440624Q27.753124 37.753124 25.253124 37.753124Q22.51875 37.753124 20.95625 35.909374Q19.39375 34.065624 19.39375 30.846874L19.39375 29.9875Q19.39375 27.925 20.1125 26.3625Q20.83125 24.8 22.175 23.971874Q23.51875 23.128124 25.3 23.128124Q27.753124 23.128124 29.253124 24.45625Q30.76875 25.76875 31.003124 28.159374L28.065624 28.159374Q27.971874 26.784374 27.3 26.159374Q26.64375 25.534374 25.3 25.534374Q23.83125 25.534374 23.096874 26.596874Q22.378124 27.64375 22.3625 29.846874L22.3625 30.925Q22.3625 33.221874 23.05 34.284374Q23.753124 35.346874 25.253124 35.346874Q26.6125 35.346874 27.284374 34.7375Q27.95625 34.1125 28.05 32.815624L30.9875 32.815624ZM40.846874 34.6125L35.70625 34.6125L34.7375 37.55L31.6125 37.55L36.909374 23.33125L39.628124 23.33125L44.95625 37.55L41.83125 37.55L40.846874 34.6125ZM36.503124 32.253124L40.05 32.253124L38.26875 26.925L36.503124 32.253124ZM53.190624 33.815624Q53.190624 32.9875 52.596874 32.55Q52.01875 32.096874 50.4875 31.6125Q48.971874 31.1125 48.08125 30.628124Q45.659374 29.33125 45.659374 27.1125Q45.659374 25.95625 46.3 25.05Q46.95625 24.14375 48.175 23.64375Q49.39375 23.128124 50.909374 23.128124Q52.425 23.128124 53.6125 23.690624Q54.815624 24.2375 55.471874 25.253124Q56.128124 26.253124 56.128124 27.534374L53.20625 27.534374Q53.20625 26.55 52.58125 26.01875Q51.971874 25.471874 50.8625 25.471874Q49.784374 25.471874 49.190624 25.925Q48.596874 26.378124 48.596874 27.1125Q48.596874 27.815624 49.284374 28.284374Q49.9875 28.753124 51.346874 29.159374Q53.846874 29.909374 54.9875 31.034374Q56.128124 32.14375 56.128124 33.8Q56.128124 35.64375 54.7375 36.70625Q53.346874 37.753124 50.971874 37.753124Q49.33125 37.753124 47.9875 37.159374Q46.64375 36.55 45.925 35.503124Q45.221874 34.45625 45.221874 33.08125L48.159374 33.08125Q48.159374 35.425 50.971874 35.425Q52.01875 35.425 52.596874 35.003124Q53.190624 34.58125 53.190624 33.815624ZM69.50313 30.76875Q69.50313 32.8625 68.75313 34.440624Q68.01875 36.01875 66.62813 36.89375Q65.25313 37.753124 63.471874 37.753124Q61.690624 37.753124 60.3 36.909374Q58.925 36.05 58.159374 34.471874Q57.39375 32.89375 57.39375 30.846874L57.39375 30.14375Q57.39375 28.034374 58.14375 26.440624Q58.909374 24.846874 60.284374 23.9875Q61.675 23.128124 63.440624 23.128124Q65.22188 23.128124 66.59688 23.9875Q67.9875 24.846874 68.7375 26.440624Q69.50313 28.034374 69.50313 30.128124L69.50313 30.76875ZM66.53438 30.1125Q66.53438 27.878124 65.72188 26.721874Q64.925 25.55 63.440624 25.55Q61.971874 25.55 61.159374 26.70625Q60.3625 27.846874 60.3625 30.065624L60.3625 30.76875Q60.3625 32.940624 61.159374 34.14375Q61.95625 35.346874 63.471874 35.346874Q64.94063 35.346874 65.72188 34.190624Q66.51875 33.034374 66.53438 30.815624L66.53438 30.1125ZM79.19063 33.815624Q79.19063 32.9875 78.59688 32.55Q78.01875 32.096874 76.4875 31.6125Q74.97188 31.1125 74.08125 30.628124Q71.65938 29.33125 71.65938 27.1125Q71.65938 25.95625 72.3 25.05Q72.95625 24.14375 74.175 23.64375Q75.39375 23.128124 76.90938 23.128124Q78.425 23.128124 79.6125 23.690624Q80.81563 24.2375 81.47188 25.253124Q82.12813 26.253124 82.12813 27.534374L79.20625 27.534374Q79.20625 26.55 78.58125 26.01875Q77.97188 25.471874 76.8625 25.471874Q75.78438 25.471874 75.19063 25.925Q74.59688 26.378124 74.59688 27.1125Q74.59688 27.815624 75.28438 28.284374Q75.9875 28.753124 77.34688 29.159374Q79.84688 29.909374 80.9875 31.034374Q82.12813 32.14375 82.12813 33.8Q82.12813 35.64375 80.7375 36.70625Q79.34688 37.753124 76.97188 37.753124Q75.33125 37.753124 73.9875 37.159374Q72.64375 36.55 71.925 35.503124Q71.22188 34.45625 71.22188 33.08125L74.15938 33.08125Q74.15938 35.425 76.97188 35.425Q78.01875 35.425 78.59688 35.003124Q79.19063 34.58125 79.19063 33.815624ZM88.81563 37.55L88.81563 23.33125L93.19063 23.33125Q95.06563 23.33125 96.55 24.175Q98.03438 25.01875 98.8625 26.58125Q99.69063 28.128124 99.69063 30.1125L99.69063 30.76875Q99.69063 32.753124 98.87813 34.3Q98.06563 35.846874 96.58125 36.690624Q95.09688 37.534374 93.22188 37.55L88.81563 37.55ZM91.75313 25.70625L91.75313 35.190624L93.15938 35.190624Q94.87813 35.190624 95.78438 34.08125Q96.70625 32.95625 96.72188 30.8625L96.72188 30.1125Q96.72188 27.940624 95.81563 26.83125Q94.925 25.70625 93.19063 25.70625L91.75313 25.70625ZM110.37813 31.39375L104.75313 31.39375L104.75313 35.190624L111.34688 35.190624L111.34688 37.55L101.81563 37.55L101.81563 23.33125L111.33125 23.33125L111.33125 25.70625L104.75313 25.70625L104.75313 29.096874L110.37813 29.096874L110.37813 31.39375ZM120.75313 32.534374L120.75313 37.55L117.81563 37.55L117.81563 23.33125L123.3625 23.33125Q124.97188 23.33125 126.175 23.925Q127.39375 24.503124 128.05 25.58125Q128.70625 26.659374 128.70625 28.034374Q128.70625 30.128124 127.26875 31.33125Q125.84688 32.534374 123.31563 32.534374L120.75313 32.534374ZM120.75313 30.159374L123.3625 30.159374Q124.53438 30.159374 125.14375 29.6125Q125.75313 29.065624 125.75313 28.05Q125.75313 27.01875 125.12813 26.378124Q124.51875 25.721874 123.44063 25.70625L120.75313 25.70625L120.75313 30.159374ZM136.08125 32.346874L133.75313 32.346874L133.75313 37.55L130.81563 37.55L130.81563 23.33125L136.09688 23.33125Q138.62813 23.33125 139.9875 24.45625Q141.3625 25.58125 141.3625 27.628124Q141.3625 29.08125 140.72188 30.05Q140.09688 31.01875 138.81563 31.596874L141.89375 37.409374L141.89375 37.55L138.75313 37.55L136.08125 32.346874ZM133.75313 29.971874L136.1125 29.971874Q137.22188 29.971874 137.81563 29.409374Q138.425 28.846874 138.425 27.8625Q138.425 26.8625 137.84688 26.284374Q137.28438 25.70625 136.09688 25.70625L133.75313 25.70625L133.75313 29.971874ZM154.58125 23.33125L154.58125 32.690624Q154.58125 35.034374 153.1125 36.39375Q151.65938 37.753124 149.12813 37.753124Q146.64375 37.753124 145.175 36.440624Q143.70625 35.1125 143.69063 32.8L143.69063 23.33125L146.6125 23.33125L146.6125 32.721874Q146.6125 34.1125 147.28438 34.753124Q147.95625 35.39375 149.12813 35.39375Q151.59688 35.39375 151.64375 32.8L151.64375 23.33125L154.58125 23.33125ZM165.37813 31.39375L159.75313 31.39375L159.75313 35.190624L166.34688 35.190624L166.34688 37.55L156.81563 37.55L156.81563 23.33125L166.33125 23.33125L166.33125 25.70625L159.75313 25.70625L159.75313 29.096874L165.37813 29.096874L165.37813 31.39375ZM167.81563 37.55L167.81563 23.33125L172.8 23.33125Q175.39375 23.33125 176.72188 24.33125Q178.06563 25.315624 178.06563 27.221874Q178.06563 28.26875 177.51875 29.065624Q176.9875 29.8625 176.03438 30.2375Q177.12813 30.503124 177.75313 31.346874Q178.39375 32.175 178.39375 33.3625Q178.39375 35.425 177.08125 36.4875Q175.76875 37.534374 173.34688 37.55L167.81563 37.55ZM170.75313 31.3625L170.75313 35.190624L173.25313 35.190624Q174.3 35.190624 174.87813 34.70625Q175.45625 34.20625 175.45625 33.346874Q175.45625 31.39375 173.44063 31.3625L170.75313 31.3625ZM170.75313 29.284374L172.925 29.284374Q175.12813 29.253124 175.12813 27.51875Q175.12813 26.55 174.56563 26.128124Q174.01875 25.70625 172.8 25.70625L170.75313 25.70625L170.75313 29.284374ZM188.84688 34.6125L183.70625 34.6125L182.7375 37.55L179.6125 37.55L184.90938 23.33125L187.62813 23.33125L192.95625 37.55L189.83125 37.55L188.84688 34.6125ZM184.50313 32.253124L188.05 32.253124L186.26875 26.925L184.50313 32.253124Z" fill-rule="nonzero"/><path fill="#3c78d8" d="M24.596874 60.440624Q24.596874 59.8625 24.190624 59.55Q23.784374 59.2375 22.70625 58.89375Q21.64375 58.55 21.01875 58.20625Q19.33125 57.3 19.33125 55.7375Q19.33125 54.940624 19.784374 54.315624Q20.2375 53.675 21.08125 53.315624Q21.940624 52.95625 23.003124 52.95625Q24.065624 52.95625 24.89375 53.346874Q25.7375 53.7375 26.190624 54.440624Q26.659374 55.14375 26.659374 56.034374L24.6125 56.034374Q24.6125 55.346874 24.175 54.971874Q23.753124 54.596874 22.971874 54.596874Q22.221874 54.596874 21.8 54.909374Q21.378124 55.221874 21.378124 55.753124Q21.378124 56.2375 21.8625 56.565624Q22.3625 56.89375 23.315624 57.175Q25.065624 57.70625 25.8625 58.4875Q26.659374 59.26875 26.659374 60.425Q26.659374 61.721874 25.675 62.45625Q24.70625 63.190624 23.05 63.190624Q21.89375 63.190624 20.95625 62.76875Q20.01875 62.346874 19.51875 61.6125Q19.01875 60.878124 19.01875 59.925L21.08125 59.925Q21.08125 61.565624 23.05 61.565624Q23.784374 61.565624 24.190624 61.26875Q24.596874 60.971874 24.596874 60.440624ZM31.70625 63.190624Q30.08125 63.190624 29.065624 62.190624Q28.05 61.190624 28.05 59.534374L28.05 59.33125Q28.05 58.221874 28.471874 57.346874Q28.909374 56.471874 29.690624 56.003124Q30.4875 55.51875 31.4875 55.51875Q33.01875 55.51875 33.878124 56.471874Q34.753124 57.425 34.753124 59.190624L34.753124 59.9875L30.05 59.9875Q30.14375 60.721874 30.628124 61.159374Q31.1125 61.596874 31.846874 61.596874Q32.9875 61.596874 33.628124 60.76875L34.596874 61.846874Q34.159374 62.4875 33.39375 62.846874Q32.64375 63.190624 31.70625 63.190624ZM31.4875 57.1125Q30.89375 57.1125 30.534374 57.51875Q30.175 57.909374 30.065624 58.64375L32.815624 58.64375L32.815624 58.4875Q32.8 57.83125 32.45625 57.471874Q32.1125 57.1125 31.4875 57.1125ZM36.01875 59.3Q36.01875 57.596874 36.83125 56.565624Q37.64375 55.51875 39.01875 55.51875Q40.2375 55.51875 40.909374 56.346874L40.9875 55.659374L42.784374 55.659374L42.784374 62.8Q42.784374 63.76875 42.33125 64.4875Q41.89375 65.20625 41.096874 65.58125Q40.3 65.95625 39.221874 65.95625Q38.409374 65.95625 37.628124 65.62813Q36.8625 65.31563 36.471874 64.8L37.346874 63.596874Q38.08125 64.425 39.14375 64.425Q39.925 64.425 40.3625 64.00313Q40.8 63.58125 40.8 62.815624L40.8 62.409374Q40.1125 63.190624 39.003124 63.190624Q37.675 63.190624 36.846874 62.14375Q36.01875 61.096874 36.01875 59.378124L36.01875 59.3ZM38.003124 59.440624Q38.003124 60.440624 38.39375 61.01875Q38.8 61.58125 39.503124 61.58125Q40.409374 61.58125 40.8 60.909374L40.8 57.8Q40.409374 57.128124 39.51875 57.128124Q38.815624 57.128124 38.409374 57.70625Q38.003124 58.284374 38.003124 59.440624ZM48.7375 62.3Q48.003124 63.190624 46.721874 63.190624Q45.51875 63.190624 44.89375 62.503124Q44.26875 61.815624 44.26875 60.503124L44.26875 55.659374L46.2375 55.659374L46.2375 60.425Q46.2375 61.58125 47.284374 61.58125Q48.3 61.58125 48.675 60.89375L48.675 55.659374L50.659374 55.659374L50.659374 63.05L48.8 63.05L48.7375 62.3ZM47.58125 52.55L49.7375 52.55L47.846874 54.675L46.2375 54.675L47.58125 52.55ZM54.128124 55.659374L54.190624 56.503124Q54.9875 55.51875 56.315624 55.51875Q57.4875 55.51875 58.065624 56.20625Q58.64375 56.89375 58.659374 58.26875L58.659374 63.05L56.675 63.05L56.675 58.315624Q56.675 57.690624 56.39375 57.409374Q56.128124 57.128124 55.4875 57.128124Q54.659374 57.128124 54.2375 57.83125L54.2375 63.05L52.26875 63.05L52.26875 55.659374L54.128124 55.659374ZM66.70625 63.190624Q65.08125 63.190624 64.06563 62.190624Q63.05 61.190624 63.05 59.534374L63.05 59.33125Q63.05 58.221874 63.471874 57.346874Q63.909374 56.471874 64.69063 56.003124Q65.4875 55.51875 66.4875 55.51875Q68.01875 55.51875 68.87813 56.471874Q69.75313 57.425 69.75313 59.190624L69.75313 59.9875L65.05 59.9875Q65.14375 60.721874 65.62813 61.159374Q66.1125 61.596874 66.84688 61.596874Q67.9875 61.596874 68.62813 60.76875L69.59688 61.846874Q69.15938 62.4875 68.39375 62.846874Q67.64375 63.190624 66.70625 63.190624ZM66.4875 57.1125Q65.89375 57.1125 65.53438 57.51875Q65.175 57.909374 65.06563 58.64375L67.81563 58.64375L67.81563 58.4875Q67.8 57.83125 67.45625 57.471874Q67.1125 57.1125 66.4875 57.1125ZM73.39375 63.05L71.40938 63.05L71.40938 52.55L73.39375 52.55L73.39375 63.05ZM80.675 53.83125L80.675 55.659374L81.94063 55.659374L81.94063 57.096874L80.675 57.096874L80.675 60.8Q80.675 61.20625 80.83125 61.39375Q80.9875 61.565624 81.44063 61.565624Q81.76875 61.565624 82.01875 61.51875L82.01875 63.003124Q81.44063 63.190624 80.81563 63.190624Q78.7375 63.190624 78.70625 61.08125L78.70625 57.096874L77.6125 57.096874L77.6125 55.659374L78.70625 55.659374L78.70625 53.83125L80.675 53.83125ZM85.39375 63.05L83.40938 63.05L83.40938 55.659374L85.39375 55.659374L85.39375 63.05ZM83.3 53.7375Q83.3 53.3 83.59688 53.01875Q83.89375 52.721874 84.40938 52.721874Q84.90938 52.721874 85.20625 53.01875Q85.50313 53.3 85.50313 53.7375Q85.50313 54.190624 85.20625 54.4875Q84.90938 54.76875 84.40938 54.76875Q83.90938 54.76875 83.59688 54.4875Q83.3 54.190624 83.3 53.7375ZM93.97188 59.425Q93.97188 61.128124 93.19063 62.159374Q92.40938 63.190624 91.09688 63.190624Q89.97188 63.190624 89.28438 62.409374L89.28438 65.89375L87.31563 65.89375L87.31563 55.659374L89.14375 55.659374L89.20625 56.378124Q89.925 55.51875 91.08125 55.51875Q92.45625 55.51875 93.20625 56.534374Q93.97188 57.534374 93.97188 59.315624L93.97188 59.425ZM91.9875 59.26875Q91.9875 58.2375 91.6125 57.690624Q91.25313 57.128124 90.56563 57.128124Q89.62813 57.128124 89.28438 57.83125L89.28438 60.8625Q89.64375 61.596874 90.58125 61.596874Q91.9875 61.596874 91.9875 59.26875ZM95.00313 59.284374Q95.00313 58.175 95.425 57.315624Q95.84688 56.45625 96.64375 55.9875Q97.44063 55.51875 98.4875 55.51875Q99.9875 55.51875 100.925 56.440624Q101.87813 57.346874 101.9875 58.925L102.00313 59.425Q102.00313 61.128124 101.05 62.159374Q100.1125 63.190624 98.50313 63.190624Q96.90938 63.190624 95.95625 62.159374Q95.00313 61.128124 95.00313 59.378124L95.00313 59.284374ZM96.97188 59.425Q96.97188 60.471874 97.3625 61.034374Q97.76875 61.596874 98.50313 61.596874Q99.22188 61.596874 99.62813 61.05Q100.03438 60.4875 100.03438 59.284374Q100.03438 58.253124 99.62813 57.690624Q99.22188 57.1125 98.4875 57.1125Q97.76875 57.1125 97.3625 57.675Q96.97188 58.2375 96.97188 59.425ZM106.00313 59.3Q106.00313 57.565624 106.76875 56.55Q107.55 55.51875 108.89375 55.51875Q109.9875 55.51875 110.69063 56.315624L110.69063 52.55L112.65938 52.55L112.65938 63.05L110.87813 63.05L110.78438 62.26875Q110.05 63.190624 108.89375 63.190624Q107.58125 63.190624 106.78438 62.159374Q106.00313 61.128124 106.00313 59.3ZM107.97188 59.440624Q107.97188 60.471874 108.33125 61.034374Q108.70625 61.58125 109.39375 61.58125Q110.31563 61.58125 110.69063 60.815624L110.69063 57.89375Q110.31563 57.128124 109.40938 57.128124Q107.97188 57.128124 107.97188 59.440624ZM117.70625 63.190624Q116.08125 63.190624 115.06563 62.190624Q114.05 61.190624 114.05 59.534374L114.05 59.33125Q114.05 58.221874 114.47188 57.346874Q114.90938 56.471874 115.69063 56.003124Q116.4875 55.51875 117.4875 55.51875Q119.01875 55.51875 119.87813 56.471874Q120.75313 57.425 120.75313 59.190624L120.75313 59.9875L116.05 59.9875Q116.14375 60.721874 116.62813 61.159374Q117.1125 61.596874 117.84688 61.596874Q118.9875 61.596874 119.62813 60.76875L120.59688 61.846874Q120.15938 62.4875 119.39375 62.846874Q118.64375 63.190624 117.70625 63.190624ZM117.4875 57.1125Q116.89375 57.1125 116.53438 57.51875Q116.175 57.909374 116.06563 58.64375L118.81563 58.64375L118.81563 58.4875Q118.8 57.83125 118.45625 57.471874Q118.1125 57.1125 117.4875 57.1125ZM129.59688 63.05Q129.45625 62.784374 129.39375 62.39375Q128.675 63.190624 127.53438 63.190624Q126.44063 63.190624 125.72188 62.565624Q125.01875 61.925 125.01875 60.971874Q125.01875 59.8 125.87813 59.175Q126.75313 58.534374 128.40938 58.534374L129.31563 58.534374L129.31563 58.1125Q129.31563 57.596874 129.05 57.284374Q128.78438 56.971874 128.22188 56.971874Q127.72188 56.971874 127.44063 57.221874Q127.15938 57.45625 127.15938 57.878124L125.175 57.878124Q125.175 57.2375 125.56563 56.690624Q125.97188 56.14375 126.69063 55.83125Q127.425 55.51875 128.33125 55.51875Q129.69063 55.51875 130.4875 56.20625Q131.3 56.89375 131.3 58.128124L131.3 61.346874Q131.3 62.39375 131.59688 62.940624L131.59688 63.05L129.59688 63.05ZM127.95625 61.675Q128.39375 61.675 128.76875 61.4875Q129.14375 61.284374 129.31563 60.95625L129.31563 59.690624L128.58125 59.690624Q127.09688 59.690624 127.00313 60.70625L126.9875 60.83125Q126.9875 61.190624 127.2375 61.440624Q127.50313 61.675 127.95625 61.675ZM136.37813 61.596874Q136.925 61.596874 137.26875 61.3Q137.6125 60.9875 137.62813 60.4875L139.4875 60.4875Q139.47188 61.2375 139.06563 61.878124Q138.675 62.503124 137.97188 62.846874Q137.26875 63.190624 136.425 63.190624Q134.83125 63.190624 133.90938 62.190624Q133.00313 61.175 133.00313 59.39375L133.00313 59.26875Q133.00313 57.55 133.90938 56.534374Q134.81563 55.51875 136.40938 55.51875Q137.8 55.51875 138.62813 56.315624Q139.47188 57.096874 139.4875 58.409374L137.62813 58.409374Q137.6125 57.83125 137.26875 57.471874Q136.925 57.1125 136.37813 57.1125Q135.675 57.1125 135.31563 57.628124Q134.97188 58.128124 134.97188 59.253124L134.97188 59.45625Q134.97188 60.596874 135.31563 61.096874Q135.675 61.596874 136.37813 61.596874ZM143.37813 61.596874Q143.925 61.596874 144.26875 61.3Q144.6125 60.9875 144.62813 60.4875L146.4875 60.4875Q146.47188 61.2375 146.06563 61.878124Q145.675 62.503124 144.97188 62.846874Q144.26875 63.190624 143.425 63.190624Q141.83125 63.190624 140.90938 62.190624Q140.00313 61.175 140.00313 59.39375L140.00313 59.26875Q140.00313 57.55 140.90938 56.534374Q141.81563 55.51875 143.40938 55.51875Q144.8 55.51875 145.62813 56.315624Q146.47188 57.096874 146.4875 58.409374L144.62813 58.409374Q144.6125 57.83125 144.26875 57.471874Q143.925 57.1125 143.37813 57.1125Q142.675 57.1125 142.31563 57.628124Q141.97188 58.128124 141.97188 59.253124L141.97188 59.45625Q141.97188 60.596874 142.31563 61.096874Q142.675 61.596874 143.37813 61.596874ZM149.39375 63.05L147.40938 63.05L147.40938 55.659374L149.39375 55.659374L149.39375 63.05ZM147.3 53.7375Q147.3 53.3 147.59688 53.01875Q147.89375 52.721874 148.40938 52.721874Q148.90938 52.721874 149.20625 53.01875Q149.50313 53.3 149.50313 53.7375Q149.50313 54.190624 149.20625 54.4875Q148.90938 54.76875 148.40938 54.76875Q147.90938 54.76875 147.59688 54.4875Q147.3 54.190624 147.3 53.7375ZM151.00313 59.284374Q151.00313 58.175 151.425 57.315624Q151.84688 56.45625 152.64375 55.9875Q153.44063 55.51875 154.4875 55.51875Q155.9875 55.51875 156.925 56.440624Q157.87813 57.346874 157.9875 58.925L158.00313 59.425Q158.00313 61.128124 157.05 62.159374Q156.1125 63.190624 154.50313 63.190624Q152.90938 63.190624 151.95625 62.159374Q151.00313 61.128124 151.00313 59.378124L151.00313 59.284374ZM152.97188 59.425Q152.97188 60.471874 153.3625 61.034374Q153.76875 61.596874 154.50313 61.596874Q155.22188 61.596874 155.62813 61.05Q156.03438 60.4875 156.03438 59.284374Q156.03438 58.253124 155.62813 57.690624Q155.22188 57.1125 154.4875 57.1125Q153.76875 57.1125 153.3625 57.675Q152.97188 58.2375 152.97188 59.425ZM154.58125 52.55L156.7375 52.55L154.84688 54.675L153.2375 54.675L154.58125 52.55ZM161.12813 55.659374L161.19063 56.503124Q161.9875 55.51875 163.31563 55.51875Q164.4875 55.51875 165.06563 56.20625Q165.64375 56.89375 165.65938 58.26875L165.65938 63.05L163.675 63.05L163.675 58.315624Q163.675 57.690624 163.39375 57.409374Q163.12813 57.128124 162.4875 57.128124Q161.65938 57.128124 161.2375 57.83125L161.2375 63.05L159.26875 63.05L159.26875 55.659374L161.12813 55.659374Z" fill-rule="nonzero"/></svg>